<svg xmlns="http://www.w3.org/2000/svg" xmlns:xlink="http://www.w3.org/1999/xlink" width="8" height="7" viewBox="0 0 8 7">
    <defs>
      <clipPath id="b">
        <rect width="8" height="7" />
      </clipPath>
    </defs>
    <g id="a" clip-path="url(#b)">
      <path d="M0,33a1,1,0,0,1,1-1H3.064a1.125,1.125,0,0,1,.8.33l.67.67H7a1,1,0,0,1,1,1v4a1,1,0,0,1-1,1H1a1,1,0,0,1-1-1Zm1-.25A.251.251,0,0,0,.75,33v5a.251.251,0,0,0,.25.25H7A.251.251,0,0,0,7.25,38V34A.251.251,0,0,0,7,33.75H4.478a.626.626,0,0,1-.442-.183l-.706-.708a.375.375,0,0,0-.266-.109Z" transform="translate(0 -32)" fill="#101828" />
    </g>
</svg>
