<?xml version="1.0" encoding="utf-8"?>
<!-- Generator: Adobe Illustrator 25.2.0, SVG Export Plug-In . SVG Version: 6.00 Build 0)  -->
<svg version="1.1" xmlns="http://www.w3.org/2000/svg" xmlns:xlink="http://www.w3.org/1999/xlink" x="0px" y="0px"
	 viewBox="0 0 450 500" xml:space="preserve">
<style type="text/css">
	.st1{fill:#BF0B1A;}
</style>
<g id="bg">
</g>
<g id="Capa_1">
	<g>
		<g>
			<g>
				<path class="st1" d="M431,23.3h-61c-5.2,0-9.3,4.2-9.3,9.3s4.2,9.3,9.3,9.3h51.7v49.7c0,5.2,4.2,9.3,9.3,9.3
					c5.2,0,9.3-4.2,9.3-9.3v-59C440.4,27.5,436.2,23.3,431,23.3z"/>
				<path class="st1" d="M24,164.4v275.3h275.3c45.2,0,81.9-36.7,81.9-81.9V82.5H105.8C60.6,82.5,24,119.1,24,164.4z M269.9,123.2
					h61c5.2,0,9.3,4.2,9.3,9.3v59c0,5.2-4.2,9.3-9.3,9.3c-5.2,0-9.3-4.2-9.3-9.3v-49.7h-51.7c-5.2,0-9.3-4.2-9.3-9.3
					C260.6,127.4,264.8,123.2,269.9,123.2z M210.4,182.5h61c5.2,0,9.3,4.2,9.3,9.3v59c0,5.2-4.2,9.3-9.3,9.3c-5.2,0-9.3-4.2-9.3-9.3
					v-49.7h-51.7c-5.2,0-9.3-4.2-9.3-9.3C201.1,186.6,205.2,182.5,210.4,182.5z"/>
			</g>
		</g>
	</g>
</g>
</svg>
