<svg xmlns="http://www.w3.org/2000/svg" xmlns:xlink="http://www.w3.org/1999/xlink" width="8" height="11" viewBox="0 0 8 11">
    <defs>
      <clipPath id="b">
        <rect width="8" height="11" />
      </clipPath>
    </defs>
    <g id="a" clip-path="url(#b)">
      <path d="M1.333,9.667A.334.334,0,0,1,1,9.333v-8A.334.334,0,0,1,1.333,1H4.667V2.667a.666.666,0,0,0,.667.667H7v6a.334.334,0,0,1-.333.333ZM1.333,0A1.335,1.335,0,0,0,0,1.333v8a1.335,1.335,0,0,0,1.333,1.333H6.667A1.335,1.335,0,0,0,8,9.333V3.219a1.334,1.334,0,0,0-.39-.944L5.723.39A1.329,1.329,0,0,0,4.781,0ZM2.5,5.333a.5.5,0,0,0,0,1h3a.5.5,0,0,0,0-1Zm0,2a.5.5,0,0,0,0,1h3a.5.5,0,0,0,0-1Z" transform="translate(0 0)" fill="#f9fafb" />
    </g>
</svg>
