<?xml version="1.0" encoding="utf-8"?>
<!-- Generator: Adobe Illustrator 24.2.1, SVG Export Plug-In . SVG Version: 6.00 Build 0)  -->
<svg version="1.1" id="Capa_1" xmlns="http://www.w3.org/2000/svg" xmlns:xlink="http://www.w3.org/1999/xlink" x="0px" y="0px"
	 viewBox="0 0 100 100" style="enable-background:new 0 0 100 100;" xml:space="preserve">
<style type="text/css">
	.st0{fill:#272727;}
</style>
<g>
	<g>
		<path class="st0" d="M77,34.8H23c-5.3,0-9.6,4.3-9.6,9.6v46.1c0,5.3,4.3,9.6,9.6,9.6H77c5.3,0,9.6-4.3,9.6-9.6V44.3
			C86.5,39,82.2,34.8,77,34.8z M79.6,89.4c0,2.5-2,4.5-4.5,4.5H24.9c-2.5,0-4.5-2-4.5-4.5V45.4c0-2.5,2-4.5,4.5-4.5h50.3
			c2.5,0,4.5,2,4.5,4.5V89.4z"/>
	</g>
	<g>
		<path class="st0" d="M50,13c-8.8,0-16,7.3-16,16.2v5.6h6.3v-5.6c0-5.4,4.4-9.8,9.7-9.8c5.4,0,9.7,4.4,9.7,9.8v5.6H66v-5.6
			C66,20.2,58.8,13,50,13z"/>
		<path class="st0" d="M27.5,34.8v-5.6C27.5,16.6,37.6,6.3,50,6.3c12.4,0,22.5,10.2,22.5,22.8v5.6l6.3,0.2v-5.8
			C78.8,13.1,65.9,0,50,0S21.2,13.1,21.2,29.2v5.8L27.5,34.8z"/>
	</g>
	<g>
		<g>
			<path class="st0" d="M62.7,56.6c-0.3,0-0.5-0.1-0.8-0.3c-3.3-3-7.6-4.7-12-4.7s-8.7,1.7-12,4.7c-0.5,0.4-1.2,0.4-1.6-0.1
				C36,55.8,36,55,36.5,54.6c3.7-3.4,8.5-5.3,13.5-5.3s9.8,1.9,13.5,5.3c0.5,0.4,0.5,1.1,0.1,1.6C63.3,56.5,63,56.6,62.7,56.6
				L62.7,56.6z"/>
		</g>
		<g>
			<path class="st0" d="M64.6,63.9c-0.4,0-0.7-0.2-0.9-0.5C60.6,58.8,55.5,56,50,56s-10.6,2.8-13.7,7.4c-0.3,0.5-1,0.7-1.6,0.3
				c-0.5-0.3-0.7-1-0.3-1.6c3.5-5.3,9.4-8.4,15.6-8.4s12,3.2,15.6,8.4c0.3,0.5,0.2,1.2-0.3,1.6C65.1,63.9,64.9,63.9,64.6,63.9
				L64.6,63.9z"/>
		</g>
		<g>
			<path class="st0" d="M46.4,85.4c-0.3,0-0.6-0.1-0.8-0.3c-0.2-0.2-6-6.1-6-11.8c0-5.9,4.7-10.7,10.4-10.7s10.4,4.8,10.4,10.7
				c0,0.6-0.5,1.1-1.1,1.1s-1.1-0.5-1.1-1.1c0-4.6-3.6-8.4-8.1-8.4s-8.1,3.8-8.1,8.4c0,4.8,5.3,10.2,5.4,10.2c0.4,0.4,0.4,1.2,0,1.6
				C47,85.3,46.7,85.4,46.4,85.4z"/>
		</g>
		<g>
			<path class="st0" d="M53.6,85.4c-2.7,0-9-5.2-9.6-10.9c-0.2-2,0.4-4.1,1.7-5.6c1.1-1.3,2.6-2,4.3-2h0c1.6,0,3.1,0.6,4.3,1.8
				c1.2,1.2,1.9,2.8,1.9,4.5V74c0,1.8,1.4,3.3,3.1,3.3c1.7,0,3.1-1.5,3.1-3.3v-0.3c0-7-5.1-12.8-11.6-13.3c-3.4-0.2-6.6,0.9-9.1,3.3
				c-2.6,2.4-4.1,5.9-4.1,9.5c0,3,1,5.9,2.8,8.2c0.4,0.5,0.3,1.2-0.2,1.6c-0.5,0.4-1.2,0.3-1.6-0.2c-2.1-2.7-3.3-6.1-3.3-9.6
				c0-4.2,1.8-8.3,4.8-11.2c3-2.8,6.8-4.2,10.8-3.9c7.7,0.5,13.7,7.3,13.7,15.5V74c0,3.1-2.4,5.5-5.4,5.5S53.9,77,53.9,74v-0.7
				c0-1.1-0.4-2.1-1.2-2.9c-0.7-0.7-1.7-1.1-2.7-1.1c0,0,0,0,0,0c-1.3,0-2.1,0.7-2.6,1.2c-0.9,1-1.3,2.4-1.2,3.8
				c0.5,4.7,5.9,8.9,7.4,8.9c0.6,0,1.1,0.5,1.1,1.1C54.7,84.9,54.2,85.4,53.6,85.4L53.6,85.4z"/>
		</g>
		<g>
			<path class="st0" d="M57.7,83.2c-4,0-9-4.9-9-10.7c0-0.6,0.5-1.1,1.1-1.1s1.1,0.5,1.1,1.1c0,4.5,3.7,8.4,6.7,8.4
				c0.6,0,1.1,0.5,1.1,1.1C58.9,82.7,58.4,83.2,57.7,83.2z"/>
		</g>
	</g>
</g>
</svg>
