<?xml version="1.0" encoding="utf-8"?>
<!-- Generator: Adobe Illustrator 24.2.1, SVG Export Plug-In . SVG Version: 6.00 Build 0)  -->
<svg version="1.1" id="Capa_1" xmlns="http://www.w3.org/2000/svg" xmlns:xlink="http://www.w3.org/1999/xlink" x="0px" y="0px"
	 viewBox="0 0 100 100" style="enable-background:new 0 0 100 100;" xml:space="preserve">
<style type="text/css">
	.st0{fill:#272727;}
</style>
<path class="st0" d="M86.9,79.9c-4.6,0-8.4,3.1-9.6,7.3h-9.7V76.8h13.7c8.6-2,15.1-9.7,15.1-18.9c0-8.6-5.7-16.2-13.8-18.6
	C80.1,29.4,71.3,22.4,61,22.4c-4,0-7.8,1-11.1,3c-3.3-3-7.5-4.8-12-5V10.1c0-1.5-1.2-2.7-2.7-2.7H22.8C21.6,3.1,17.7,0,13.1,0
	c-5.5,0-10,4.5-10,10s4.5,10,10,10c4.6,0,8.4-3.1,9.6-7.3h9.7v8c-8.4,1.9-14.8,9.4-15.1,18.3C9,41.5,3.1,49.1,3.1,57.9
	c0,9.2,6.5,17,15.1,18.9h43.9v13.1c0,1.5,1.2,2.7,2.7,2.7h12.4c1.2,4.2,5.1,7.3,9.6,7.3c5.5,0,10-4.5,10-10S92.4,79.9,86.9,79.9z
	 M13.1,14.6c-2.5,0-4.6-2-4.6-4.6s2-4.6,4.6-4.6c2.5,0,4.6,2,4.6,4.6S15.6,14.6,13.1,14.6z M8.6,57.9c0-6.9,5.1-12.8,12-13.8
	c1.4-0.2,2.5-1.5,2.3-3c0-0.4-0.1-0.9-0.1-1.3c0-7.7,6.3-14,14-14c4.1,0,8,1.8,10.6,4.9c0.9,1.1,2.6,1.3,3.7,0.4
	c2.9-2.1,6.3-3.2,9.9-3.2c8.3,0,15.2,6.1,16.5,14c0.2,1.1,1,2,2.2,2.2c6.5,1.3,11.2,7.1,11.2,13.7c0,7.7-6.3,14-14,14H22.6
	C14.8,71.9,8.6,65.6,8.6,57.9z M86.9,94.5c-2.5,0-4.6-2-4.6-4.6c0-2.5,2-4.6,4.6-4.6c2.5,0,4.6,2,4.6,4.6
	C91.4,92.4,89.4,94.5,86.9,94.5z"/>
</svg>
