<?xml version="1.0" encoding="utf-8"?>
<!-- Generator: Adobe Illustrator 24.2.1, SVG Export Plug-In . SVG Version: 6.00 Build 0)  -->
<svg version="1.1" id="Capa_1" xmlns="http://www.w3.org/2000/svg" xmlns:xlink="http://www.w3.org/1999/xlink" x="0px" y="0px"
	 viewBox="0 0 100 100" style="enable-background:new 0 0 100 100;" xml:space="preserve">
<style type="text/css">
	.st0{fill:#272727;}
</style>
<g>
	<path class="st0" d="M99.9,53.1v-6.2H53.1v-9.4h12.5c1.7,0,3.1-1.4,3.1-3.1V3.2c0-1.7-1.4-3.1-3.1-3.1H34.4c-1.7,0-3.1,1.4-3.1,3.1
		v31.2c0,1.7,1.4,3.1,3.1,3.1h12.5v9.4H0.1v6.2h15.6v9.4H3.2c-1.7,0-3.1,1.4-3.1,3.1v31.2c0,1.7,1.4,3.1,3.1,3.1h31.2
		c1.7,0,3.1-1.4,3.1-3.1V65.6c0-1.7-1.4-3.1-3.1-3.1H21.9v-9.4h56.2v9.4H65.6c-1.7,0-3.1,1.4-3.1,3.1v31.2c0,1.7,1.4,3.1,3.1,3.1
		h31.2c1.7,0,3.1-1.4,3.1-3.1V65.6c0-1.7-1.4-3.1-3.1-3.1H84.3v-9.4L99.9,53.1z M37.5,6.3h25v25h-25V6.3z M31.3,93.7h-25v-25h25
		L31.3,93.7L31.3,93.7z M93.7,93.7h-25v-25h25L93.7,93.7L93.7,93.7z"/>
</g>
</svg>
