<?xml version="1.0" encoding="utf-8"?>
<!-- Generator: Adobe Illustrator 24.2.1, SVG Export Plug-In . SVG Version: 6.00 Build 0)  -->
<svg version="1.1" id="Capa_1" xmlns="http://www.w3.org/2000/svg" xmlns:xlink="http://www.w3.org/1999/xlink" x="0px" y="0px"
	 viewBox="0 0 100 100" style="enable-background:new 0 0 100 100;" xml:space="preserve">
<style type="text/css">
	.st0{fill:#272727;}
</style>
<g>
	<path class="st0" d="M59.2,46.8c-0.5-0.3-1,0.1-1,0.6v1.5H47.9l1.4-3.8h2.3c0.3,0.9,1.1,1.5,2.1,1.5c1.2,0,2.2-1,2.2-2.2
		c0-1.2-1-2.2-2.2-2.2c-1,0-1.8,0.6-2.1,1.5h-2.8c-0.3,0-0.6,0.2-0.7,0.5l-1.7,4.7h-1.1c-0.3-1.3-1.5-2.2-2.8-2.2
		c-1.6,0-3,1.3-3,2.9c0,1.6,1.3,2.9,3,2.9c1.4,0,2.5-0.9,2.8-2.2h1.2l3.1,5.6c0.1,0.2,0.4,0.4,0.6,0.4h2.6V57c0,0.4,0.3,0.7,0.7,0.7
		h3c0.4,0,0.7-0.3,0.7-0.7v-3c0-0.4-0.3-0.7-0.7-0.7h-3c-0.4,0-0.7,0.3-0.7,0.7v0.8h-2.2l-2.6-4.5h10v1.5c0,0.5,0.6,0.9,1,0.6
		l3.8-2.2c0.5-0.3,0.5-0.9,0-1.2L59.2,46.8z"/>
	<path class="st0" d="M22.2,40.7c-2.4,0-4.4,2-4.4,4.4v9.8c0,2.4,2,4.4,4.4,4.4c2.4,0,4.4-2,4.4-4.4v-9.8
		C26.6,42.7,24.6,40.7,22.2,40.7z"/>
	<path class="st0" d="M81.1,33c-1.2-4.4-5.2-7.7-10-7.7l-51.2,0c-11,0-20,8.9-20,20v0v9.6c0,11,8.9,20,20,20h51.2
		c4.8,0,8.8-3.3,10-7.7H100V33H81.1z M75.9,35.6l0,28.8c0,2.7-2.1,4.8-4.8,4.8l-51.2,0c-8,0-14.4-6.4-14.4-14.4v0v-9.6
		c0-8,6.4-14.4,14.4-14.4h0h51.2C73.8,30.8,75.9,33,75.9,35.6L75.9,35.6z M95.1,62.2l-13.6,0V37.8h13.6V62.2z"/>
</g>
</svg>
