<?xml version="1.0" encoding="utf-8"?>
<!-- Generator: Adobe Illustrator 24.2.1, SVG Export Plug-In . SVG Version: 6.00 Build 0)  -->
<svg version="1.1" id="Capa_1" xmlns="http://www.w3.org/2000/svg" xmlns:xlink="http://www.w3.org/1999/xlink" x="0px" y="0px"
	 viewBox="0 0 100 100" style="enable-background:new 0 0 100 100;" xml:space="preserve">
<style type="text/css">
	.st0{fill:#272727;}
</style>
<g>
	<polygon class="st0" points="96.3,43.4 96.3,43.4 96.3,43.4 	"/>
	<path class="st0" d="M98.8,46.1c-0.6-1-1.5-1.8-2.5-2.7L60.6,13.6c-2.9-2.4-6.6-3.6-10.6-3.6c-3.9,0-7.7,1.2-10.6,3.6h0L3.7,43.4
		c-1,0.8-1.8,1.7-2.5,2.7c-0.6,1-1.1,2.1-1.1,3.4c0,0.6,0.1,1.2,0.3,1.8c0.4,1,1.1,1.8,1.8,2.4c1.2,0.9,2.5,1.4,4,1.7
		c1.5,0.3,3.2,0.5,5.1,0.5h2.8v26.3c0,2.2,0.9,4.1,2.3,5.5c1.4,1.4,3.4,2.3,5.5,2.3h25.1h5.7H78c2.2,0,4.1-0.9,5.5-2.3
		c1.4-1.4,2.3-3.4,2.3-5.5V56h2.8c2.9,0,5.3-0.3,7.3-1.2c1-0.4,1.9-1,2.7-1.9c0.4-0.4,0.7-1,0.9-1.5c0.2-0.6,0.3-1.2,0.3-1.8
		C99.9,48.2,99.4,47,98.8,46.1z M55,82.3c0,0.6-0.2,1.1-0.6,1.5c-0.4,0.4-0.9,0.6-1.5,0.6h-5.7c-0.6,0-1.1-0.2-1.5-0.6
		c-0.4-0.4-0.6-0.9-0.6-1.5V70.5c0-0.6,0.2-1.1,0.6-1.5c0.4-0.4,0.9-0.6,1.5-0.6h5.7c0.6,0,1.1,0.2,1.5,0.6c0.4,0.4,0.6,0.9,0.6,1.5
		V82.3z M80.1,82.3c0,0.6-0.2,1.1-0.6,1.5c-0.4,0.4-0.9,0.6-1.5,0.6H60.4c0.2-0.7,0.3-1.4,0.3-2.1V70.5c0-2.2-0.9-4.1-2.3-5.5
		c-1.4-1.4-3.4-2.3-5.5-2.3h-5.7c-2.2,0-4.1,0.9-5.5,2.3c-1.4,1.4-2.3,3.4-2.3,5.5v11.8c0,0.7,0.1,1.4,0.3,2.1H22
		c-0.6,0-1.1-0.2-1.5-0.6c-0.4-0.4-0.6-0.9-0.6-1.5V56h60.1V82.3z M92,50c-0.9,0.2-2,0.3-3.3,0.3H11.4c-2.4,0-4.2-0.3-5-0.7
		c-0.2-0.1-0.3-0.1-0.4-0.2c0.1-0.1,0.1-0.2,0.3-0.4c0.2-0.3,0.6-0.7,1.1-1.1L43.1,18l-1.8-2.2l1.8,2.2c1.7-1.4,4.2-2.3,6.9-2.3
		c2.7,0,5.2,0.9,6.9,2.3l35.7,29.8l0,0c0.7,0.5,1.1,1.1,1.3,1.4c0,0,0,0.1,0.1,0.1c0,0-0.1,0-0.1,0.1C93.5,49.6,92.9,49.8,92,50z"/>
</g>
</svg>
