<?xml version="1.0" encoding="utf-8"?>
<!-- Generator: Adobe Illustrator 24.2.1, SVG Export Plug-In . SVG Version: 6.00 Build 0)  -->
<svg version="1.1" id="Capa_1" xmlns="http://www.w3.org/2000/svg" xmlns:xlink="http://www.w3.org/1999/xlink" x="0px" y="0px"
	 viewBox="0 0 100 100" style="enable-background:new 0 0 100 100;" xml:space="preserve">
<style type="text/css">
	.st0{fill:#272727;}
</style>
<g>
	<path class="st0" d="M77,34.8H23c-5.3,0-9.6,4.3-9.6,9.6v46.1c0,5.3,4.3,9.6,9.6,9.6H77c5.3,0,9.6-4.3,9.6-9.6V44.3
		C86.5,39,82.2,34.8,77,34.8z M79.6,89.4c0,2.5-2,4.5-4.5,4.5H24.9c-2.5,0-4.5-2-4.5-4.5V45.4c0-2.5,2-4.5,4.5-4.5h50.3
		c2.5,0,4.5,2,4.5,4.5V89.4z"/>
	<path id="XMLID_25_" class="st0" d="M59.6,77.3v-9.6c1.7-2.2,2.7-4.8,2.7-7.6c0-6.8-5.5-12.3-12.3-12.3c-6.8,0-12.3,5.5-12.3,12.3
		c0,2.8,0.9,5.5,2.7,7.6v9.6c0,5.3,4.3,9.6,9.6,9.6S59.6,82.6,59.6,77.3z M54.1,64.3c-0.6,0.6-0.9,1.4-0.9,2.3v10.8
		c0,1.8-1.4,3.2-3.2,3.2c-1.8,0-3.2-1.4-3.2-3.2V66.5c0-0.8-0.3-1.7-0.9-2.3c-1.1-1.1-1.7-2.6-1.7-4.1c0-3.2,2.6-5.9,5.9-5.9
		c3.2,0,5.9,2.6,5.9,5.9C55.9,61.7,55.2,63.1,54.1,64.3L54.1,64.3z"/>
	<g>
		<path class="st0" d="M14.9,24c0,0,0,0.1-0.1,0.2c0-0.1,0.1-0.2,0.1-0.3C14.9,23.9,14.9,24,14.9,24z"/>
		<path class="st0" d="M79.4,29.4v5.6H73v-5.6c0-12.7-10.3-23-23-23c-6.3,0-12,2.5-16.2,6.6c-2.3,2.3-4.2,5.1-5.4,8.3
			c-0.2,0.4-0.2,0.8-0.2,1.3c0,0.9,0.4,1.7,1,2.4c0.6,0.6,1.4,1,2.4,1c0.9,0,1.8-0.4,2.4-1c0.3-0.3,0.5-0.6,0.7-1
			c0,0,0.1-0.1,0.1-0.2s0-0.1,0-0.1c0.1-0.4,0.3-0.8,0.5-1.1c1-2.2,2.5-4.1,4.4-5.7c2.8-2.4,6.5-3.8,10.4-3.8
			c9,0,16.3,7.3,16.3,16.3v5.6h-6.4v-5.6c0-5.5-4.4-9.9-9.9-9.9c-4.4,0-8.1,2.8-9.4,6.8c0,0,0,0,0,0c-1.2,2.9-3.8,5-6.9,5.7
			c-0.7,0.2-1.4,0.2-2.1,0.2c-1.7,0-3.2-0.4-4.6-1.2c-3.1-1.6-5.2-4.9-5.2-8.6c0-1,0.1-2,0.4-2.9c0-0.1,0.1-0.3,0.1-0.4
			c0.1-0.3,0.2-0.6,0.3-0.8C27,7.7,37.6,0,50,0C66.2,0,79.4,13.2,79.4,29.4z"/>
	</g>
</g>
</svg>
