<?xml version="1.0" encoding="utf-8"?>
<!-- Generator: Adobe Illustrator 24.2.1, SVG Export Plug-In . SVG Version: 6.00 Build 0)  -->
<svg version="1.1" id="Capa_1" xmlns="http://www.w3.org/2000/svg" xmlns:xlink="http://www.w3.org/1999/xlink" x="0px" y="0px"
	 viewBox="0 0 100 100" style="enable-background:new 0 0 100 100;" xml:space="preserve">
<style type="text/css">
	.st0{fill:#272727;}
</style>
<path class="st0" d="M86.7,49.9l0-31.5h0c0-0.4-0.2-0.9-0.5-1.2L69.5,0.5C69.2,0.2,68.7,0,68.3,0v0l-50,0c-2.8,0-5,2.2-5,5l0.1,90
	c0,2.8,2.2,5,5,5l63.3,0c2.8,0,5-2.2,5-5l0-44.4C86.7,50.3,86.7,50.1,86.7,49.9z M80.9,16.7l-9.3,0c-0.9,0-1.7-0.7-1.7-1.7l0-9.3
	L80.9,16.7z M18.3,3.4l48.3,0l0,11.7c0,2.8,2.2,5,5,5l11.7,0l0,28.5c-0.7,0-1.3-0.1-1.9-0.4c-1.4-0.6-1.7-1.9-2.2-3.2
	c-1-2.4-2.8-3.8-5.3-4.3c-2-0.4-5,0-6.5-1.6c-1.6-1.8-1.6-4.7-3-6.6c-4.1-5.5-12-2.1-17.5-1.4c-1.7,0.2-3.4,0.4-5.1,0.4
	c-0.8,0-1.5,0.1-2.3,0c-0.8,0-0.8-0.2-0.9-0.9c-0.3-2.7-1.5-4.9-3.9-6.3c-5.5-3.4-13.1-0.7-18,2.9l0-22.1
	C16.6,4.1,17.4,3.4,18.3,3.4z M38,51.3c-1.4,1.1-2.5,2.4-3.4,3.9c-0.4,0.8-0.7,1.6-1.1,2.4c-0.5,1.2-1.2,1.6-2.3,2.2
	c-4.6,2.4-9.5,4-14.6,5.1l0-34.2c0.5,0.1,1.1,0.1,1.6-0.4c2.3-1.9,5-3.2,7.9-3.8c2.7-0.5,6-0.5,7.9,1.7c1.6,1.9,0.4,4.9,3,6.2
	c1.1,0.6,2.5,0.5,3.8,0.5c1.7,0,3.4-0.2,5.2-0.4c2.2-0.2,4.3-0.7,6.5-1.2c0,0.2,0.1,0.5,0.2,0.7c2.3,3.9,3.5,8.3,3.4,12.9
	c0,0.8,0.1,2.1-0.5,2.7c-0.6,0.6-1.8,0.2-2.5-0.1c-1.8-0.6-3.4-1.2-5.3-1.3C44.3,47.9,40.8,49.2,38,51.3z M18.4,96.7
	c-0.9,0-1.7-0.7-1.7-1.7l0-26.7c0,0,0.1,0,0.1,0c5.1-1,10.1-2.6,14.8-4.9c2.3-1.1,4.1-2.1,5.1-4.5c0.7-1.8,1.5-3.3,3-4.6
	c0.9-0.8,1.9-1.4,2.9-1.8c0.4,4.3,2.7,8.2,6.1,10.8c2.1,1.6,4.6,2.8,7.2,3.4c1.2,0.3,2.5,0.5,3.7,0.6c1.2,0.1,2.7-0.1,3.7,0.6
	c1.8,1.1,1.7,4.4,1.6,6.2c0,1.1-0.1,2.3-0.9,3.1c-0.9,0.9-2.3,1.4-3.4,1.9c-4.2,2.1-9.6,4.2-11.8,8.6c-1.2,2.5-1.9,6.2-0.9,9
	L18.4,96.7z M81.7,96.6l-29.6,0c-0.1-0.1-0.1-0.1-0.2-0.2c-1.2-0.8-1-3-0.9-4.2c0.2-1.8,0.9-3.4,2.1-4.7c3.5-3.6,8.8-4.5,12.7-7.5
	c2-1.5,2.6-3.7,2.6-6.1c0-2.1-0.1-4.4-1-6.3c-1-2.2-2.9-3.4-5.2-3.7c-2.5-0.3-4.9-0.3-7.3-1.1c-4.9-1.7-8.8-6-9-11.2
	c1.4-0.1,2.7,0,4,0.5c1.9,0.6,3.9,1.6,6,1.1c2.2-0.6,3.2-2.7,3.4-4.8c0.6-5.3-0.8-10.9-3.5-15.5c2.9-0.3,5.4,0.4,6.5,3.3
	c0.8,2.2,1.4,4.6,3.4,6.1c2,1.4,4.4,1.4,6.7,1.7c1,0.1,2.1,0.3,2.8,1.1c1.1,1.2,1.1,3,2,4.3c1.4,1.9,3.7,2.5,5.9,2.6l0,43
	C83.3,95.9,82.6,96.6,81.7,96.6z"/>
</svg>
