<?xml version="1.0" encoding="utf-8"?>
<!-- Generator: Adobe Illustrator 24.2.1, SVG Export Plug-In . SVG Version: 6.00 Build 0)  -->
<svg version="1.1" id="Capa_1" xmlns="http://www.w3.org/2000/svg" xmlns:xlink="http://www.w3.org/1999/xlink" x="0px" y="0px"
	 viewBox="0 0 100 100" style="enable-background:new 0 0 100 100;" xml:space="preserve">
<style type="text/css">
	.st0{fill:#272727;}
</style>
<g>
	<path class="st0" d="M80,0H20c-3.7,0-6.6,3-6.6,6.6v53.9l2.9-2.5c1.6-1.4,3.3-2.6,4.9-3.4c1.6-0.8,3.1-1.3,4.5-1.3
		c1.4,0,2.7,0.4,4,1.5l1.1-1.4L29.7,55c0.5,0.4,1.1,1.1,1.8,2c1,1.3,2.2,3,3.5,4.5c0.7,0.7,1.4,1.4,2.3,1.9c0.9,0.5,1.9,0.9,3,0.9
		c1.1,0,2.3-0.4,3.3-1.1c1.8-1.2,3.3-3,4.9-5.1c2.3-3.1,4.4-6.8,6.5-10.2c2-3.4,4-6.5,5.7-8.2c0.3-0.3,0.8-0.7,1.4-0.9
		c0.6-0.2,1.2-0.3,1.8-0.3c0.6,0,1.1,0.1,1.5,0.3c0.4,0.2,0.8,0.4,1.1,0.8c0.4,0.4,0.7,1.4,0.9,2.6c0.3,1.9,0.4,4.4,0.6,6.8
		c0.1,1.2,0.3,2.4,0.6,3.5c0.3,1.1,0.8,2.2,1.7,3.1c0.3,0.3,0.5,0.4,0.8,0.5c0.3,0.1,0.6,0.2,0.9,0.2c0.3,0,0.6,0,0.9,0
		c1,0,2.3-0.2,3.7-0.4c2-0.4,4.3-1,6.2-1.6c0.9-0.3,1.7-0.7,2.4-1.1c0.3-0.2,0.7-0.4,1-0.8c0.2-0.2,0.3-0.4,0.5-0.6
		c0.1-0.3,0.3-0.6,0.3-1c0-0.9,0-11.9,0-22.8c0-5.4,0-10.8,0-14.8c0-4,0-6.7,0-6.7C86.7,3,83.7,0,80,0z M83.1,50.3
		c-0.1,0-0.1,0.1-0.1,0.1c-0.5,0.3-1.2,0.6-2.1,0.9c-1.3,0.4-2.9,0.9-4.4,1.2c-1.5,0.3-2.9,0.5-3.7,0.5c-0.1,0-0.1,0-0.2,0
		c-0.1-0.2-0.2-0.3-0.3-0.6c-0.3-0.7-0.5-1.8-0.7-3c-0.2-1.9-0.3-4-0.5-6.1c-0.1-1-0.3-2.1-0.5-3.1c-0.3-1-0.7-1.9-1.3-2.7
		c-0.7-0.8-1.6-1.5-2.5-1.8c-0.9-0.4-1.9-0.6-2.9-0.6c-1.1,0-2.1,0.2-3.1,0.6c-1,0.4-1.9,0.9-2.6,1.7c-0.2,0.2-0.3,0.4-0.5,0.6
		c-0.2-0.1-0.5-0.1-0.7-0.1H26.6c-1.3,0-2.4,1.1-2.4,2.4c0,1.3,1.1,2.4,2.4,2.4h27.6c-0.1,0.1-0.1,0.2-0.2,0.3
		c-2.1,3.2-4.2,6.9-6.3,10.2c-1.1,1.6-2.1,3.1-3.1,4.4c-1,1.3-2.1,2.3-3,2.9c-0.6,0.4-0.9,0.5-1.3,0.5c-0.2,0-0.4,0-0.7-0.2
		c-0.5-0.2-1.1-0.6-1.7-1.2C37,58.3,36,57,35,55.7c-1-1.3-1.9-2.6-3.1-3.5c0,0,0,0,0,0c0,0,0,0,0,0h0c-1.9-1.6-4.1-2.3-6.3-2.3
		c-2.1,0-4.2,0.7-6.1,1.7c-0.9,0.5-1.8,1-2.6,1.6V6.6c0-1.7,1.4-3.1,3.1-3.1H80c1.7,0,3.1,1.4,3.1,3.1C83.1,6.6,83.1,44.7,83.1,50.3
		z"/>
	<path class="st0" d="M73.4,23.1H26.6c-1.3,0-2.4,1.1-2.4,2.4c0,1.3,1.1,2.4,2.4,2.4h46.9c1.3,0,2.4-1.1,2.4-2.4
		C75.8,24.1,74.7,23.1,73.4,23.1z"/>
</g>
</svg>
