<?xml version="1.0" encoding="utf-8"?>
<!-- Generator: Adobe Illustrator 24.2.1, SVG Export Plug-In . SVG Version: 6.00 Build 0)  -->
<svg version="1.1" id="Capa_1" xmlns="http://www.w3.org/2000/svg" xmlns:xlink="http://www.w3.org/1999/xlink" x="0px" y="0px"
	 viewBox="0 0 100 100" style="enable-background:new 0 0 100 100;" xml:space="preserve">
<style type="text/css">
	.st0{fill:#272727;}
</style>
<g>
	<path class="st0" d="M80.4,0H19.6c-5.1,0-9.3,4.2-9.3,9.3v81.4c0,5.1,4.2,9.3,9.3,9.3h60.7c5.1,0,9.3-4.2,9.3-9.3V9.3
		C89.7,4.2,85.5,0,80.4,0z M85.9,90.7c0,1.5-0.6,2.9-1.6,3.9c-1,1-2.4,1.6-3.9,1.6H19.6c-1.5,0-2.9-0.6-3.9-1.6
		c-1-1-1.6-2.4-1.6-3.9V9.3c0-1.5,0.6-2.9,1.6-3.9c1-1,2.4-1.6,3.9-1.6h60.7c1.5,0,2.9,0.6,3.9,1.6c1,1,1.6,2.4,1.6,3.9V90.7z"/>
	<polygon class="st0" points="65.2,39.7 65.2,30.8 72.9,23.1 71.6,21.8 69.2,19.4 62.6,25.9 56,19.4 52.2,23.1 59.9,30.8 59.9,39.7 
			"/>
	<polygon class="st0" points="64.5,55.8 70.5,55.8 70.5,66.2 75.5,66.2 75.5,55.8 81.5,55.8 81.5,50.8 64.5,50.8 	"/>
	<rect x="54.9" y="68.6" class="st0" width="5" height="14.4"/>
	<polygon class="st0" points="38.6,45.7 18.5,45.7 18.5,53 38.6,53 38.6,83 46.1,83 46.1,17 38.6,17 	"/>
</g>
</svg>
