<?xml version="1.0" encoding="utf-8"?>
<!-- Generator: Adobe Illustrator 24.2.1, SVG Export Plug-In . SVG Version: 6.00 Build 0)  -->
<svg version="1.1" id="Capa_1" xmlns="http://www.w3.org/2000/svg" xmlns:xlink="http://www.w3.org/1999/xlink" x="0px" y="0px"
	 viewBox="0 0 100 100" style="enable-background:new 0 0 100 100;" xml:space="preserve">
<style type="text/css">
	.st0{fill:#272727;}
</style>
<g>
	<path class="st0" d="M60.7,27.8c-2.6-1.4-5.9-2-9.9-2c-5.3,0-9.3,1.2-12.2,3.6c-2.9,2.4-4.4,5-4.4,7.8c0,1.5,0.4,2.7,1.2,3.5
		c0.8,0.9,1.8,1.3,3,1.3c1.3,0,2.3-0.4,3-1.2c0.8-0.8,1.2-2,1.2-3.5l-0.1-2.9c0-1.5,0.6-2.7,1.9-3.9c1.2-1.1,2.9-1.7,5-1.7
		c2.7,0,4.8,0.8,6.3,2.5c1.4,1.7,2.2,4.8,2.2,9.3v1.8c-7.8,2.8-13.4,5.3-16.7,7.2c-2.4,1.4-4.2,2.9-5.6,4.4h7.2c1.1-1.5,3-3,5.5-4.4
		c1.5-0.8,4.7-2.2,9.7-4.2v8.6h8.2V41.4c0-4.4-0.3-7.3-0.9-8.7C64,30.5,62.6,28.9,60.7,27.8z"/>
	<path class="st0" d="M80.3,0.1H19.7c-5.1,0-9.3,4.2-9.3,9.3v81.3c0,5.1,4.2,9.3,9.3,9.3h60.6c5.1,0,9.3-4.2,9.3-9.3V9.4
		C89.6,4.2,85.4,0.1,80.3,0.1z M85.8,90.6c0,1.5-0.6,2.9-1.6,3.9c-1,1-2.4,1.6-3.9,1.6H19.7c-1.5,0-2.9-0.6-3.9-1.6
		c-1-1-1.6-2.4-1.6-3.9V9.4c0-1.5,0.6-2.9,1.6-3.9c1-1,2.4-1.6,3.9-1.6h60.6c1.5,0,2.9,0.6,3.9,1.6c1,1,1.6,2.4,1.6,3.9V90.6z"/>
</g>
</svg>
