<?xml version="1.0" encoding="utf-8"?>
<!-- Generator: Adobe Illustrator 24.2.1, SVG Export Plug-In . SVG Version: 6.00 Build 0)  -->
<svg version="1.1" id="Capa_1" xmlns="http://www.w3.org/2000/svg" xmlns:xlink="http://www.w3.org/1999/xlink" x="0px" y="0px"
	 viewBox="0 0 100 100" style="enable-background:new 0 0 100 100;" xml:space="preserve">
<style type="text/css">
	.st0{fill:#272727;}
</style>
<g>
	<path class="st0" d="M65.2,67.6c-0.5,0-0.9-0.2-1.3-0.5s-0.7-1-0.8-2c-0.2-1-0.2-3.6-0.2-8V41.7c0-4.4-0.3-7.3-0.9-8.7
		c-0.9-2.2-2.4-3.8-4.3-4.8c-2.6-1.4-5.9-2-9.9-2c-5.3,0-9.3,1.2-12.3,3.6c-2.9,2.4-4.4,5-4.4,7.8c0,1.5,0.4,2.7,1.2,3.5
		c0.8,0.9,1.8,1.3,3,1.3c1.3,0,2.3-0.4,3.1-1.2c0.8-0.8,1.2-2,1.2-3.5l-0.1-2.9c0-1.5,0.6-2.7,1.9-3.9c1.2-1.1,2.9-1.7,5-1.7
		c2.7,0,4.8,0.8,6.3,2.5c1.4,1.7,2.2,4.8,2.2,9.3v1.8c-7.8,2.8-13.4,5.3-16.8,7.2c-3.4,2-5.7,4.1-7.1,6.4c-1,1.6-1.5,3.5-1.5,5.8
		c0,3.5,1,6.3,3.1,8.5c2,2.2,4.6,3.2,7.8,3.2c2,0,3.9-0.4,5.7-1.2c1.2-0.6,4.1-2.6,8.8-6.3c0,2.7,0.5,4.6,1.5,5.8
		c1,1.1,2.2,1.7,3.9,1.7c3.4,0,6.9-2.5,10.6-7.4v-2.8c-2,2-3.3,3.2-4,3.6C66.2,67.5,65.8,67.6,65.2,67.6z M54.7,63.2
		c-4.1,3.3-7.4,5-9.9,5c-1.9,0-3.5-0.8-4.9-2.4c-1.4-1.6-2.1-3.5-2.1-5.9c0-1.9,0.6-3.6,1.7-5.2c1.1-1.6,3-3.1,5.6-4.6
		c1.5-0.8,4.7-2.2,9.7-4.2V63.2z"/>
	<path class="st0" d="M80.4,0H19.6c-5.1,0-9.3,4.2-9.3,9.3v81.4c0,5.1,4.2,9.3,9.3,9.3h60.7c5.1,0,9.3-4.2,9.3-9.3V9.3
		C89.7,4.2,85.5,0,80.4,0z M85.9,90.7c0,1.5-0.6,2.9-1.6,3.9c-1,1-2.4,1.6-3.9,1.6H19.6c-1.5,0-2.9-0.6-3.9-1.6
		c-1-1-1.6-2.4-1.6-3.9V9.3c0-1.5,0.6-2.9,1.6-3.9c1-1,2.4-1.6,3.9-1.6h60.7c1.5,0,2.9,0.6,3.9,1.6c1,1,1.6,2.4,1.6,3.9V90.7z"/>
</g>
</svg>
