<?xml version="1.0" encoding="utf-8"?>
<!-- Generator: Adobe Illustrator 18.0.0, SVG Export Plug-In . SVG Version: 6.00 Build 0)  -->
<!DOCTYPE svg PUBLIC "-//W3C//DTD SVG 1.1//EN" "http://www.w3.org/Graphics/SVG/1.1/DTD/svg11.dtd">
<svg version="1.1" id="Capa_1" xmlns="http://www.w3.org/2000/svg" xmlns:xlink="http://www.w3.org/1999/xlink" x="0px" y="0px"
	 viewBox="0 0 45 45" enable-background="new 0 0 45 45" xml:space="preserve">
<path id="Shape_5_" fill="#A7A7A7" d="M23,3.7c-10.7,0-19.4,8.6-19.4,19.2S12.3,42,23,42s19.4-8.6,19.4-19.2
	C42.4,12.2,33.7,3.7,23,3.7z M23,40.1c-9.7,0-17.5-7.8-17.5-17.3S13.3,5.5,23,5.5s17.5,7.8,17.5,17.3C40.5,32.4,32.7,40.1,23,40.1z"
	/>
<g>
	<path id="Fill-12" fill="#F73435" d="M21.8,22.1l-6.1,6c-0.6,0.6-0.6,1.6,0,2.1c0.6,0.6,1.6,0.6,2.2,0l5-4.9l5.3,5.1
		c0.6,0.6,1.6,0.6,2.2,0c0.6-0.6,0.6-1.6,0-2.1L24,22.1C23.4,21.5,22.4,21.5,21.8,22.1"/>
	<path id="Fill-12_1_" fill="#F73435" d="M24,23.2l6.1-6c0.6-0.6,0.6-1.6,0-2.1c-0.6-0.6-1.6-0.6-2.2,0l-5,4.9l-5.3-5.1
		c-0.6-0.6-1.6-0.6-2.2,0c-0.6,0.6-0.6,1.6,0,2.1l6.4,6.2C22.4,23.8,23.4,23.8,24,23.2"/>
</g>
</svg>
