<?xml version="1.0" encoding="utf-8"?>
<!-- Generator: Adobe Illustrator 24.2.1, SVG Export Plug-In . SVG Version: 6.00 Build 0)  -->
<svg version="1.1" id="Capa_1" xmlns="http://www.w3.org/2000/svg" xmlns:xlink="http://www.w3.org/1999/xlink" x="0px" y="0px"
	 viewBox="0 0 100 100" style="enable-background:new 0 0 100 100;" xml:space="preserve">
<style type="text/css">
	.st0{fill:#272727;}
</style>
<g>
	<path class="st0" d="M80.4,0H19.6c-5.1,0-9.3,4.2-9.3,9.3v81.4c0,5.1,4.2,9.3,9.3,9.3h60.7c5.1,0,9.3-4.2,9.3-9.3V9.3
		C89.7,4.2,85.5,0,80.4,0z M85.9,90.7c0,1.5-0.6,2.9-1.6,3.9c-1,1-2.4,1.6-3.9,1.6H19.6c-1.5,0-2.9-0.6-3.9-1.6
		c-1-1-1.6-2.4-1.6-3.9V9.3c0-1.5,0.6-2.9,1.6-3.9c1-1,2.4-1.6,3.9-1.6h60.7c1.5,0,2.9,0.6,3.9,1.6c1,1,1.6,2.4,1.6,3.9V90.7z"/>
	<rect x="24.6" y="18.3" class="st0" width="50.8" height="1.3"/>
	<polygon class="st0" points="75.4,55.6 69,55.6 69,52.6 43.4,52.6 43.4,55.6 24.6,55.6 24.6,56.8 43.4,56.8 43.4,59.9 69,59.9 
		69,56.8 75.4,56.8 	"/>
	<polygon class="st0" points="43.4,80.4 24.6,80.4 24.6,81.7 43.4,81.7 43.4,84.7 79.1,84.7 79.1,77.4 43.4,77.4 	"/>
	<polygon class="st0" points="59.5,72.3 59.5,69.3 75.4,69.3 75.4,68 59.5,68 59.5,65 33.9,65 33.9,68 24.6,68 24.6,69.3 33.9,69.3 
		33.9,72.3 	"/>
	<polygon class="st0" points="48,44.4 75.4,44.4 75.4,43.2 48,43.2 48,40.1 22.4,40.1 22.4,47.4 48,47.4 	"/>
	<polygon class="st0" points="53.5,30.7 24.6,30.7 24.6,32 53.5,32 53.5,35 79.1,35 79.1,27.7 53.5,27.7 	"/>
	<rect x="23.7" y="8.5" class="st0" width="14.4" height="3.8"/>
	<rect x="40.1" y="8.5" class="st0" width="14.4" height="3.8"/>
	<rect x="56.3" y="8.5" class="st0" width="14.4" height="3.8"/>
</g>
</svg>
