<?xml version="1.0" encoding="utf-8"?>
<!-- Generator: Adobe Illustrator 26.4.1, SVG Export Plug-In . SVG Version: 6.00 Build 0)  -->
<svg version="1.1" xmlns="http://www.w3.org/2000/svg" xmlns:xlink="http://www.w3.org/1999/xlink" x="0px" y="0px"
	 viewBox="0 0 2602.9 1361.2" style="enable-background:new 0 0 2602.9 1361.2;" xml:space="preserve">
<style type="text/css">
	.st0{fill:#2E2E38;}
	.st1{fill:#BF0B1A;}
	.st2{fill:#65657B;}
	.st3{fill:#F4F4F6;}
</style>
<g id="bg">
</g>
<g id="Capa_1">
	<g>
		<g>
			<path class="st0" d="M1051.3,117l57.8,0l0,49.9l-56.1,0l0,183.5l-65.3,0l0-183.5l-34.8,0l0-49.9l34.8,0l0-10
				c0-25.5,7.6-45.7,22.8-60.7c15.2-15,36.6-22.4,64.3-22.4c9.8,0,19.1,1,27.8,3.1c8.8,2.1,16.1,5.1,22,8.9l-17.2,47
				c-7.5-5.3-16.3-7.9-26.4-7.9c-19.8,0-29.7,10.8-29.7,32.4L1051.3,117z"/>
			<rect x="1156.6" y="24.8" class="st0" width="65.3" height="325.6"/>
			<path class="st0" d="M1509.6,125.1l0,225.3l-62,0l0-26.8c-8.7,9.8-19,17.2-31,22.4c-12,5.2-25,7.7-38.9,7.7
				c-29.6,0-53-8.5-70.3-25.6c-17.3-17-26-42.3-26-75.8l0-127.3l65.3,0l0,117.7c0,36.3,15.2,54.4,45.6,54.4
				c15.6,0,28.2-5.1,37.7-15.3c9.5-10.2,14.2-25.3,14.2-45.4l0-111.4L1509.6,125.1z"/>
			<path class="st0" d="M1573.2,87.5c-7.2-7.1-10.8-15.9-10.8-26.4c0-10.5,3.6-19.3,10.9-26.4s16.6-10.7,28.1-10.7
				c11.5,0,20.9,3.4,28.1,10.2c7.2,6.8,10.8,15.4,10.8,25.6c0,11.1-3.6,20.3-10.9,27.5s-16.6,10.9-28.1,10.9
				C1589.8,98.2,1580.4,94.6,1573.2,87.5z"/>
			<rect x="1570.3" y="125.1" class="st0" width="65.3" height="225.3"/>
			<path class="st0" d="M1860.5,24l0,125c-16.2-18.1-38.7-27.2-67.4-27.2c-21.2,0-40.4,4.7-57.6,14.2c-17.2,9.5-30.7,23-40.4,40.6
				s-14.7,38-14.7,61.1c0,23.2,4.9,43.5,14.6,61.1c9.8,17.6,23.2,31.1,40.4,40.6s36.4,14.2,57.6,14.2c30.7,0,54.2-9.8,70.4-29.3
				l0,26l62.4,0l0-326.4L1860.5,24z M1845.4,283.2c-10.9,11.3-24.6,17-41,17c-16.7,0-30.6-5.7-41.4-17
				c-10.9-11.3-16.3-26.4-16.3-45.4s5.4-34.1,16.3-45.4c10.9-11.3,24.7-17,41.5-17c16.5,0,30.2,5.7,41,17
				c10.9,11.3,16.3,26.5,16.3,45.4S1856.3,271.9,1845.4,283.2z"/>
		</g>
		<g>
			<path class="st0" d="M1116.5,525.8c15.1,14.4,22.7,35.6,22.7,63.6l0,144.7l-21,0l0-40.7c-7.3,13.4-17.9,23.8-31.9,31.3
				c-14,7.4-30.8,11.1-50.3,11.1c-25.4,0-45.4-6-60.1-17.9c-14.7-11.9-22.1-27.7-22.1-47.2c0-18.9,6.8-34.3,20.3-46.1
				c13.6-11.8,35.2-17.7,64.9-17.7l78.3,0l0-18.4c0-21.3-5.8-37.5-17.3-48.5c-11.5-11.1-28.3-16.6-50.5-16.6
				c-15.2,0-29.7,2.6-43.5,7.9c-13.8,5.2-25.6,12.2-35.2,21L960,536.5c11.4-10.2,25.1-18.1,41.1-23.8c16-5.7,32.8-8.5,50.3-8.5
				C1079.6,504.1,1101.3,511.3,1116.5,525.8z M1087.4,704.8c13.3-8.7,23.2-21.4,30-38l0-42.8l-77.8,0c-22.4,0-38.7,4.1-48.8,12.2
				c-10.1,8.2-15.1,19.4-15.1,33.7c0,14.9,5.5,26.6,16.6,35.2c11.1,8.6,26.7,12.9,46.8,12.9C1058,717.9,1074.1,713.6,1087.4,704.8z"
				/>
			<path class="st0" d="M1342.5,719.7c-5.5,5.3-12.5,9.3-20.8,12c-8.3,2.8-17,4.2-26,4.2c-19.8,0-35.1-5.5-45.9-16.4
				c-10.8-10.9-16.2-26.2-16.2-45.7l0-149.1l-42,0l0-18.8l42,0l0-49.8l21.9,0l0,49.8l72.6,0l0,18.8l-72.6,0l0,146.9
				c0,14.9,3.6,26.2,10.7,33.9c7.1,7.7,17.7,11.6,31.7,11.6c14.3,0,26.1-4.2,35.4-12.7L1342.5,719.7z"/>
			<path class="st0" d="M1510.4,719.7c-5.5,5.3-12.5,9.3-20.8,12c-8.3,2.8-17,4.2-26,4.2c-19.8,0-35.1-5.5-45.9-16.4
				c-10.8-10.9-16.2-26.2-16.2-45.7l0-149.1l-42,0l0-18.8l42,0l0-49.8l21.9,0l0,49.8l72.6,0l0,18.8l-72.6,0l0,146.9
				c0,14.9,3.6,26.2,10.7,33.9c7.1,7.7,17.7,11.6,31.7,11.6c14.3,0,26.1-4.2,35.4-12.7L1510.4,719.7z"/>
			<path class="st0" d="M1713.3,525.9c15.2,14.4,22.7,35.6,22.7,63.6l0,144.7l-21,0l0-40.7c-7.3,13.4-17.9,23.8-31.9,31.3
				c-14,7.4-30.8,11.1-50.3,11.1c-25.4,0-45.4-6-60.1-17.9c-14.7-11.9-22.1-27.7-22.1-47.2c0-18.9,6.8-34.3,20.3-46.1
				s35.2-17.7,64.9-17.7l78.3,0l0-18.4c0-21.3-5.8-37.5-17.3-48.5c-11.5-11.1-28.3-16.6-50.5-16.6c-15.2,0-29.7,2.6-43.5,7.9
				c-13.8,5.2-25.6,12.2-35.2,21l-10.9-15.7c11.4-10.2,25.1-18.1,41.1-23.8c16-5.7,32.8-8.5,50.3-8.5
				C1676.4,504.2,1698.1,511.4,1713.3,525.9z M1684.2,704.9c13.3-8.7,23.2-21.4,30-38l0-42.8l-77.8,0c-22.4,0-38.7,4.1-48.8,12.2
				c-10.1,8.2-15.1,19.4-15.1,33.7c0,14.9,5.5,26.6,16.6,35.2c11.1,8.6,26.7,12.9,46.8,12.9C1654.8,718,1670.9,713.6,1684.2,704.9z"
				/>
			<path class="st0" d="M1857.5,721.1c-17.5-9.9-31.2-23.7-41.1-41.3c-9.9-17.6-14.9-37.5-14.9-59.7c0-22.4,5-42.5,14.9-60.1
				c9.9-17.6,23.6-31.3,41.1-41.1c17.5-9.8,37.3-14.6,59.5-14.6c18.4,0,35,3.6,50.1,10.7c15,7.1,27.2,17.6,36.5,31.3l-16.2,11.8
				c-8.2-11.4-18.3-19.9-30.4-25.6c-12.1-5.7-25.4-8.5-40-8.5c-17.8,0-33.7,4-47.9,12c-14.1,8-25.2,19.3-33.2,33.9
				c-8,14.6-12,31.3-12,50.3c0,19,4,35.7,12,50.3c8,14.6,19.1,25.9,33.2,33.9c14.1,8,30.1,12,47.9,12c14.6,0,27.9-2.8,40-8.5
				c12.1-5.7,22.2-14.2,30.4-25.6l16.2,11.8c-9.3,13.7-21.5,24.1-36.5,31.3c-15,7.1-31.7,10.7-50.1,10.7
				C1894.8,736,1875,731,1857.5,721.1z"/>
			<path class="st0" d="M2146.6,612.3l-59.5,54.2l0,67.8l-21.9,0l0-324.4l21.9,0l0,229.5l146-133.3l28,0l-98.4,92.2l108,136l-27.1,0
				L2146.6,612.3z"/>
			<path class="st0" d="M2320.6,727.7c-16.6-5.5-29.6-12.5-38.9-21l10.1-17.5c9.3,7.9,21.3,14.4,36.1,19.7
				c14.7,5.3,30.1,7.9,46.1,7.9c23,0,40-3.8,50.9-11.4c10.9-7.6,16.4-18.1,16.4-31.5c0-9.6-3-17.2-9-22.7c-6-5.5-13.3-9.6-22.1-12.2
				c-8.7-2.6-20.8-5.4-36.3-8.3c-18.1-3.2-32.6-6.7-43.7-10.5c-11.1-3.8-20.5-9.9-28.4-18.4c-7.9-8.5-11.8-20.1-11.8-35
				c0-18.1,7.5-33,22.5-44.8c15-11.8,36.4-17.7,64.1-17.7c14.6,0,29,2,43.3,6.1c14.3,4.1,25.9,9.5,35,16.2l-10.1,17.5
				c-9.3-6.7-20-11.8-31.9-15.3c-12-3.5-24.2-5.3-36.7-5.3c-21.3,0-37.3,3.9-48.1,11.8c-10.8,7.9-16.2,18.2-16.2,31
				c0,10.2,3.1,18.2,9.2,23.8c6.1,5.7,13.6,9.9,22.5,12.7c8.9,2.8,21.4,5.8,37.4,9c17.8,3.2,32.1,6.6,43.1,10.3
				c10.9,3.6,20.2,9.6,27.8,17.7c7.6,8.2,11.4,19.4,11.4,33.7c0,18.9-7.9,34.1-23.6,45.5c-15.7,11.4-37.9,17-66.5,17
				C2354.7,736,2337.2,733.3,2320.6,727.7z"/>
		</g>
		<g>
			<g>
				<path class="st0" d="M252.5,899.6l-32.3,85.2h-7.7l-28.7-73.9L155,984.8h-7.5l-32.3-85.2h7.8l28.4,76l29-76h7l28.9,75.9
					l28.7-75.9H252.5z"/>
				<path class="st0" d="M368.7,944.2h-73.2c0.2,6.6,1.9,12.5,5.1,17.7c3.2,5.2,7.4,9.2,12.8,12c5.4,2.8,11.4,4.2,18.2,4.2
					c5.5,0,10.7-1,15.4-3c4.7-2,8.7-5,11.8-8.9l4.7,5.4c-3.7,4.5-8.3,7.9-13.9,10.3c-5.6,2.4-11.7,3.6-18.2,3.6
					c-8.5,0-16-1.8-22.7-5.5c-6.6-3.7-11.8-8.8-15.6-15.3c-3.8-6.5-5.6-14-5.6-22.3c0-8.3,1.8-15.7,5.3-22.3
					c3.5-6.6,8.4-11.7,14.6-15.4c6.2-3.7,13.2-5.5,20.9-5.5c7.7,0,14.7,1.8,20.8,5.5c6.1,3.6,11,8.7,14.5,15.3
					c3.5,6.5,5.3,13.9,5.3,22.2L368.7,944.2z M312.1,910.1c-4.8,2.7-8.6,6.4-11.5,11.3c-2.9,4.8-4.5,10.3-5,16.4h65.3
					c-0.3-6.1-2-11.5-4.9-16.3c-2.9-4.8-6.8-8.5-11.6-11.3c-4.8-2.7-10.2-4.1-16.1-4.1C322.3,906.2,316.9,907.5,312.1,910.1z"/>
				<path class="st0" d="M558.4,908.3c6.2,6.2,9.3,15.1,9.3,26.8v49.8h-8.2v-49.1c0-9.6-2.4-16.9-7.3-21.9c-4.8-5-11.6-7.5-20.3-7.5
					c-10,0-17.9,3-23.7,9c-5.8,6-8.6,14-8.6,24.1v45.3h-8.2v-121h8.2v53.7c2.9-5.9,7.3-10.4,13-13.6c5.8-3.2,12.6-4.8,20.4-4.8
					C543.8,899,552.2,902.1,558.4,908.3z"/>
				<path class="st0" d="M682.1,907.1c5.7,5.4,8.5,13.3,8.5,23.7v54h-7.8v-15.2c-2.7,5-6.7,8.9-11.9,11.7
					c-5.2,2.8-11.5,4.2-18.8,4.2c-9.5,0-16.9-2.2-22.4-6.7c-5.5-4.5-8.2-10.3-8.2-17.6c0-7.1,2.5-12.8,7.6-17.2
					c5.1-4.4,13.1-6.6,24.2-6.6h29.2v-6.9c0-7.9-2.1-14-6.4-18.1c-4.3-4.1-10.6-6.2-18.8-6.2c-5.7,0-11.1,1-16.2,2.9
					c-5.2,2-9.5,4.6-13.1,7.8l-4.1-5.9c4.2-3.8,9.4-6.8,15.3-8.9c6-2.1,12.2-3.2,18.8-3.2C668.3,899,676.4,901.7,682.1,907.1z
					 M671.2,973.9c4.9-3.3,8.7-8,11.2-14.2v-16h-29c-8.4,0-14.4,1.5-18.2,4.6c-3.8,3-5.6,7.2-5.6,12.6c0,5.5,2.1,9.9,6.2,13.1
					c4.1,3.2,9.9,4.8,17.5,4.8C660.2,978.7,666.3,977.1,671.2,973.9z"/>
				<path class="st0" d="M763.6,979.9c-6.5-3.7-11.6-8.8-15.3-15.4c-3.7-6.6-5.5-14-5.5-22.3c0-8.4,1.8-15.8,5.5-22.4
					c3.7-6.6,8.8-11.7,15.3-15.3c6.5-3.6,13.9-5.5,22.2-5.5c6.9,0,13.1,1.3,18.7,4c5.6,2.7,10.1,6.6,13.6,11.7l-6,4.4
					c-3-4.2-6.8-7.4-11.3-9.5c-4.5-2.1-9.5-3.2-14.9-3.2c-6.6,0-12.6,1.5-17.9,4.5c-5.3,3-9.4,7.2-12.4,12.6
					c-3,5.4-4.5,11.7-4.5,18.8c0,7.1,1.5,13.3,4.5,18.8c3,5.4,7.1,9.7,12.4,12.6c5.3,3,11.2,4.5,17.9,4.5c5.4,0,10.4-1.1,14.9-3.2
					c4.5-2.1,8.3-5.3,11.3-9.5l6,4.4c-3.5,5.1-8,9-13.6,11.7c-5.6,2.7-11.8,4-18.7,4C777.5,985.4,770.1,983.6,763.6,979.9z"/>
				<path class="st0" d="M899.2,939.3L877,959.5v25.3h-8.2v-121h8.2v85.6l54.5-49.8h10.4L905.2,934l40.3,50.7h-10.1L899.2,939.3z"/>
				<path class="st0" d="M1130.5,899.6l-43.7,96.7c-3.3,7.5-7,12.8-11.3,16c-4.3,3.2-9.4,4.7-15.3,4.7c-3.9,0-7.6-0.7-11-2
					c-3.4-1.3-6.3-3.2-8.7-5.7l4.1-6.2c4.3,4.5,9.6,6.7,15.8,6.7c4.1,0,7.7-1.1,10.6-3.4c2.9-2.3,5.7-6.2,8.2-11.7l4.6-10.3
					l-38.3-84.8h8.6l34.1,76.2l34.1-76.2H1130.5z"/>
				<path class="st0" d="M1185,979.9c-6.5-3.7-11.6-8.8-15.3-15.4c-3.7-6.6-5.5-14-5.5-22.3c0-8.3,1.8-15.7,5.5-22.3
					c3.7-6.6,8.8-11.7,15.3-15.4c6.5-3.7,13.7-5.5,21.8-5.5c8,0,15.3,1.9,21.8,5.5c6.5,3.7,11.6,8.8,15.3,15.4
					c3.7,6.6,5.5,14,5.5,22.3c0,8.3-1.8,15.7-5.5,22.3c-3.7,6.6-8.8,11.7-15.3,15.4c-6.5,3.7-13.7,5.5-21.8,5.5
					C1198.8,985.4,1191.5,983.6,1185,979.9z M1224.4,973.5c5.2-3,9.2-7.3,12.2-12.7c3-5.4,4.5-11.6,4.5-18.6c0-7-1.5-13.2-4.5-18.6
					c-3-5.4-7.1-9.7-12.2-12.7c-5.2-3-11-4.6-17.5-4.6s-12.4,1.5-17.5,4.6c-5.2,3-9.2,7.3-12.2,12.7c-3,5.4-4.5,11.6-4.5,18.6
					c0,7,1.5,13.2,4.5,18.6c3,5.4,7.1,9.7,12.2,12.7c5.2,3,11,4.6,17.5,4.6S1219.2,976.6,1224.4,973.5z"/>
				<path class="st0" d="M1377,899.6v85.2h-7.8v-18.3c-2.8,6-7,10.6-12.6,13.9c-5.5,3.3-12.1,5-19.6,5c-11.1,0-19.8-3.1-26.1-9.3
					c-6.3-6.2-9.5-15.1-9.5-26.8v-49.8h8.2v49.1c0,9.6,2.4,16.9,7.3,21.9c4.9,5,11.8,7.5,20.7,7.5c9.6,0,17.2-3,22.8-9
					c5.6-6,8.4-14,8.4-24.1v-45.3H1377z"/>
				<path class="st0" d="M1459.3,904c5.5-3.3,12.3-5,20.2-5v8l-2-0.2c-9.5,0-16.9,3-22.2,8.9c-5.3,5.9-8,14.2-8,24.7v44.4h-8.2
					v-85.2h7.8v18.6C1449.7,912,1453.8,907.3,1459.3,904z"/>
				<path class="st0" d="M1602.9,982.3c-6.2-2.1-11-4.7-14.5-7.8l3.8-6.5c3.5,2.9,8,5.4,13.5,7.3c5.5,2,11.2,2.9,17.2,2.9
					c8.6,0,14.9-1.4,19-4.2c4.1-2.8,6.1-6.7,6.1-11.7c0-3.6-1.1-6.4-3.3-8.5c-2.2-2.1-5-3.6-8.2-4.6c-3.3-1-7.8-2-13.5-3.1
					c-6.7-1.2-12.2-2.5-16.3-3.9c-4.1-1.4-7.7-3.7-10.6-6.8c-2.9-3.2-4.4-7.5-4.4-13c0-6.7,2.8-12.3,8.4-16.7
					c5.6-4.4,13.6-6.6,23.9-6.6c5.4,0,10.8,0.8,16.1,2.3c5.3,1.5,9.7,3.5,13,6l-3.8,6.5c-3.5-2.5-7.5-4.4-11.9-5.7
					c-4.5-1.3-9-2-13.7-2c-7.9,0-13.9,1.5-17.9,4.4c-4,2.9-6,6.8-6,11.6c0,3.8,1.1,6.8,3.4,8.9c2.3,2.1,5.1,3.7,8.4,4.7
					c3.3,1,8,2.1,13.9,3.3c6.6,1.2,12,2.5,16.1,3.8c4.1,1.4,7.5,3.6,10.4,6.6s4.2,7.2,4.2,12.6c0,7.1-2.9,12.7-8.8,17
					c-5.9,4.2-14.1,6.4-24.8,6.4C1615.6,985.4,1609.1,984.4,1602.9,982.3z"/>
				<path class="st0" d="M1718.1,979.9c-6.5-3.7-11.6-8.8-15.3-15.4c-3.7-6.6-5.5-14-5.5-22.3c0-8.3,1.8-15.7,5.5-22.3
					c3.7-6.6,8.8-11.7,15.3-15.4c6.5-3.7,13.7-5.5,21.8-5.5c8,0,15.3,1.9,21.8,5.5c6.5,3.7,11.6,8.8,15.3,15.4
					c3.7,6.6,5.5,14,5.5,22.3c0,8.3-1.8,15.7-5.5,22.3c-3.7,6.6-8.8,11.7-15.3,15.4c-6.5,3.7-13.7,5.5-21.8,5.5
					C1731.9,985.4,1724.6,983.6,1718.1,979.9z M1757.5,973.5c5.2-3,9.2-7.3,12.2-12.7c3-5.4,4.5-11.6,4.5-18.6
					c0-7-1.5-13.2-4.5-18.6c-3-5.4-7.1-9.7-12.2-12.7c-5.2-3-11-4.6-17.5-4.6s-12.4,1.5-17.5,4.6c-5.2,3-9.2,7.3-12.2,12.7
					c-3,5.4-4.5,11.6-4.5,18.6c0,7,1.5,13.2,4.5,18.6c3,5.4,7.1,9.7,12.2,12.7c5.2,3,11,4.6,17.5,4.6S1752.3,976.6,1757.5,973.5z"/>
				<path class="st0" d="M1845.1,887.2v12.4h27.2v7h-27.1v78.1h-8.2v-78.1h-15.7v-7h15.7v-13c0-7.2,2.1-12.9,6.2-17.1
					c4.1-4.2,10-6.4,17.5-6.4c3.3,0,6.4,0.5,9.4,1.4c3,0.9,5.5,2.3,7.4,4.2l-3.3,6.2c-3.5-3.2-7.9-4.7-13.2-4.7
					C1850.5,870.1,1845.1,875.8,1845.1,887.2z"/>
				<path class="st0" d="M1959,979.4c-2.1,2-4.6,3.5-7.7,4.5c-3.1,1-6.3,1.6-9.7,1.6c-7.4,0-13.1-2-17.1-6.1c-4-4.1-6-9.8-6-17
					v-55.6h-15.7v-7h15.7V881h8.2v18.6h27.1v7h-27.1v54.8c0,5.5,1.3,9.8,4,12.6c2.7,2.9,6.6,4.3,11.8,4.3c5.3,0,9.7-1.6,13.2-4.7
					L1959,979.4z"/>
				<path class="st0" d="M2129.5,899.6l-32.3,85.2h-7.7l-28.7-73.9l-28.9,73.9h-7.5l-32.3-85.2h7.8l28.4,76l29-76h7l28.9,75.9
					l28.7-75.9H2129.5z"/>
				<path class="st0" d="M2226.5,907.1c5.7,5.4,8.5,13.3,8.5,23.7v54h-7.8v-15.2c-2.7,5-6.7,8.9-11.9,11.7
					c-5.2,2.8-11.5,4.2-18.8,4.2c-9.5,0-16.9-2.2-22.4-6.7c-5.5-4.5-8.2-10.3-8.2-17.6c0-7.1,2.5-12.8,7.6-17.2
					c5.1-4.4,13.1-6.6,24.2-6.6h29.2v-6.9c0-7.9-2.1-14-6.4-18.1c-4.3-4.1-10.6-6.2-18.8-6.2c-5.7,0-11.1,1-16.2,2.9
					c-5.2,2-9.5,4.6-13.1,7.8l-4.1-5.9c4.2-3.8,9.4-6.8,15.3-8.9c6-2.1,12.2-3.2,18.8-3.2C2212.8,899,2220.9,901.7,2226.5,907.1z
					 M2215.7,973.9c4.9-3.3,8.7-8,11.2-14.2v-16h-29c-8.4,0-14.4,1.5-18.2,4.6c-3.8,3-5.6,7.2-5.6,12.6c0,5.5,2.1,9.9,6.2,13.1
					c4.1,3.2,9.9,4.8,17.5,4.8C2204.7,978.7,2210.7,977.1,2215.7,973.9z"/>
				<path class="st0" d="M2316.4,904c5.5-3.3,12.3-5,20.2-5v8l-2-0.2c-9.5,0-16.9,3-22.2,8.9c-5.3,5.9-8,14.2-8,24.7v44.4h-8.2
					v-85.2h7.8v18.6C2306.8,912,2310.9,907.3,2316.4,904z"/>
				<path class="st0" d="M2458,944.2h-73.2c0.2,6.6,1.9,12.5,5.1,17.7c3.2,5.2,7.4,9.2,12.8,12c5.4,2.8,11.4,4.2,18.2,4.2
					c5.5,0,10.7-1,15.4-3c4.7-2,8.7-5,11.8-8.9l4.7,5.4c-3.7,4.5-8.3,7.9-13.9,10.3c-5.6,2.4-11.7,3.6-18.2,3.6
					c-8.5,0-16-1.8-22.7-5.5c-6.6-3.7-11.8-8.8-15.6-15.3c-3.8-6.5-5.6-14-5.6-22.3c0-8.3,1.8-15.7,5.3-22.3
					c3.5-6.6,8.4-11.7,14.6-15.4c6.2-3.7,13.2-5.5,20.9-5.5c7.7,0,14.7,1.8,20.8,5.5c6.1,3.6,11,8.7,14.5,15.3
					c3.5,6.5,5.3,13.9,5.3,22.2L2458,944.2z M2401.4,910.1c-4.8,2.7-8.6,6.4-11.5,11.3c-2.9,4.8-4.5,10.3-5,16.4h65.3
					c-0.3-6.1-2-11.5-4.9-16.3c-2.9-4.8-6.8-8.5-11.6-11.3c-4.8-2.7-10.2-4.1-16.1-4.1C2411.6,906.2,2406.2,907.5,2401.4,910.1z"/>
			</g>
		</g>
		<g>
			<path class="st1" d="M811.2,25.2H706.9c-8.8,0-16,7.1-16,16s7.1,16,16,16h88.4v85c0,8.8,7.1,16,16,16c8.8,0,16-7.1,16-16V41.1
				C827.2,32.3,820.1,25.2,811.2,25.2z"/>
			<path class="st1" d="M115.2,266.4v470.7h470.7c77.3,0,140-62.7,140-140V126.4H255.2C177.9,126.4,115.2,189.1,115.2,266.4z
				 M535.7,196h104.4c8.8,0,16,7.1,16,16V313c0,8.8-7.1,16-16,16c-8.8,0-16-7.1-16-16v-85h-88.4c-8.8,0-16-7.1-16-16
				C519.8,203.2,526.9,196,535.7,196z M434,297.4h104.4c8.8,0,16,7.1,16,16v100.9c0,8.8-7.1,16-16,16c-8.8,0-16-7.1-16-16v-85H434
				c-8.8,0-16-7.1-16-16C418,304.5,425.2,297.4,434,297.4z"/>
		</g>
		<path class="st0" d="M2468.8,1337.3H134.1c-62.6,0-113.4-50.8-113.4-113.4v0c0-62.6,50.8-113.4,113.4-113.4h2334.6
			c62.6,0,113.4,50.8,113.4,113.4v0C2582.2,1286.6,2531.4,1337.3,2468.8,1337.3z"/>
		<path class="st2" d="M458.7,1220.9l-22.3-22.3c-1.9-1.9-4.9-1.9-6.8,0c-1.9,1.9-1.9,4.9,0,6.8l18.9,18.9l-18.1,18.1
			c-1.9,1.9-1.9,4.9,0,6.8c1.9,1.9,4.9,1.9,6.8,0l21.5-21.5C460.5,1225.8,460.5,1222.8,458.7,1220.9z"/>
		<path class="st2" d="M1471.4,1220.9l-22.3-22.3c-1.9-1.9-4.9-1.9-6.8,0c-1.9,1.9-1.9,4.9,0,6.8l18.9,18.9l-18.1,18.1
			c-1.9,1.9-1.9,4.9,0,6.8c1.9,1.9,4.9,1.9,6.8,0l21.5-21.5C1473.3,1225.8,1473.3,1222.8,1471.4,1220.9z"/>
		<g>
			<path class="st3" d="M230.6,1242.7h-23.1l-4.4,13.2h-14l23.8-64h12.2l24,64h-14L230.6,1242.7z M211,1232.1h16l-8-24L211,1232.1z"
				/>
			<path class="st3" d="M283.2,1232.5h-10.5v23.4h-13.2v-64h23.8c7.6,0,13.4,1.7,17.5,5.1c4.1,3.4,6.2,8.1,6.2,14.3
				c0,4.4-0.9,8-2.8,10.9c-1.9,2.9-4.8,5.2-8.6,7l13.8,26.1v0.6h-14.2L283.2,1232.5z M272.7,1221.8h10.6c3.3,0,5.9-0.8,7.7-2.5
				c1.8-1.7,2.7-4,2.7-7c0-3-0.9-5.4-2.6-7.1c-1.7-1.7-4.3-2.6-7.9-2.6h-10.6V1221.8z"/>
			<path class="st3" d="M338.7,1191.9l16.4,46.4l16.3-46.4h17.3v64h-13.2v-17.5l1.3-30.2l-17.3,47.7h-9.1l-17.2-47.6l1.3,30.1v17.5
				h-13.2v-64H338.7z"/>
		</g>
		<g>
			<path class="st3" d="M512.6,1255.9h-13.2v-64h13.2V1255.9z"/>
			<path class="st3" d="M562.5,1239.1c0-2.5-0.9-4.4-2.6-5.7c-1.8-1.3-4.9-2.7-9.5-4.2c-4.6-1.5-8.2-2.9-10.9-4.4
				c-7.3-3.9-10.9-9.2-10.9-15.9c0-3.5,1-6.5,2.9-9.3c1.9-2.7,4.7-4.8,8.4-6.4c3.6-1.5,7.7-2.3,12.3-2.3c4.6,0,8.6,0.8,12.2,2.5
				c3.6,1.7,6.4,4,8.3,7c2,3,3,6.4,3,10.3h-13.2c0-2.9-0.9-5.2-2.8-6.8s-4.4-2.4-7.8-2.4c-3.2,0-5.7,0.7-7.5,2
				c-1.8,1.4-2.7,3.2-2.7,5.4c0,2.1,1,3.8,3.1,5.2c2.1,1.4,5.2,2.7,9.3,4c7.5,2.3,13,5.1,16.4,8.4s5.1,7.5,5.1,12.5
				c0,5.5-2.1,9.9-6.3,13c-4.2,3.1-9.8,4.7-16.9,4.7c-4.9,0-9.4-0.9-13.4-2.7s-7.1-4.3-9.3-7.4c-2.1-3.1-3.2-6.8-3.2-10.9h13.2
				c0,7.1,4.2,10.6,12.7,10.6c3.1,0,5.6-0.6,7.3-1.9S562.5,1241.4,562.5,1239.1z"/>
			<path class="st3" d="M641.7,1225.4c0,6.3-1.1,11.8-3.3,16.6s-5.4,8.4-9.6,11c-4.1,2.6-8.9,3.9-14.3,3.9c-5.3,0-10-1.3-14.2-3.8
				s-7.4-6.2-9.7-10.9c-2.3-4.7-3.4-10.2-3.5-16.3v-3.2c0-6.3,1.1-11.8,3.4-16.6c2.3-4.8,5.5-8.5,9.6-11c4.1-2.6,8.9-3.8,14.2-3.8
				s10.1,1.3,14.2,3.8c4.1,2.6,7.4,6.2,9.6,11s3.4,10.3,3.4,16.6V1225.4z M628.4,1222.5c0-6.7-1.2-11.8-3.6-15.3
				c-2.4-3.5-5.8-5.2-10.3-5.2c-4.4,0-7.8,1.7-10.2,5.2c-2.4,3.4-3.6,8.5-3.6,15.1v3.1c0,6.5,1.2,11.6,3.6,15.2s5.9,5.4,10.4,5.4
				c4.4,0,7.8-1.7,10.2-5.2s3.6-8.5,3.6-15.2V1222.5z"/>
			<path class="st3" d="M679.7,1233.6h-24.7v-10.2h24.7V1233.6z"/>
			<path class="st3" d="M709.2,1255.9H696v-64h13.2V1255.9z"/>
			<path class="st3" d="M764.4,1228.2h-25.3v17.1h29.7v10.6h-42.9v-64h42.8v10.7h-29.6v15.2h25.3V1228.2z"/>
			<path class="st3" d="M831.3,1234.6c-0.5,6.9-3,12.3-7.6,16.3c-4.6,4-10.6,5.9-18.1,5.9c-8.2,0-14.7-2.8-19.4-8.3
				c-4.7-5.5-7.1-13.1-7.1-22.7v-3.9c0-6.2,1.1-11.6,3.3-16.3c2.2-4.7,5.3-8.3,9.3-10.8c4-2.5,8.7-3.8,14-3.8c7.4,0,13.3,2,17.8,5.9
				s7.1,9.5,7.8,16.7h-13.2c-0.3-4.1-1.5-7.1-3.5-9c-2-1.9-5-2.8-9-2.8c-4.4,0-7.7,1.6-9.9,4.7c-2.2,3.1-3.3,8-3.4,14.7v4.8
				c0,6.9,1,12,3.1,15.2c2.1,3.2,5.4,4.8,9.9,4.8c4.1,0,7.1-0.9,9.1-2.8c2-1.9,3.2-4.7,3.5-8.6H831.3z"/>
			<path class="st3" d="M913.9,1255.9H870v-8.7l20.7-22.1c2.8-3.1,4.9-5.8,6.3-8.1c1.4-2.3,2-4.5,2-6.6c0-2.8-0.7-5.1-2.2-6.7
				s-3.5-2.4-6.2-2.4c-2.9,0-5.1,1-6.8,3s-2.5,4.6-2.5,7.8h-12.7c0-3.9,0.9-7.5,2.8-10.7c1.9-3.2,4.5-5.7,7.9-7.6
				c3.4-1.8,7.3-2.7,11.6-2.7c6.6,0,11.7,1.6,15.4,4.7c3.6,3.2,5.5,7.6,5.5,13.4c0,3.2-0.8,6.4-2.5,9.7c-1.6,3.3-4.5,7.1-8.4,11.5
				l-14.5,15.3h27.5V1255.9z"/>
			<path class="st3" d="M955.8,1230.3c-3.3,3.3-7.2,4.9-11.6,4.9c-5.7,0-10.2-1.9-13.6-5.8c-3.4-3.9-5.1-9.1-5.1-15.7
				c0-4.2,0.9-8,2.7-11.5c1.8-3.5,4.4-6.2,7.7-8.2c3.3-1.9,7-2.9,11.1-2.9c4.2,0,8,1.1,11.2,3.2s5.8,5.1,7.6,9.1s2.7,8.5,2.8,13.6
				v4.7c0,10.7-2.7,19-8,25.1c-5.3,6.1-12.8,9.3-22.5,9.8l-3.1,0v-10.6l2.8,0C949,1245.4,954.9,1240.2,955.8,1230.3z M947.4,1225.5
				c2.1,0,3.8-0.5,5.3-1.6s2.6-2.3,3.4-3.8v-5.2c0-4.3-0.8-7.6-2.5-10s-3.8-3.6-6.6-3.6c-2.5,0-4.6,1.2-6.3,3.5s-2.5,5.3-2.5,8.8
				c0,3.5,0.8,6.4,2.4,8.6S944.5,1225.5,947.4,1225.5z"/>
			<path class="st3" d="M1013.1,1255.9h-12.7v-49l-15.2,4.7v-10.3l26.5-9.5h1.4V1255.9z"/>
			<path class="st3" d="M1076,1231.8h7.3v10.2h-7.3v13.8h-12.7v-13.8H1037l-0.6-8l26.7-42.1h12.8V1231.8z M1049.1,1231.8h14.2v-22.6
				l-0.8,1.5L1049.1,1231.8z"/>
			<path class="st3" d="M1138,1199l-24.7,56.9h-13.4l24.8-53.7h-31.8v-10.2h45.2V1199z"/>
			<path class="st3" d="M1175.9,1233.6h-24.7v-10.2h24.7V1233.6z"/>
			<path class="st3" d="M1233.9,1255.9h-43.9v-8.7l20.7-22.1c2.8-3.1,4.9-5.8,6.3-8.1c1.4-2.3,2-4.5,2-6.6c0-2.8-0.7-5.1-2.2-6.7
				s-3.5-2.4-6.2-2.4c-2.9,0-5.1,1-6.8,3s-2.5,4.6-2.5,7.8h-12.7c0-3.9,0.9-7.5,2.8-10.7c1.9-3.2,4.5-5.7,7.9-7.6
				c3.4-1.8,7.3-2.7,11.6-2.7c6.6,0,11.7,1.6,15.4,4.7c3.6,3.2,5.5,7.6,5.5,13.4c0,3.2-0.8,6.4-2.5,9.7c-1.6,3.3-4.5,7.1-8.4,11.5
				l-14.5,15.3h27.5V1255.9z"/>
			<path class="st3" d="M1289.3,1229.5c0,8.8-1.8,15.6-5.5,20.3c-3.7,4.7-9,7-16.1,7c-7,0-12.3-2.3-16-6.9
				c-3.7-4.6-5.6-11.2-5.7-19.8v-11.8c0-8.9,1.9-15.7,5.6-20.3c3.7-4.6,9-6.9,16-6.9s12.3,2.3,16,6.9c3.7,4.6,5.6,11.2,5.7,19.8
				V1229.5z M1276.6,1216.5c0-5.3-0.7-9.2-2.2-11.6c-1.4-2.4-3.7-3.6-6.8-3.6c-3,0-5.2,1.2-6.6,3.5c-1.4,2.3-2.2,5.9-2.3,10.8v15.6
				c0,5.2,0.7,9.1,2.1,11.6s3.7,3.8,6.8,3.8c3.1,0,5.3-1.2,6.7-3.7c1.4-2.4,2.1-6.2,2.2-11.2V1216.5z"/>
			<path class="st3" d="M1333.2,1255.9h-12.7v-49l-15.2,4.7v-10.3l26.5-9.5h1.4V1255.9z"/>
			<path class="st3" d="M1400.2,1208.9c0,3.1-0.8,5.9-2.3,8.3c-1.6,2.4-3.7,4.3-6.4,5.8c3.1,1.5,5.6,3.6,7.4,6.2
				c1.8,2.6,2.7,5.7,2.7,9.3c0,5.7-1.9,10.2-5.8,13.5s-9.1,4.9-15.8,4.9s-11.9-1.7-15.8-5c-3.9-3.3-5.8-7.8-5.8-13.4
				c0-3.5,0.9-6.6,2.7-9.3s4.3-4.7,7.3-6.2c-2.7-1.4-4.9-3.4-6.4-5.8c-1.5-2.4-2.3-5.2-2.3-8.3c0-5.4,1.8-9.8,5.4-13
				c3.6-3.2,8.6-4.9,14.8-4.9c6.2,0,11.1,1.6,14.8,4.8C1398.4,1199.1,1400.2,1203.4,1400.2,1208.9z M1388.8,1237.5
				c0-2.8-0.8-5-2.4-6.7s-3.8-2.5-6.5-2.5c-2.7,0-4.8,0.8-6.5,2.5c-1.6,1.7-2.4,3.9-2.4,6.7c0,2.7,0.8,4.9,2.4,6.6s3.8,2.5,6.6,2.5
				c2.8,0,4.9-0.8,6.5-2.4C1388,1242.5,1388.8,1240.3,1388.8,1237.5z M1387.5,1209.6c0-2.5-0.7-4.5-2-6c-1.3-1.5-3.2-2.3-5.6-2.3
				c-2.4,0-4.2,0.7-5.5,2.2c-1.3,1.5-2,3.5-2,6.1c0,2.5,0.7,4.6,2,6.2c1.3,1.6,3.2,2.3,5.6,2.3s4.3-0.8,5.6-2.3
				C1386.8,1214.2,1387.5,1212.1,1387.5,1209.6z"/>
		</g>
		<g>
			<path class="st3" d="M1525.4,1255.9h-13.2v-64h13.2V1255.9z"/>
			<path class="st3" d="M1575.3,1239.1c0-2.5-0.9-4.4-2.6-5.7c-1.8-1.3-4.9-2.7-9.5-4.2c-4.6-1.5-8.2-2.9-10.9-4.4
				c-7.3-3.9-10.9-9.2-10.9-15.9c0-3.5,1-6.5,2.9-9.3c1.9-2.7,4.7-4.8,8.4-6.4c3.6-1.5,7.7-2.3,12.3-2.3c4.6,0,8.6,0.8,12.2,2.5
				c3.6,1.7,6.4,4,8.3,7c2,3,3,6.4,3,10.3h-13.2c0-2.9-0.9-5.2-2.8-6.8s-4.4-2.4-7.8-2.4c-3.2,0-5.7,0.7-7.5,2
				c-1.8,1.4-2.7,3.2-2.7,5.4c0,2.1,1,3.8,3.1,5.2c2.1,1.4,5.2,2.7,9.3,4c7.5,2.3,13,5.1,16.4,8.4s5.1,7.5,5.1,12.5
				c0,5.5-2.1,9.9-6.3,13c-4.2,3.1-9.8,4.7-16.9,4.7c-4.9,0-9.4-0.9-13.4-2.7s-7.1-4.3-9.3-7.4c-2.1-3.1-3.2-6.8-3.2-10.9h13.2
				c0,7.1,4.2,10.6,12.7,10.6c3.1,0,5.6-0.6,7.3-1.9S1575.3,1241.4,1575.3,1239.1z"/>
			<path class="st3" d="M1654.5,1225.4c0,6.3-1.1,11.8-3.3,16.6s-5.4,8.4-9.6,11c-4.1,2.6-8.9,3.9-14.3,3.9c-5.3,0-10-1.3-14.2-3.8
				s-7.4-6.2-9.7-10.9c-2.3-4.7-3.4-10.2-3.5-16.3v-3.2c0-6.3,1.1-11.8,3.4-16.6c2.3-4.8,5.5-8.5,9.6-11c4.1-2.6,8.9-3.8,14.2-3.8
				s10.1,1.3,14.2,3.8c4.1,2.6,7.4,6.2,9.6,11s3.4,10.3,3.4,16.6V1225.4z M1641.1,1222.5c0-6.7-1.2-11.8-3.6-15.3
				c-2.4-3.5-5.8-5.2-10.3-5.2c-4.4,0-7.8,1.7-10.2,5.2c-2.4,3.4-3.6,8.5-3.6,15.1v3.1c0,6.5,1.2,11.6,3.6,15.2s5.9,5.4,10.4,5.4
				c4.4,0,7.8-1.7,10.2-5.2s3.6-8.5,3.6-15.2V1222.5z"/>
			<path class="st3" d="M1692.4,1233.6h-24.7v-10.2h24.7V1233.6z"/>
			<path class="st3" d="M1722,1255.9h-13.2v-64h13.2V1255.9z"/>
			<path class="st3" d="M1777.2,1228.2h-25.3v17.1h29.7v10.6h-42.9v-64h42.8v10.7h-29.6v15.2h25.3V1228.2z"/>
			<path class="st3" d="M1844.1,1234.6c-0.5,6.9-3,12.3-7.6,16.3c-4.6,4-10.6,5.9-18.1,5.9c-8.2,0-14.7-2.8-19.4-8.3
				c-4.7-5.5-7.1-13.1-7.1-22.7v-3.9c0-6.2,1.1-11.6,3.3-16.3c2.2-4.7,5.3-8.3,9.3-10.8c4-2.5,8.7-3.8,14-3.8c7.4,0,13.3,2,17.8,5.9
				s7.1,9.5,7.8,16.7H1831c-0.3-4.1-1.5-7.1-3.5-9c-2-1.9-5-2.8-9-2.8c-4.4,0-7.7,1.6-9.9,4.7c-2.2,3.1-3.3,8-3.4,14.7v4.8
				c0,6.9,1,12,3.1,15.2c2.1,3.2,5.4,4.8,9.9,4.8c4.1,0,7.1-0.9,9.1-2.8c2-1.9,3.2-4.7,3.5-8.6H1844.1z"/>
			<path class="st3" d="M1895.7,1218.3h6.8c3.2,0,5.6-0.8,7.2-2.4c1.6-1.6,2.3-3.7,2.3-6.4c0-2.6-0.8-4.6-2.3-6
				c-1.5-1.4-3.7-2.2-6.3-2.2c-2.4,0-4.5,0.7-6.1,2c-1.6,1.3-2.5,3.1-2.5,5.2H1882c0-3.3,0.9-6.3,2.7-9c1.8-2.7,4.3-4.7,7.6-6.2
				c3.2-1.5,6.8-2.2,10.7-2.2c6.8,0,12.1,1.6,15.9,4.9c3.8,3.2,5.8,7.7,5.8,13.4c0,2.9-0.9,5.6-2.7,8.1s-4.1,4.4-7,5.7
				c3.6,1.3,6.3,3.2,8.1,5.8c1.8,2.6,2.7,5.6,2.7,9.1c0,5.7-2.1,10.2-6.2,13.7c-4.1,3.4-9.6,5.1-16.5,5.1c-6.4,0-11.6-1.7-15.7-5.1
				c-4.1-3.4-6.1-7.8-6.1-13.4h12.7c0,2.4,0.9,4.4,2.7,5.9c1.8,1.5,4,2.3,6.7,2.3c3,0,5.4-0.8,7.1-2.4c1.7-1.6,2.6-3.7,2.6-6.4
				c0-6.4-3.5-9.6-10.5-9.6h-6.7V1218.3z"/>
			<path class="st3" d="M1982,1229.5c0,8.8-1.8,15.6-5.5,20.3c-3.7,4.7-9,7-16.1,7c-7,0-12.3-2.3-16-6.9c-3.7-4.6-5.6-11.2-5.7-19.8
				v-11.8c0-8.9,1.9-15.7,5.6-20.3c3.7-4.6,9-6.9,16-6.9s12.3,2.3,16,6.9c3.7,4.6,5.6,11.2,5.7,19.8V1229.5z M1969.3,1216.5
				c0-5.3-0.7-9.2-2.2-11.6c-1.4-2.4-3.7-3.6-6.8-3.6c-3,0-5.2,1.2-6.6,3.5c-1.4,2.3-2.2,5.9-2.3,10.8v15.6c0,5.2,0.7,9.1,2.1,11.6
				s3.7,3.8,6.8,3.8c3.1,0,5.3-1.2,6.7-3.7c1.4-2.4,2.1-6.2,2.2-11.2V1216.5z"/>
			<path class="st3" d="M2025.9,1255.9h-12.7v-49l-15.2,4.7v-10.3l26.5-9.5h1.4V1255.9z"/>
			<path class="st3" d="M2082,1255.9h-12.7v-49l-15.2,4.7v-10.3l26.5-9.5h1.4V1255.9z"/>
			<path class="st3" d="M2138.2,1255.9h-12.7v-49l-15.2,4.7v-10.3l26.5-9.5h1.4V1255.9z"/>
			<path class="st3" d="M2188.7,1233.6h-24.7v-10.2h24.7V1233.6z"/>
			<path class="st3" d="M2246.7,1255.9h-43.9v-8.7l20.7-22.1c2.8-3.1,4.9-5.8,6.3-8.1c1.4-2.3,2-4.5,2-6.6c0-2.8-0.7-5.1-2.2-6.7
				s-3.5-2.4-6.2-2.4c-2.9,0-5.1,1-6.8,3s-2.5,4.6-2.5,7.8h-12.7c0-3.9,0.9-7.5,2.8-10.7c1.9-3.2,4.5-5.7,7.9-7.6
				c3.4-1.8,7.3-2.7,11.6-2.7c6.6,0,11.7,1.6,15.4,4.7c3.6,3.2,5.5,7.6,5.5,13.4c0,3.2-0.8,6.4-2.5,9.7c-1.6,3.3-4.5,7.1-8.4,11.5
				l-14.5,15.3h27.5V1255.9z"/>
			<path class="st3" d="M2302,1229.5c0,8.8-1.8,15.6-5.5,20.3c-3.7,4.7-9,7-16.1,7c-7,0-12.3-2.3-16-6.9c-3.7-4.6-5.6-11.2-5.7-19.8
				v-11.8c0-8.9,1.9-15.7,5.6-20.3c3.7-4.6,9-6.9,16-6.9s12.3,2.3,16,6.9c3.7,4.6,5.6,11.2,5.7,19.8V1229.5z M2289.3,1216.5
				c0-5.3-0.7-9.2-2.2-11.6c-1.4-2.4-3.7-3.6-6.8-3.6c-3,0-5.2,1.2-6.6,3.5c-1.4,2.3-2.2,5.9-2.3,10.8v15.6c0,5.2,0.7,9.1,2.1,11.6
				s3.7,3.8,6.8,3.8c3.1,0,5.3-1.2,6.7-3.7c1.4-2.4,2.1-6.2,2.2-11.2V1216.5z"/>
			<path class="st3" d="M2346,1255.9h-12.7v-49l-15.2,4.7v-10.3l26.5-9.5h1.4V1255.9z"/>
			<path class="st3" d="M2401,1230.3c-3.3,3.3-7.2,4.9-11.6,4.9c-5.7,0-10.2-1.9-13.6-5.8c-3.4-3.9-5.1-9.1-5.1-15.7
				c0-4.2,0.9-8,2.7-11.5c1.8-3.5,4.4-6.2,7.7-8.2c3.3-1.9,7-2.9,11.1-2.9c4.2,0,8,1.1,11.2,3.2s5.8,5.1,7.6,9.1s2.7,8.5,2.8,13.6
				v4.7c0,10.7-2.7,19-8,25.1c-5.3,6.1-12.8,9.3-22.5,9.8l-3.1,0v-10.6l2.8,0C2394.1,1245.4,2400,1240.2,2401,1230.3z
				 M2392.5,1225.5c2.1,0,3.8-0.5,5.3-1.6s2.6-2.3,3.4-3.8v-5.2c0-4.3-0.8-7.6-2.5-10s-3.8-3.6-6.6-3.6c-2.5,0-4.6,1.2-6.3,3.5
				s-2.5,5.3-2.5,8.8c0,3.5,0.8,6.4,2.4,8.6S2389.6,1225.5,2392.5,1225.5z"/>
		</g>
	</g>
</g>
</svg>
