<?xml version="1.0" encoding="utf-8"?>
<!-- Generator: Adobe Illustrator 18.0.0, SVG Export Plug-In . SVG Version: 6.00 Build 0)  -->
<!DOCTYPE svg PUBLIC "-//W3C//DTD SVG 1.1//EN" "http://www.w3.org/Graphics/SVG/1.1/DTD/svg11.dtd">
<svg version="1.1" id="Capa_1" xmlns="http://www.w3.org/2000/svg" xmlns:xlink="http://www.w3.org/1999/xlink" x="0px" y="0px"
	 viewBox="0 0 45 45" enable-background="new 0 0 45 45" xml:space="preserve">
<path id="Shape_7_" fill="#A7A7A7" d="M23,3.7c-10.7,0-19.4,8.6-19.4,19.2S12.3,42,23,42s19.4-8.6,19.4-19.2
	C42.4,12.2,33.7,3.7,23,3.7z M23,40.1c-9.7,0-17.5-7.8-17.5-17.3S13.3,5.5,23,5.5s17.5,7.8,17.5,17.3C40.5,32.4,32.7,40.1,23,40.1z"
	/>
<g>
	<path id="Shape_12_" fill="#F73435" stroke="#F73435" stroke-width="0.65" d="M21.6,28.3l-4.8-4.9c-0.5-0.5-1.3-0.5-1.7,0
		c-0.5,0.5-0.5,1.3,0,1.8l4.8,4.9c0.3,0.3,0.5,0.4,0.8,0.4c0.3,0,0.6-0.1,0.8-0.4C22.1,29.6,22.1,28.8,21.6,28.3z"/>
	<path id="Shape_13_" fill="#F73435" stroke="#F73435" stroke-width="0.65" d="M29.5,16.7c-0.4-0.5-1-0.5-1.4,0l-7.7,11.7
		c-0.4,0.5-0.4,1.5,0,2.1c0.2,0.3,0.4,0.4,0.6,0.4s0.5-0.1,0.6-0.4l7.7-11.7C29.9,18.2,29.9,17.2,29.5,16.7z"/>
</g>
</svg>
