<?xml version="1.0" encoding="utf-8"?>
<!-- Generator: Adobe Illustrator 24.2.1, SVG Export Plug-In . SVG Version: 6.00 Build 0)  -->
<svg version="1.1" id="Capa_1" xmlns="http://www.w3.org/2000/svg" xmlns:xlink="http://www.w3.org/1999/xlink" x="0px" y="0px"
	 viewBox="0 0 100 100" style="enable-background:new 0 0 100 100;" xml:space="preserve">
<style type="text/css">
	.st0{fill:#272727;}
</style>
<g>
	<path class="st0" d="M34.2,53.1v1.1c0,1-0.8,1.8-1.8,1.8c-1,0-1.8-0.8-1.8-1.8v-1.1c0-1,0.8-1.8,1.8-1.8
		C33.4,51.3,34.2,52.1,34.2,53.1z M42.4,54.3c-1.8,4.7-5.7,7.7-10,7.7s-8.2-3-10-7.7c-0.2-0.4-0.2-0.9,0-1.3c1.8-4.7,5.7-7.7,10-7.7
		s8.2,3,10,7.7C42.6,53.4,42.6,53.9,42.4,54.3z M38.8,53.7c-1.3-2.9-3.8-4.8-6.4-4.8s-5.1,1.9-6.4,4.8c1.3,2.9,3.8,4.8,6.4,4.8
		C35,58.5,37.5,56.6,38.8,53.7z M98.4,78.3c-0.7,0.6-1.9,0.5-2.5-0.2c-2.1-2.4-4.2-4.6-6.5-6.3c-1,2-2.2,4-3.5,5.8
		c2.6,3.5,4.7,7.9,6.3,12.8c0.3,0.9-0.2,1.9-1.1,2.2c-0.9,0.3-1.9-0.2-2.2-1.1c-1.4-4.2-3.2-8-5.3-11.1c-0.5,0.5-1,1.1-1.5,1.6
		c-7.2,7.2-16.8,11.2-26.9,11.2H44.8c-10.1,0-19.7-4-26.9-11.2c-0.5-0.5-1-1-1.5-1.6c-2.1,3.1-3.9,6.8-5.3,11.1
		c-0.3,0.9-1.3,1.4-2.2,1.1c-0.9-0.3-1.4-1.3-1.1-2.2c1.6-5,3.8-9.3,6.3-12.8c-1.4-1.8-2.5-3.8-3.5-5.8c-2.2,1.7-4.4,3.9-6.5,6.3
		c-0.6,0.7-1.7,0.8-2.5,0.2c-0.7-0.6-0.8-1.7-0.2-2.5c2.4-2.9,5-5.4,7.7-7.4c-1.6-4.2-2.4-8.7-2.4-13.4c0-5.4,1.1-10.6,3.3-15.6
		L8,18.3c-0.4-4.4,0.8-8.3,3.4-11c0.4-0.4,0.9-0.6,1.4-0.5c3.7,0.3,7.1,2.5,9.7,6.2l5.4,7.8c5.2-2.6,11-4,16.8-4h10.4
		c5.8,0,11.6,1.4,16.8,4l5.4-7.8c2.5-3.7,6-5.9,9.7-6.2c0.5,0,1,0.1,1.4,0.5c2.6,2.6,3.8,6.5,3.4,11l-2,21.2
		c2.2,4.9,3.3,10.1,3.3,15.6c0,4.6-0.8,9.2-2.4,13.4c2.7,2,5.3,4.5,7.7,7.4C99.2,76.5,99.1,77.7,98.4,78.3z M89.8,55.1
		c0-4.9-1-9.6-3-14.1c-7.6-1.6-13.2-5.4-15.1-10.3c-0.4-0.9,0.1-1.9,1-2.3c0.9-0.4,1.9,0.1,2.3,1c0.2,0.6,0.6,1.2,1,1.8
		c0.8-6.6,3.6-11.7,7.6-14.1c0.8-0.5,1.9-0.2,2.4,0.6c0.5,0.8,0.2,1.9-0.6,2.4c-3.5,2-5.8,7.4-6.1,14.1c2,1.3,4.5,2.4,7.3,3L88.4,18
		c0.3-3-0.4-5.6-1.8-7.5c-2.3,0.5-4.5,2.1-6.2,4.6l-6.3,9.1c-0.5,0.7-1.5,1-2.3,0.5c-5-2.7-10.6-4.2-16.3-4.3L62,35.1
		c0.4,0.9,0,1.9-0.9,2.3c-0.9,0.4-1.9,0-2.3-0.9l-7.2-16h-3.1l-7.2,16c-0.4,0.9-1.4,1.3-2.3,0.9C38,37,37.6,36,38,35.1l6.6-14.6
		c-5.7,0-11.3,1.5-16.3,4.3c-0.8,0.4-1.8,0.2-2.3-0.5l-6.3-9.1c-1.7-2.5-3.9-4.1-6.2-4.6c-1.5,1.9-2.1,4.5-1.8,7.5l1.8,19.4
		c2.9-0.7,5.4-1.7,7.3-3c-0.2-6.7-2.6-12.1-6.1-14.2c-0.8-0.5-1.1-1.6-0.6-2.4c0.5-0.8,1.6-1.1,2.4-0.6c4.1,2.4,6.9,7.6,7.7,14.3
		c0.5-0.6,0.9-1.3,1.2-2c0.4-0.9,1.4-1.4,2.3-1c0.9,0.4,1.4,1.4,1,2.3c-1.9,4.9-7.6,8.7-15.3,10.3c-2,4.4-3,9.1-3,14
		c0,4,0.7,7.8,1.9,11.3c3.8-2.3,7.8-3.7,11.5-3.8c1,0,1.8,0.7,1.8,1.7c0,1-0.7,1.8-1.7,1.8c-3.3,0.2-6.8,1.4-10.3,3.6
		c0.8,1.8,1.8,3.4,2.9,5c3.2-3.5,6.8-5.9,10.7-6.8c0.9-0.2,1.9,0.4,2.1,1.3c0.2,0.9-0.4,1.9-1.3,2.1c-3.3,0.8-6.5,2.9-9.3,6.2
		c3.1,3.6,6.8,6.5,11.1,8.6c-0.3-0.5-0.6-0.9-0.8-1.3c-1.7-3-2.6-6.3-2.5-9.1c0.1-1,0.9-1.7,1.9-1.7c1,0.1,1.7,0.9,1.7,1.9
		c-0.2,3.9,2.6,10.6,8.4,13.1c2.1,0.4,4.2,0.6,6.4,0.6h10.4c2.2,0,4.4-0.2,6.5-0.6c6.2-2.3,8.6-9.1,8.4-13.1c-0.1-1,0.7-1.8,1.7-1.9
		c1-0.1,1.8,0.7,1.9,1.7c0.1,2.7-0.7,6.7-2.9,10.3c4.1-2.1,7.8-4.9,10.8-8.4c-2.8-3.3-6-5.4-9.3-6.2c-0.9-0.2-1.5-1.2-1.3-2.1
		c0.2-0.9,1.2-1.5,2.1-1.3c3.9,0.9,7.5,3.3,10.7,6.8c1.1-1.6,2.1-3.3,2.9-5c-3.5-2.2-7-3.4-10.3-3.6c-1,0-1.7-0.9-1.7-1.8
		c0-1,0.9-1.7,1.8-1.7c3.7,0.2,7.6,1.5,11.5,3.8C89.1,62.8,89.8,59,89.8,55.1z M77.6,53c0.2,0.4,0.2,0.8,0,1.3
		c-1.8,4.7-5.7,7.7-10,7.7s-8.2-3-10-7.7c-0.2-0.4-0.2-0.9,0-1.3c1.8-4.7,5.7-7.7,10-7.7S75.8,48.4,77.6,53z M74,53.7
		c-1.3-2.9-3.8-4.8-6.4-4.8c-2.6,0-5.1,1.9-6.4,4.8c1.3,2.9,3.8,4.8,6.4,4.8C70.2,58.5,72.7,56.6,74,53.7z M67.6,51.3
		c-1,0-1.8,0.8-1.8,1.8v1.1c0,1,0.8,1.8,1.8,1.8s1.8-0.8,1.8-1.8v-1.1C69.3,52.1,68.6,51.3,67.6,51.3z M57.6,69.3
		c0.3,0.6,0.2,1.3-0.2,1.9l-5.7,7.3V81l4.1,1.6c0.9,0.3,1.4,1.4,1,2.3s-1.4,1.4-2.3,1L50,84.1l-4.6,1.7C45.2,85.9,45,86,44.8,86
		c-0.7,0-1.4-0.4-1.6-1.1c-0.3-0.9,0.1-1.9,1-2.3l4.1-1.6v-2.6l-5.7-7.3c-0.4-0.5-0.5-1.3-0.2-1.9c0.3-0.6,0.9-1,1.6-1h12
		C56.7,68.3,57.3,68.7,57.6,69.3z M52.4,71.9h-4.8L50,75L52.4,71.9z"/>
	<path class="st0" d="M34.2,53.1h-0.3v1.1c0,0.8-0.6,1.4-1.4,1.4c-0.8,0-1.4-0.6-1.4-1.4v-1.1c0-0.8,0.6-1.4,1.4-1.4
		c0.8,0,1.4,0.6,1.4,1.4H34.2h0.3c0-1.2-0.9-2.1-2.1-2.1c-1.2,0-2.1,0.9-2.1,2.1v1.1c0,1.2,0.9,2.1,2.1,2.1c1.2,0,2.1-0.9,2.1-2.1
		v-1.1H34.2z M42.4,54.3l-0.3-0.1c-1.7,4.6-5.6,7.5-9.7,7.5c-4.1,0-7.9-2.9-9.7-7.5c-0.1-0.2-0.1-0.3-0.1-0.5c0-0.2,0-0.3,0.1-0.5
		c1.7-4.6,5.6-7.5,9.7-7.5c4.1,0,7.9,2.9,9.7,7.5c0.1,0.2,0.1,0.3,0.1,0.5c0,0.2,0,0.3-0.1,0.5L42.4,54.3l0.3,0.1
		c0.1-0.2,0.1-0.5,0.1-0.7c0-0.3,0-0.5-0.1-0.7c-1.8-4.8-5.9-7.9-10.3-7.9c-4.5,0-8.5,3.1-10.3,7.9C22,53.2,22,53.4,22,53.7
		c0,0.3,0,0.5,0.1,0.7c1.8,4.8,5.9,7.9,10.3,7.9c4.5,0,8.5-3.1,10.3-7.9L42.4,54.3z M38.8,53.7l0.3-0.1c-1.4-3-3.9-5-6.7-5
		c-2.8,0-5.4,2-6.7,5l-0.1,0.1l0.1,0.1c1.4,3,3.9,5,6.7,5c2.8,0,5.4-2,6.7-5l0.1-0.1l-0.1-0.1L38.8,53.7l-0.3-0.1
		c-1.3,2.9-3.7,4.6-6.1,4.6c-2.5,0-4.8-1.8-6.1-4.6L26,53.7l0.3,0.1c1.3-2.9,3.7-4.6,6.1-4.6c2.5,0,4.8,1.8,6.1,4.6L38.8,53.7
		l-0.3-0.1L38.8,53.7z M98.4,78.3L98.2,78c-0.3,0.2-0.6,0.3-0.9,0.3c-0.4,0-0.8-0.2-1.1-0.5c-2.1-2.5-4.3-4.6-6.5-6.4l-0.3-0.3
		l-0.2,0.4c-1,2-2.1,3.9-3.5,5.7l-0.1,0.2l0.1,0.2c2.5,3.5,4.7,7.8,6.3,12.7c0,0.1,0.1,0.3,0.1,0.4c0,0.6-0.4,1.2-1,1.4
		c-0.1,0-0.3,0.1-0.4,0.1c-0.6,0-1.2-0.4-1.4-1c-1.4-4.2-3.2-8-5.4-11.1l-0.2-0.4l-0.3,0.3c-0.5,0.5-1,1-1.5,1.5
		c-7.2,7.2-16.6,11.1-26.7,11.1H44.8c-10.1,0-19.5-3.9-26.7-11.1c-0.5-0.5-1-1-1.5-1.5l-0.3-0.3l-0.2,0.4c-2.1,3.1-4,6.9-5.4,11.1
		c-0.2,0.6-0.8,1-1.4,1c-0.1,0-0.3,0-0.4-0.1l0,0c-0.6-0.2-1-0.8-1-1.4c0-0.1,0-0.3,0.1-0.4c1.6-4.9,3.8-9.2,6.3-12.7l0.1-0.2
		l-0.1-0.2c-1.3-1.8-2.5-3.7-3.5-5.7l-0.2-0.4l-0.3,0.3c-2.2,1.8-4.4,3.9-6.5,6.4c-0.3,0.3-0.7,0.5-1.1,0.5c-0.3,0-0.7-0.1-0.9-0.3
		c-0.3-0.3-0.5-0.7-0.5-1.1c0-0.3,0.1-0.7,0.3-0.9c2.4-2.9,5-5.3,7.7-7.3l0.2-0.2l-0.1-0.2C7.9,64.1,7,59.7,7,55.1
		c0-5.4,1.1-10.5,3.3-15.4l0-0.1l-2-21.3c-0.1-0.6-0.1-1.1-0.1-1.7c0-3.7,1.2-6.8,3.4-9.1c0.3-0.3,0.6-0.4,1-0.4l0.1,0l0,0
		c3.6,0.3,6.9,2.5,9.4,6.1l5.6,8.1l0.3-0.1c5.2-2.6,10.9-3.9,16.7-3.9h10.4c5.8,0,11.5,1.4,16.7,3.9l0.3,0.1l5.6-8.1
		c2.5-3.6,5.8-5.7,9.4-6.1l0.1,0l-0.1,0l0.1,0c0.4,0,0.7,0.2,1,0.4c2.2,2.2,3.4,5.4,3.4,9c0,0.5,0,1.1-0.1,1.7l-2,21.3l0,0.1
		c2.2,4.9,3.3,10,3.3,15.4c0,4.6-0.8,9.1-2.4,13.3l-0.1,0.2l0.2,0.2c2.7,2,5.2,4.4,7.7,7.3c0.2,0.3,0.3,0.6,0.3,0.9
		c0,0.4-0.2,0.8-0.5,1.1L98.4,78.3l0.2,0.3c0.5-0.4,0.7-1,0.7-1.6c0-0.5-0.2-1-0.5-1.4c-2.5-2.9-5.1-5.4-7.8-7.4l-0.2,0.3l0.3,0.1
		c1.6-4.3,2.4-8.8,2.4-13.5c0-5.5-1.1-10.7-3.4-15.7L90,39.5l0.3,0l2-21.2c0.1-0.6,0.1-1.2,0.1-1.7c0-3.8-1.2-7.1-3.6-9.5
		c-0.4-0.4-0.9-0.6-1.5-0.6l-0.2,0h0c-3.8,0.4-7.3,2.6-9.9,6.4l-5.4,7.8l0.3,0.2l0.2-0.3c-5.3-2.6-11.1-4-17-4H44.8
		c-5.9,0-11.7,1.4-17,4l0.2,0.3l0.3-0.2l-5.4-7.8c-2.6-3.7-6.1-6-9.9-6.4l0,0.3l0-0.3l-0.2,0c-0.6,0-1.1,0.2-1.5,0.6
		c-2.4,2.4-3.6,5.7-3.6,9.5c0,0.6,0,1.1,0.1,1.7l2,21.2l0.3,0l-0.3-0.1c-2.2,5-3.4,10.2-3.4,15.7c0,4.7,0.8,9.2,2.4,13.5l0.3-0.1
		l-0.2-0.3c-2.7,2-5.3,4.5-7.8,7.4c-0.3,0.4-0.5,0.9-0.5,1.4c0,0.6,0.3,1.2,0.7,1.6C1.8,78.9,2.3,79,2.8,79c0.6,0,1.2-0.3,1.6-0.7
		c2.1-2.4,4.2-4.5,6.4-6.3l-0.2-0.3l-0.3,0.1c1,2,2.2,4,3.6,5.8l0.3-0.2l-0.3-0.2c-2.6,3.6-4.8,7.9-6.4,12.9
		c-0.1,0.2-0.1,0.4-0.1,0.7c0,0.9,0.6,1.7,1.5,2l0,0C9,93,9.2,93,9.4,93c0.9,0,1.7-0.6,2-1.5c1.4-4.2,3.2-7.9,5.3-11l-0.3-0.2
		l-0.3,0.2c0.5,0.5,1,1.1,1.5,1.6c7.3,7.3,16.9,11.3,27.2,11.3h10.4c10.2,0,19.9-4,27.2-11.3c0.5-0.5,1-1,1.5-1.6l-0.3-0.2l-0.3,0.2
		c2.1,3.1,3.9,6.8,5.3,11c0.3,0.9,1.1,1.5,2,1.4c0.2,0,0.4,0,0.7-0.1c0.9-0.3,1.5-1.1,1.5-2c0-0.2,0-0.4-0.1-0.7
		c-1.6-5-3.8-9.4-6.4-12.9l-0.3,0.2l0.3,0.2c1.4-1.8,2.5-3.8,3.6-5.8l-0.3-0.1L89.2,72c2.2,1.7,4.4,3.8,6.4,6.3
		c0.4,0.5,1,0.7,1.6,0.7c0.5,0,1-0.2,1.4-0.5L98.4,78.3z M89.8,55.1h0.3c0-4.9-1-9.7-3-14.2L87,40.7l-0.2,0
		c-7.5-1.6-13-5.3-14.8-10.1c-0.1-0.2-0.1-0.3-0.1-0.5c0-0.6,0.3-1.1,0.9-1.3c0.2-0.1,0.3-0.1,0.5-0.1c0.6,0,1.1,0.3,1.3,0.9
		c0.3,0.7,0.6,1.3,1,1.9l0.5,0.7l0.1-0.8c0.8-6.5,3.5-11.6,7.5-13.8c0.2-0.1,0.5-0.2,0.7-0.2c0.5,0,1,0.3,1.2,0.7
		c0.1,0.2,0.2,0.5,0.2,0.7c0,0.5-0.3,1-0.7,1.2c-3.7,2.2-6,7.6-6.3,14.3l0,0.2l0.2,0.1c2,1.3,4.6,2.4,7.5,3.1l0.4,0.1L88.8,18
		c0-0.5,0.1-0.9,0.1-1.4c0-2.5-0.7-4.7-2-6.4l-0.1-0.2l-0.2,0c-2.4,0.5-4.7,2.2-6.5,4.7L73.8,24c-0.3,0.4-0.7,0.6-1.2,0.6
		c-0.2,0-0.5-0.1-0.7-0.2c-5-2.8-10.7-4.3-16.5-4.3l-0.5,0l6.8,15.1c0.1,0.2,0.1,0.4,0.1,0.6c0,0.5-0.3,1.1-0.8,1.3
		c-0.2,0.1-0.4,0.1-0.6,0.1c-0.5,0-1.1-0.3-1.3-0.8l-7.3-16.2h-3.6l-7.3,16.2c-0.2,0.5-0.8,0.8-1.3,0.8c-0.2,0-0.4,0-0.6-0.1
		c-0.5-0.2-0.8-0.8-0.8-1.3c0-0.2,0-0.4,0.1-0.6l6.8-15.1l-0.5,0c-5.8,0-11.5,1.5-16.5,4.3c-0.2,0.1-0.5,0.2-0.7,0.2
		c-0.5,0-0.9-0.2-1.2-0.6l-6.3-9.1c-1.8-2.5-4-4.2-6.5-4.7l-0.2,0l-0.1,0.2c-1.3,1.7-2,3.9-2,6.4c0,0.5,0,0.9,0.1,1.4l1.9,19.8
		l0.4-0.1c2.9-0.7,5.4-1.7,7.5-3l0.2-0.1l0-0.2c-0.2-6.8-2.6-12.3-6.3-14.5c-0.5-0.3-0.7-0.7-0.7-1.2c0-0.2,0.1-0.5,0.2-0.7
		c0.3-0.5,0.7-0.7,1.2-0.7c0.2,0,0.5,0.1,0.7,0.2l0.1,0l-0.1,0c4,2.3,6.7,7.4,7.5,14l0.1,0.8l0.5-0.7c0.5-0.7,0.9-1.4,1.2-2.1
		c0.2-0.6,0.8-0.9,1.3-0.9c0.2,0,0.3,0,0.5,0.1l0,0c0.6,0.2,0.9,0.8,0.9,1.3c0,0.2,0,0.3-0.1,0.5c-1.8,4.8-7.4,8.6-15,10.1l-0.2,0
		l-0.1,0.2c-2,4.5-3,9.2-3,14.2c0,4,0.7,7.9,1.9,11.5l0.1,0.4l0.4-0.2c3.8-2.3,7.7-3.6,11.3-3.8h0l0.1,0c0.7,0,1.4,0.6,1.4,1.4
		l0,0.1c0,0.8-0.6,1.4-1.4,1.4c-3.4,0.2-6.9,1.4-10.4,3.7L13,69.6l0.1,0.3c0.8,1.8,1.8,3.5,2.9,5.1l0.2,0.3l0.3-0.3
		c3.2-3.5,6.8-5.8,10.5-6.7l0.3,0c0.6,0,1.2,0.4,1.4,1.1l0,0.3c0,0.6-0.4,1.2-1.1,1.4c-3.4,0.8-6.6,3-9.5,6.3l-0.2,0.2l0.2,0.2
		c3.1,3.6,6.9,6.6,11.2,8.7l1.2,0.6L30,86c-0.3-0.4-0.6-0.9-0.8-1.3c-1.6-2.7-2.4-5.7-2.4-8.3c0-0.2,0-0.4,0-0.6
		c0-0.8,0.7-1.4,1.4-1.4l0.1,0l0,0c0.8,0,1.3,0.7,1.3,1.4l0,0.1c0,0.1,0,0.3,0,0.4c0,2.1,0.7,4.7,2.2,7.1c1.4,2.4,3.6,4.7,6.5,5.9
		l0,0l0,0c2.1,0.4,4.3,0.6,6.5,0.6h10.4c2.2,0,4.4-0.2,6.5-0.6l0,0l0,0c6.1-2.3,8.6-8.7,8.6-12.9c0-0.2,0-0.4,0-0.5l0-0.1
		c0-0.8,0.6-1.4,1.3-1.4l0.1,0c0.8,0,1.4,0.6,1.4,1.4c0,0.2,0,0.4,0,0.6c0,2.6-0.8,6.3-2.9,9.4l-0.7,1l1.1-0.6
		c4.2-2.1,7.9-5,10.9-8.5l0.2-0.2l-0.2-0.2c-2.9-3.3-6.1-5.5-9.5-6.3c-0.7-0.2-1.1-0.7-1.1-1.4l0-0.3c0.2-0.7,0.7-1.1,1.4-1.1l0.3,0
		l0,0c3.8,0.9,7.4,3.2,10.5,6.7l0.3,0.3l0.2-0.3c1.1-1.6,2.1-3.3,2.9-5.1l0.1-0.3l-0.3-0.2c-3.5-2.2-7.1-3.5-10.4-3.7
		c-0.8,0-1.4-0.7-1.4-1.4l0-0.1c0-0.8,0.7-1.4,1.4-1.4l0.1,0l0,0c3.6,0.2,7.5,1.5,11.3,3.8l0.4,0.2l0.1-0.4
		c1.3-3.6,1.9-7.4,1.9-11.5H89.8h-0.3c0,3.9-0.7,7.7-1.9,11.2l0.3,0.1l0.2-0.3c-3.9-2.3-7.8-3.7-11.6-3.9l0,0.3l0-0.3l-0.1,0
		c-1.1,0-2,0.9-2.1,2l0,0.1c0,1.1,0.9,2,2,2.1c3.2,0.1,6.7,1.4,10.1,3.5l0.2-0.3l-0.3-0.1c-0.8,1.7-1.8,3.4-2.9,5l0.3,0.2l0.3-0.2
		c-3.2-3.6-6.9-6-10.9-6.9l0,0c-0.2,0-0.3-0.1-0.5-0.1c-1,0-1.8,0.7-2,1.6c0,0.2-0.1,0.3-0.1,0.5c0,1,0.7,1.8,1.6,2
		c3.2,0.7,6.3,2.9,9.1,6.1l0.3-0.2l-0.3-0.2c-3,3.4-6.6,6.3-10.7,8.3l0.2,0.3l0.3,0.2c2.1-3.3,3-7.1,3-9.8c0-0.2,0-0.4,0-0.7
		c-0.1-1.1-1-2-2.1-2l-0.1,0c-1.1,0.1-2,1-2,2.1l0,0.1c0,0.2,0,0.3,0,0.5c0,4-2.5,10.1-8.2,12.3l0.1,0.3l-0.1-0.3
		c-2.1,0.4-4.2,0.6-6.4,0.6H44.8c-2.2,0-4.3-0.2-6.4-0.6L38.4,89l0.1-0.3c-2.7-1.2-4.8-3.3-6.2-5.7c-1.4-2.3-2.1-4.9-2.1-6.8
		c0-0.1,0-0.3,0-0.4l0-0.1c0-1.1-0.9-2-2-2.1l0,0.3l0-0.3l-0.1,0c-1.1,0-2,0.9-2.1,2c0,0.2,0,0.4,0,0.6c0,2.8,0.9,5.9,2.5,8.7
		c0.2,0.4,0.5,0.9,0.8,1.3l0.3-0.2l0.1-0.3c-4.2-2.1-8-5-11-8.5l-0.3,0.2l0.3,0.2c2.8-3.2,5.9-5.3,9.1-6.1c1-0.2,1.6-1.1,1.6-2
		c0-0.2,0-0.3-0.1-0.5c-0.2-1-1.1-1.6-2-1.6c-0.2,0-0.3,0-0.5,0.1c-3.9,0.9-7.6,3.3-10.9,6.9l0.3,0.2l0.3-0.2c-1.1-1.6-2-3.2-2.9-5
		l-0.3,0.1l0.2,0.3c3.4-2.2,6.9-3.4,10.1-3.5c1.1-0.1,2-1,2-2.1l0-0.1c-0.1-1.1-1-2-2.1-2l-0.1,0h0c-3.8,0.2-7.7,1.5-11.6,3.9
		l0.2,0.3l0.3-0.1c-1.2-3.5-1.9-7.3-1.9-11.2c0-4.8,1-9.5,3-13.9L13.2,41l0.1,0.3c7.8-1.6,13.5-5.4,15.5-10.5
		c0.1-0.3,0.1-0.5,0.1-0.8c0-0.8-0.5-1.6-1.3-2l0,0C27.4,28,27.1,28,26.8,28c-0.8,0-1.6,0.5-2,1.3c-0.3,0.7-0.6,1.3-1.1,1.9l0.3,0.2
		l0.3,0c-0.8-6.8-3.6-12.1-7.8-14.5l0,0c-0.3-0.2-0.7-0.3-1.1-0.3c-0.7,0-1.4,0.4-1.8,1.1c-0.2,0.3-0.3,0.7-0.3,1.1
		c0,0.7,0.4,1.4,1.1,1.8c3.4,1.9,5.7,7.2,5.9,13.9l0.3,0l-0.2-0.3c-2,1.3-4.4,2.3-7.2,2.9l0.1,0.3l0.3,0L11.9,18
		c0-0.5-0.1-0.9-0.1-1.3c0-2.4,0.6-4.4,1.8-6l-0.3-0.2l-0.1,0.3c2.2,0.5,4.4,2,6,4.4l6.3,9.1c0.4,0.6,1.1,0.9,1.7,0.9
		c0.3,0,0.7-0.1,1-0.3c4.9-2.7,10.5-4.2,16.2-4.2l0-0.3l-0.3-0.1l-6.6,14.6c-0.1,0.3-0.2,0.6-0.2,0.9c0,0.8,0.5,1.6,1.2,1.9
		c0.3,0.1,0.6,0.2,0.9,0.2c0.8,0,1.6-0.5,1.9-1.2l7.1-15.8h2.7l7.1,15.8c0.4,0.8,1.1,1.2,1.9,1.2c0.3,0,0.6-0.1,0.9-0.2
		c0.8-0.4,1.2-1.1,1.2-1.9c0-0.3-0.1-0.6-0.2-0.9l-6.6-14.6l-0.3,0.1l0,0.3c5.6,0,11.2,1.5,16.2,4.2c0.3,0.2,0.7,0.3,1,0.3
		c0.7,0,1.3-0.3,1.7-0.9l6.3-9.1c1.7-2.4,3.8-4,6-4.4l-0.1-0.3l-0.3,0.2c1.2,1.5,1.8,3.6,1.8,6c0,0.4,0,0.9-0.1,1.3l-1.8,19.3l0.3,0
		l0.1-0.3c-2.8-0.7-5.3-1.7-7.2-3l-0.2,0.3l0.3,0c0.2-6.6,2.6-11.9,5.9-13.8c0.7-0.4,1.1-1.1,1.1-1.8c0-0.4-0.1-0.7-0.3-1.1
		c-0.4-0.7-1.1-1.1-1.8-1.1c-0.4,0-0.7,0.1-1,0.3c-4.2,2.4-7,7.7-7.8,14.3l0.3,0l0.3-0.2c-0.4-0.6-0.7-1.1-1-1.7
		c-0.3-0.8-1.1-1.3-2-1.3c-0.3,0-0.5,0-0.8,0.1c-0.8,0.3-1.3,1.1-1.3,2c0,0.3,0,0.5,0.1,0.8c2,5,7.7,8.9,15.3,10.5l0.1-0.3l-0.3,0.1
		c2,4.4,3,9.1,3,13.9H89.8z M77.6,53l-0.3,0.1c0.1,0.2,0.1,0.3,0.1,0.5c0,0.2,0,0.3-0.1,0.5c-1.7,4.6-5.6,7.5-9.7,7.5
		c-4.1,0-7.9-2.9-9.7-7.5c-0.1-0.2-0.1-0.3-0.1-0.5c0-0.2,0-0.3,0.1-0.5c1.7-4.6,5.6-7.5,9.7-7.5c4.1,0,7.9,2.9,9.7,7.5L77.6,53
		l0.3-0.1C76.1,48.1,72,45,67.6,45c-4.5,0-8.5,3.1-10.3,7.9c-0.1,0.2-0.1,0.5-0.1,0.7c0,0.3,0,0.5,0.1,0.7c1.8,4.8,5.9,7.9,10.3,7.9
		c4.5,0,8.5-3.1,10.3-7.9c0.1-0.2,0.1-0.5,0.1-0.7c0-0.3,0-0.5-0.1-0.7L77.6,53z M74,53.7l0.3-0.1c-1.4-3-3.9-5-6.7-5
		c-2.8,0-5.4,2-6.7,5l-0.1,0.1l0.1,0.1c1.4,3,3.9,5,6.7,5c2.8,0,5.4-2,6.7-5l0.1-0.1l-0.1-0.1L74,53.7l-0.3-0.1
		c-1.3,2.9-3.7,4.6-6.1,4.6c-2.5,0-4.8-1.8-6.1-4.6l-0.3,0.1l0.3,0.1c1.3-2.9,3.7-4.6,6.1-4.6c2.5,0,4.8,1.8,6.1,4.6L74,53.7
		l-0.3-0.1L74,53.7z M67.6,51.3V51c-1.2,0-2.1,0.9-2.1,2.1v1.1c0,1.2,0.9,2.1,2.1,2.1c1.2,0,2.1-0.9,2.1-2.1v-1.1
		c0-1.2-0.9-2.1-2.1-2.1V51.3v0.3c0.8,0,1.4,0.6,1.4,1.4v1.1c0,0.8-0.6,1.4-1.4,1.4c-0.8,0-1.4-0.6-1.4-1.4v-1.1
		c0-0.8,0.6-1.4,1.4-1.4V51.3z M57.6,69.3l-0.3,0.1c0.1,0.2,0.1,0.4,0.1,0.6c0,0.3-0.1,0.6-0.3,0.9l-5.7,7.4v2.9l4.3,1.6
		c0.6,0.2,0.9,0.8,0.9,1.3c0,0.2,0,0.3-0.1,0.5c-0.2,0.6-0.8,0.9-1.3,0.9c-0.2,0-0.3,0-0.5-0.1L50,83.7l-4.7,1.8
		c-0.2,0.1-0.3,0.1-0.5,0.1c-0.6,0-1.1-0.3-1.3-0.9c-0.1-0.2-0.1-0.3-0.1-0.5c0-0.6,0.3-1.1,0.9-1.3l4.3-1.6v-2.9L42.9,71
		c-0.2-0.3-0.3-0.6-0.3-0.9c0-0.2,0-0.4,0.1-0.6c0.2-0.5,0.7-0.8,1.3-0.8h12c0.5,0,1,0.3,1.3,0.8L57.6,69.3l0.3-0.1
		C57.6,68.5,56.8,68,56,68H44c-0.8,0-1.5,0.5-1.9,1.2c-0.1,0.3-0.2,0.6-0.2,0.9c0,0.5,0.2,0.9,0.4,1.3l5.6,7.2v2.2l-3.8,1.5
		c-0.8,0.3-1.4,1.1-1.4,2c0,0.3,0,0.5,0.1,0.8c0.3,0.8,1.1,1.4,2,1.4c0.2,0,0.5,0,0.8-0.1l4.4-1.7l4.4,1.7l0,0
		c0.2,0.1,0.5,0.1,0.7,0.1c0.8,0,1.6-0.5,2-1.4c0.1-0.2,0.1-0.5,0.1-0.8c0-0.8-0.5-1.6-1.4-2l-3.8-1.5v-2.2l5.6-7.2
		c0.3-0.4,0.4-0.8,0.4-1.3c0-0.3-0.1-0.6-0.2-0.9L57.6,69.3z M52.4,71.9v-0.3h-5.5l3.1,4l3.1-4h-0.7V71.9l-0.3-0.2L50,74.4l-1.7-2.2
		l4.1,0V71.9l-0.3-0.2L52.4,71.9z"/>
</g>
</svg>
