<?xml version="1.0" encoding="utf-8"?>
<!-- Generator: Adobe Illustrator 24.2.1, SVG Export Plug-In . SVG Version: 6.00 Build 0)  -->
<svg version="1.1" id="Capa_1" xmlns="http://www.w3.org/2000/svg" xmlns:xlink="http://www.w3.org/1999/xlink" x="0px" y="0px"
	 viewBox="0 0 100 100" style="enable-background:new 0 0 100 100;" xml:space="preserve">
<style type="text/css">
	.st0{fill:#272727;}
</style>
<g>
	<path class="st0" d="M99.3,66.1C97.1,54.9,92.9,45.2,87,37.5C87.6,36,92.4,23.2,93.1,6c0.1-1.5-0.6-3-1.9-3.8C90,1.2,88.4,1,87,1.6
		c-5.3,2-15.6,7.1-25.2,18.6c-3.8-1-7.7-1.5-11.8-1.5c-4.1,0-8,0.5-11.8,1.5C28.6,8.7,18.3,3.6,13,1.6C11.6,1,10,1.2,8.7,2.1
		C7.5,3,6.8,4.5,6.9,6c0.8,17.2,5.6,30,6.1,31.5C7.1,45.2,2.9,54.9,0.7,66.1c-0.1,0.7,0.3,1.5,1,1.7c3.3,1,7,2,8.8,2.6l-1.4,5.9
		c-0.2,0.7,0.3,1.5,1,1.7c0.1,0,14.9,4.6,24.4,9.8c0.9,1.5,2.2,2.8,3.7,3.8c0.3,0.2,0.7,0.4,1.2,0.6c0.1,3.6,4.8,6.5,10.7,6.5
		s10.6-2.8,10.7-6.5c0.4-0.2,0.8-0.4,1.2-0.6c1.6-1,2.8-2.3,3.7-3.8c9.4-5.2,24.2-9.7,24.4-9.7c0.7-0.2,1.2-1,1-1.7l-1.4-5.9
		c1.8-0.6,5.4-1.7,8.8-2.6C99,67.6,99.4,66.9,99.3,66.1z M88,4.3c0.2-0.1,0.3-0.1,0.5-0.1c-0.9,0.7-2.4,1.8-4.2,3.6
		c-0.6,0.5-0.6,1.5-0.1,2c0.3,0.3,0.7,0.5,1.1,0.5c0.3,0,0.7-0.1,1-0.4c1.8-1.6,3.2-2.8,4-3.4c-0.7,13.5-4,24.4-5.3,28.4
		c-1.2-1.4-2.4-2.6-3.7-3.8c-2.5-2.3-5.1-4.3-7.9-6c2.6-3.8,9.5-11.5,12.5-14.7c0.5-0.6,0.5-1.5-0.1-2c-0.6-0.5-1.5-0.5-2,0.1
		c-3.1,3.4-10.2,11.3-12.9,15.2c-1.9-1-3.9-1.8-5.9-2.5C73.7,10.8,83.1,6.1,88,4.3z M12,4.3c4.9,1.9,14.3,6.5,23.2,16.8
		c-2,0.7-4,1.5-5.9,2.5C21.7,12.3,14.2,6.1,11.5,4.2C11.7,4.2,11.9,4.2,12,4.3z M9.8,6.5c2.4,1.8,9.7,7.8,17,18.6
		c-2.8,1.7-5.5,3.7-7.9,6c-1.3,1.2-2.5,2.5-3.7,3.8C13.8,30.9,10.5,20,9.8,6.5z M33.1,83.9c-7.8-3.9-17.5-7.1-20.9-8.2l1.4-5.9
		c0.2-0.7-0.2-1.3-0.8-1.6c-0.9-0.4-5.7-1.9-8.5-2.7c5-8.9,13.1-19.2,24.3-20.8c3.3-0.5,6.3,0.2,8.5,2.1c2.4,2,3.8,5.3,3.8,8.8
		c0,4.4-1.9,9-3.8,13.5c-1.9,4.7-3.9,9.5-3.9,14.3C33.1,83.6,33.1,83.7,33.1,83.9z M55.8,94.5c-1.5,0.8-3.6,1.3-5.8,1.3
		c-2.2,0-4.3-0.5-5.8-1.3c-0.7-0.4-1.2-0.8-1.6-1.3c0.5,0.1,1,0.1,1.6,0.1c1.7,0,3.6-0.4,5.8-1.3c2.2,1,4.1,1.3,5.8,1.3
		c0.6,0,1.1,0,1.6-0.1C57.1,93.7,56.6,94.1,55.8,94.5z M48.3,84.7L48.3,84.7c-2.1-0.9-4.8-2.1-4.8-3.9c0-2,3-3.7,6.4-3.7
		c3.4,0,6.4,1.7,6.4,3.7c0,1.8-2.7,3-4.7,3.9l-0.1,0C50.5,85.2,49.3,85.2,48.3,84.7z M60.3,89.2c-3.1,1.9-6.4,1.3-8.9,0.3v-1.7
		c0.4-0.1,0.8-0.2,1.2-0.4l0.1,0c2.6-1.1,6.4-2.9,6.4-6.5c0-3.7-4.1-6.6-9.3-6.6c-5.2,0-9.3,2.9-9.3,6.6c0,3.6,3.9,5.4,6.4,6.5
		l0.1,0c0.5,0.2,0.9,0.4,1.4,0.4v1.7c-2.5,1-5.8,1.6-8.9-0.3c-2.5-1.6-3.7-4.1-3.7-5.8c0-4.2,1.8-8.6,3.7-13.2c2-4.7,4-9.7,4-14.6
		c0-4.3-1.8-8.4-4.8-11c-2.8-2.5-6.6-3.4-10.8-2.8c-4.6,0.7-9.1,2.7-13.3,6.1c-3.1,2.5-6.1,5.7-8.9,9.6c3.2-9.9,8.3-18.2,14.8-24.4
		C28.9,25.6,39,21.5,50,21.5c11,0,21.1,4,29.2,11.6c6.6,6.1,11.6,14.4,14.8,24.4c-2.8-3.9-5.8-7.1-8.9-9.6
		c-4.2-3.3-8.7-5.4-13.3-6.1c-4.2-0.6-7.9,0.4-10.8,2.8c-3,2.6-4.8,6.7-4.8,11c0,4.9,2,9.9,4,14.6c1.9,4.6,3.7,9,3.7,13.2
		C64,85.1,62.8,87.6,60.3,89.2z M87.2,68.2c-0.6,0.3-0.9,1-0.8,1.6l1.4,5.9c-3.5,1.1-13.1,4.3-20.9,8.2c0-0.2,0-0.3,0-0.5
		c0-4.8-2-9.6-3.9-14.3c-1.9-4.5-3.8-9.1-3.8-13.5c0-3.5,1.4-6.7,3.8-8.8c2.2-1.9,5.1-2.6,8.5-2.1c11.2,1.6,19.3,11.9,24.3,20.8
		C92.9,66.3,88.1,67.8,87.2,68.2z"/>
	<path class="st0" d="M99.3,66.1l0.3-0.1c-2.2-11.2-6.4-21-12.4-28.8L87,37.5l0.3,0.1c0.6-1.5,5.4-14.3,6.2-31.6l0-0.2
		c0-1.6-0.7-3-2-3.9c-0.8-0.6-1.9-0.9-2.9-0.9c-0.6,0-1.2,0.1-1.8,0.3c-5.3,2-15.7,7.2-25.3,18.7l0.3,0.2l0.1-0.3
		c-3.8-1-7.8-1.5-11.9-1.5c-4.1,0-8.1,0.5-11.9,1.5l0.1,0.3l0.3-0.2C28.9,8.4,18.5,3.3,13.2,1.2C12.6,1,12,0.9,11.4,0.9
		c-1,0-2,0.3-2.9,0.9c-1.3,0.9-2,2.4-2,3.9l0,0.2c0.8,17.3,5.6,30.1,6.2,31.6l0.3-0.1l-0.3-0.2C6.8,45,2.6,54.8,0.4,66.1l0,0.3
		c0,0.8,0.5,1.5,1.3,1.7c3.3,1,6.9,2,8.7,2.6l0.1-0.3l-0.3-0.1l-1.4,5.9c0,0.1,0,0.3,0,0.4c0,0.8,0.5,1.5,1.3,1.7
		c0.1,0,14.9,4.6,24.3,9.7l0.2-0.3L34.1,88c0.9,1.5,2.2,2.9,3.8,3.9c0.3,0.2,0.7,0.4,1.2,0.6l0.1-0.3l-0.3,0c0.1,2,1.3,3.7,3.3,4.9
		c2,1.2,4.7,1.9,7.7,1.9c3,0,5.7-0.7,7.7-1.9c2-1.2,3.3-2.9,3.3-4.9l-0.3,0l0.1,0.3c0.5-0.2,0.9-0.4,1.2-0.6c1.6-1,2.9-2.4,3.8-4
		l-0.3-0.2l0.2,0.3c9.4-5.2,24.1-9.7,24.3-9.7c0.8-0.2,1.3-0.9,1.3-1.7c0-0.1,0-0.3,0-0.4l-1.4-5.9l-0.3,0.1l0.1,0.3
		c1.8-0.6,5.4-1.7,8.7-2.6c0.8-0.2,1.3-0.9,1.3-1.7l0-0.3L99.3,66.1l-0.3,0.1l0,0.2c0,0.5-0.3,0.9-0.8,1.1c-3.3,1-7,2-8.8,2.6
		l-0.3,0.1l1.5,6.2l0,0.3c0,0.5-0.3,0.9-0.8,1.1c-0.2,0-14.9,4.6-24.4,9.8l-0.1,0l0,0.1c-0.9,1.5-2.1,2.8-3.6,3.7
		c-0.3,0.2-0.7,0.4-1.1,0.6L60.4,92l0,0.2c0,1.7-1.1,3.2-3,4.3c-1.9,1.1-4.4,1.8-7.4,1.8c-2.9,0-5.5-0.7-7.4-1.8
		c-1.9-1.1-3-2.7-3-4.3l0-0.2l-0.2-0.1c-0.4-0.2-0.8-0.4-1.1-0.6c-1.5-0.9-2.8-2.3-3.6-3.7l0-0.1l-0.1,0c-9.5-5.2-24.3-9.7-24.4-9.8
		c-0.5-0.1-0.8-0.6-0.8-1l0-0.3l1.5-6.2l-0.3-0.1c-1.8-0.6-5.4-1.7-8.8-2.6C1.4,67.3,1,66.9,1,66.4l0-0.2
		c2.2-11.1,6.4-20.8,12.2-28.5l0.1-0.2l-0.1-0.2C12.8,35.9,8,23.1,7.2,6l0-0.2c0-1.3,0.6-2.6,1.7-3.4c0.7-0.5,1.6-0.8,2.5-0.8
		c0.5,0,1,0.1,1.5,0.3c5.3,2,15.5,7.1,25,18.5l0.1,0.2l0.2-0.1C42.1,19.5,46,19,50,19c4,0,7.9,0.5,11.7,1.5l0.2,0.1l0.1-0.2
		C71.6,9,81.8,3.9,87.1,1.9c0.5-0.2,1-0.3,1.5-0.3c0.9,0,1.7,0.3,2.5,0.8c1.1,0.8,1.7,2,1.7,3.4l0,0.2c-0.7,17.2-5.5,29.9-6.1,31.4
		l-0.1,0.2l0.1,0.2c5.8,7.7,10,17.4,12.2,28.5L99.3,66.1z M88,4.3l0.1,0.3c0.1,0,0.2-0.1,0.4-0.1l0-0.3l-0.2-0.3
		c-0.9,0.7-2.4,1.9-4.3,3.6c-0.4,0.4-0.6,0.8-0.6,1.3c0,0.4,0.2,0.9,0.5,1.2c0.4,0.4,0.8,0.6,1.3,0.6c0.4,0,0.9-0.2,1.2-0.5
		c1.8-1.6,3.2-2.7,4-3.4l-0.2-0.3l-0.3,0c-0.7,13.5-4,24.3-5.3,28.3l0.3,0.1l0.3-0.2c-1.2-1.4-2.4-2.7-3.7-3.9
		c-2.5-2.3-5.2-4.4-8-6.1L73.3,25l0.3,0.2C76.1,21.5,83,13.8,86,10.6c0.3-0.3,0.5-0.8,0.5-1.2c0-0.5-0.2-1-0.6-1.3
		c-0.3-0.3-0.8-0.5-1.2-0.5c-0.5,0-1,0.2-1.3,0.6c-3.1,3.4-10.2,11.3-12.9,15.3l0.3,0.2l0.2-0.3c-1.9-1-3.9-1.8-6-2.5l-0.1,0.3
		l0.3,0.2C73.9,11,83.3,6.4,88.1,4.6L88,4.3l-0.1-0.3c-4.9,1.9-14.4,6.6-23.3,16.9l-0.3,0.4l0.5,0.2c2,0.7,4,1.5,5.9,2.5l0.3,0.1
		l0.2-0.3c2.6-3.9,9.7-11.8,12.8-15.2c0.2-0.2,0.5-0.4,0.8-0.4c0.3,0,0.5,0.1,0.7,0.3c0.2,0.2,0.4,0.5,0.4,0.8
		c0,0.3-0.1,0.5-0.3,0.7c-3,3.2-9.9,10.9-12.5,14.7l-0.2,0.3l0.3,0.2c2.8,1.7,5.4,3.7,7.9,6c1.3,1.2,2.5,2.5,3.7,3.8l0.4,0.5
		l0.2-0.6c1.4-4,4.7-14.9,5.4-28.5l0-0.7L90,6.2c-0.8,0.6-2.3,1.8-4.1,3.4c-0.2,0.2-0.5,0.3-0.7,0.3c-0.3,0-0.6-0.1-0.8-0.4
		c-0.2-0.2-0.3-0.5-0.3-0.7c0-0.3,0.1-0.6,0.4-0.8c1.8-1.7,3.3-2.9,4.2-3.5l1-0.7l-1.2,0.1c-0.2,0-0.4,0.1-0.6,0.1L88,4.3z M12,4.3
		l-0.1,0.3c4.8,1.9,14.2,6.5,23,16.7l0.3-0.2l-0.1-0.3c-2,0.7-4,1.6-6,2.5l0.2,0.3l0.3-0.2C21.9,12.1,14.4,5.9,11.8,3.9l-0.2,0.3
		l0,0.3c0.1,0,0.3,0,0.4,0.1L12,4.3l0.1-0.3c-0.2-0.1-0.4-0.1-0.6-0.1l-1.2-0.1l1,0.7c2.6,2,10.1,8.1,17.7,19.4l0.2,0.3l0.3-0.1
		c1.9-1,3.9-1.8,5.9-2.5l0.5-0.2l-0.3-0.4c-9-10.4-18.4-15-23.3-16.9L12,4.3z M9.8,6.5L9.6,6.7c2.4,1.8,9.6,7.7,16.9,18.5l0.3-0.2
		l-0.2-0.3c-2.8,1.7-5.5,3.7-8,6.1c-1.3,1.2-2.5,2.5-3.7,3.9l0.3,0.2l0.3-0.1c-1.4-4-4.7-14.8-5.3-28.3L9.8,6.5L9.6,6.7L9.8,6.5
		l-0.3,0c0.7,13.6,4,24.5,5.4,28.5l0.2,0.6l0.4-0.5c1.2-1.3,2.4-2.6,3.7-3.8c2.5-2.3,5.1-4.3,7.9-6l0.3-0.2L27,24.8
		C19.7,14,12.4,8,10,6.2L9.4,5.7l0,0.7L9.8,6.5z M33.1,83.9l0.2-0.3c-7.8-3.9-17.5-7.1-21-8.2l-0.1,0.3l0.3,0.1l1.4-5.9
		c0-0.1,0-0.3,0-0.4c0-0.7-0.4-1.3-1-1.6c-0.5-0.2-1.9-0.7-3.6-1.2c-1.7-0.5-3.6-1.1-5-1.5l-0.1,0.3l0.3,0.2
		c5-8.9,13.1-19.1,24.1-20.7c0.7-0.1,1.3-0.1,1.9-0.1c2.5,0,4.6,0.8,6.3,2.2c2.3,2,3.7,5.2,3.7,8.5c0,4.3-1.9,8.9-3.8,13.4
		c-1.9,4.7-4,9.5-4,14.4c0,0.2,0,0.3,0,0.5L33.1,83.9l0.2-0.3L33.1,83.9l0.3,0c0-0.2,0-0.3,0-0.5c0-4.7,2-9.5,3.9-14.2
		c1.9-4.5,3.8-9.2,3.8-13.6c0-3.5-1.4-6.9-3.9-9c-1.8-1.6-4.1-2.4-6.7-2.4c-0.7,0-1.3,0.1-2,0.2C17.2,46,9,56.4,4,65.4l-0.2,0.4
		l0.4,0.1c1.4,0.4,3.3,1,5,1.5c1.7,0.5,3.1,1,3.5,1.2c0.4,0.2,0.6,0.6,0.6,1l0,0.3l-1.5,6.2l0.3,0.1c3.5,1.1,13.1,4.3,20.9,8.2
		l0.5,0.3l0-0.6L33.1,83.9z M55.8,94.5l-0.2-0.3c-1.4,0.8-3.5,1.3-5.7,1.3c-2.1,0-4.2-0.5-5.7-1.3c-0.7-0.4-1.2-0.8-1.5-1.2
		l-0.3,0.2l0,0.3c0.5,0.1,1.1,0.1,1.6,0.1c1.7,0,3.7-0.4,6-1.4L50,92l-0.1,0.3c2.2,1,4.2,1.4,6,1.4c0.6,0,1.1,0,1.6-0.1l0-0.3
		L57.1,93c-0.3,0.4-0.8,0.8-1.5,1.2L55.8,94.5l0.2,0.3c0.7-0.4,1.3-0.9,1.7-1.4l0.5-0.7l-0.8,0.1c-0.5,0.1-1,0.1-1.5,0.1
		c-1.6,0-3.5-0.3-5.7-1.3L50,91.6l-0.1,0.1c-2.1,0.9-4.1,1.3-5.7,1.3c-0.5,0-1.1,0-1.5-0.1l-0.8-0.1l0.5,0.7c0.4,0.5,0.9,1,1.7,1.4
		c1.6,0.9,3.8,1.4,6,1.4c2.3,0,4.4-0.5,6-1.4L55.8,94.5z M48.3,84.7l0.1-0.3l-0.1,0c-1-0.4-2.2-1-3-1.6c-0.4-0.3-0.8-0.6-1.1-1
		c-0.3-0.3-0.4-0.7-0.4-1c0-0.8,0.6-1.6,1.7-2.3c1.1-0.6,2.6-1.1,4.3-1.1c1.6,0,3.2,0.4,4.3,1.1c1.1,0.6,1.7,1.5,1.7,2.3
		c0,0.3-0.1,0.7-0.4,1c-0.8,1-2.6,1.9-4.1,2.5l-0.1,0c-0.5,0.2-0.9,0.3-1.4,0.3c-0.5,0-1-0.1-1.4-0.3L48.3,84.7L48.2,85
		c0.5,0.2,1.1,0.4,1.7,0.4c0.6,0,1.2-0.1,1.7-0.4l0.1,0l0.1,0l-0.1,0c1-0.4,2.2-1,3.2-1.6c0.5-0.3,0.9-0.7,1.2-1.1
		c0.3-0.4,0.5-0.9,0.5-1.4c0-1.2-0.9-2.2-2.1-2.9c-1.2-0.7-2.9-1.1-4.6-1.1c-1.8,0-3.4,0.4-4.6,1.1c-1.2,0.7-2.1,1.7-2.1,2.9
		c0,0.5,0.2,1,0.5,1.4c1,1.2,2.9,2.1,4.4,2.8l0.1,0L48.3,84.7z M60.3,89.2l-0.2-0.3c-1.4,0.9-2.9,1.2-4.3,1.2c-1.5,0-3-0.4-4.3-0.9
		l-0.1,0.3h0.3v-1.7h-0.3l0.1,0.3c0.4-0.1,0.9-0.2,1.3-0.4l0,0l0.1,0l0,0c1.3-0.6,2.9-1.3,4.2-2.4c1.3-1.1,2.4-2.5,2.4-4.5
		c0-2-1.1-3.7-2.8-4.9c-1.7-1.2-4.1-2-6.8-2c-2.7,0-5,0.7-6.8,2c-1.7,1.2-2.8,3-2.8,4.9c0,1.9,1,3.4,2.4,4.5c1.3,1.1,3,1.8,4.2,2.4
		l0,0l0.1,0l0,0c0.5,0.2,1,0.4,1.5,0.5l0.1-0.3h-0.3v1.7h0.3l-0.1-0.3c-1.3,0.5-2.8,0.9-4.3,0.9c-1.4,0-2.9-0.3-4.3-1.2
		c-2.4-1.5-3.5-4-3.5-5.5c0-4.1,1.8-8.4,3.7-13.1c2-4.7,4-9.7,4-14.7c0-4.4-1.8-8.6-4.9-11.2c-2.4-2-5.3-3.1-8.6-3.1
		c-0.8,0-1.6,0.1-2.5,0.2c-4.7,0.7-9.2,2.8-13.5,6.1c-3.2,2.5-6.2,5.8-9,9.7l0.3,0.2l0.3,0.1c3.2-9.9,8.2-18.1,14.8-24.2
		c8.1-7.5,18.1-11.5,29-11.5c10.9,0,20.9,4,29,11.5c6.5,6.1,11.5,14.4,14.8,24.2l0.3-0.1l0.3-0.2c-2.8-3.9-5.8-7.2-9-9.7
		c-4.3-3.4-8.8-5.5-13.5-6.1c-0.8-0.1-1.7-0.2-2.5-0.2c-3.3,0-6.2,1-8.6,3.1c-3.1,2.7-4.9,6.9-4.9,11.2c0,5,2.1,10,4,14.7
		c1.9,4.6,3.7,8.9,3.7,13.1c0,1.5-1.1,4-3.5,5.5L60.3,89.2l0.2,0.3c2.6-1.6,3.8-4.3,3.8-6.1c0-4.3-1.8-8.7-3.7-13.3
		c-2-4.7-4-9.6-4-14.5c0-4.2,1.8-8.2,4.7-10.7c2.2-1.9,5-2.9,8.1-2.9c0.8,0,1.6,0.1,2.4,0.2c4.6,0.7,9,2.7,13.2,6
		c3.1,2.5,6.1,5.7,8.8,9.5l1.3,1.8l-0.7-2.1c-3.2-10-8.3-18.3-14.9-24.5C71.3,25.2,61.1,21.2,50,21.2c-11.1,0-21.3,4.1-29.4,11.7
		C13.9,39.1,8.9,47.4,5.6,57.4l-0.7,2.1l1.3-1.8c2.8-3.9,5.7-7.1,8.8-9.5c4.2-3.3,8.6-5.3,13.2-6C29,42,29.8,42,30.6,42
		c3.1,0,5.9,1,8.1,2.9c2.9,2.5,4.7,6.5,4.7,10.7c0,4.8-2,9.7-4,14.5c-1.9,4.6-3.7,9-3.7,13.3c0,1.8,1.2,4.4,3.8,6.1
		c1.5,1,3.1,1.3,4.6,1.3c1.7,0,3.2-0.4,4.6-1l0.2-0.1v-2.2l-0.3-0.1c-0.5-0.1-0.9-0.2-1.3-0.4l0,0l-0.1,0l0,0
		c-1.3-0.6-2.9-1.3-4.1-2.3c-1.2-1-2.1-2.2-2.1-3.9c0-1.7,0.9-3.2,2.5-4.4c1.6-1.1,3.8-1.8,6.4-1.8c2.5,0,4.8,0.7,6.4,1.8
		c1.6,1.1,2.5,2.7,2.5,4.4c0,1.7-0.9,2.9-2.1,3.9c-1.2,1-2.8,1.7-4.1,2.3l0,0l-0.1,0l0,0c-0.4,0.2-0.8,0.3-1.2,0.4l-0.3,0.1v2.2
		l0.2,0.1c1.3,0.6,2.9,1,4.6,1c1.5,0,3.1-0.4,4.6-1.3L60.3,89.2z M87.2,68.2L87,67.9c-0.6,0.3-1,0.9-1,1.6c0,0.1,0,0.3,0,0.4
		l1.4,5.9l0.3-0.1l-0.1-0.3c-3.5,1.1-13.1,4.3-21,8.2l0.2,0.3l0.3,0c0-0.2,0-0.3,0-0.5c0-4.9-2-9.8-4-14.4
		c-1.9-4.5-3.8-9.1-3.8-13.4c0-3.4,1.4-6.6,3.7-8.5c1.7-1.5,3.8-2.2,6.3-2.2c0.6,0,1.3,0,1.9,0.1c11,1.6,19.1,11.8,24.1,20.7
		l0.3-0.2l-0.1-0.3c-1.4,0.4-3.3,1-5,1.5c-1.7,0.5-3.1,1-3.6,1.2L87.2,68.2l0.1,0.3c0.4-0.2,1.8-0.7,3.5-1.2c1.7-0.5,3.6-1.1,5-1.5
		l0.4-0.1L96,65.4c-5.1-9-13.2-19.3-24.6-21c-0.7-0.1-1.4-0.2-2-0.2c-2.6,0-4.9,0.8-6.7,2.4c-2.5,2.1-3.9,5.5-3.9,9
		c0,4.5,2,9.1,3.8,13.6c1.9,4.7,3.9,9.5,3.9,14.2c0,0.1,0,0.3,0,0.5l0,0.6l0.5-0.3c7.8-3.9,17.4-7.1,20.9-8.2l0.3-0.1l-1.5-6.2
		l0-0.3c0-0.4,0.2-0.8,0.6-1L87.2,68.2z"/>
	<path class="st0" d="M30.3,63.5v-2.1c-1,0-1.8-0.4-2.4-1c-0.6-0.6-1-1.5-1-2.4l0-2.8c0-1,0.4-1.8,1-2.4c0.6-0.6,1.5-1,2.4-1
		c1,0,1.8,0.4,2.4,1c0.6,0.6,1,1.5,1,2.4V58c0,1-0.4,1.8-1,2.4c-0.6,0.6-1.5,1-2.4,1V63.5v2.1c4.2,0,7.6-3.4,7.6-7.6l0-2.8
		c0-4.2-3.4-7.6-7.6-7.6c-4.2,0-7.6,3.4-7.6,7.6V58c0,4.2,3.4,7.6,7.6,7.6V63.5z"/>
	<path class="st0" d="M69.1,63.5v-2.1c-1,0-1.8-0.4-2.4-1c-0.6-0.6-1-1.5-1-2.4l0-2.8c0-1,0.4-1.8,1-2.4c0.6-0.6,1.5-1,2.4-1
		c1,0,1.8,0.4,2.4,1c0.6,0.6,1,1.5,1,2.4V58c0,1-0.4,1.8-1,2.4c-0.6,0.6-1.5,1-2.4,1V63.5v2.1c4.2,0,7.6-3.4,7.6-7.6l0-2.8
		c0-4.2-3.4-7.6-7.6-7.6c-4.2,0-7.6,3.4-7.6,7.6V58c0,4.2,3.4,7.6,7.6,7.6V63.5z"/>
</g>
</svg>
