<?xml version="1.0" encoding="utf-8"?>
<!-- Generator: Adobe Illustrator 24.2.1, SVG Export Plug-In . SVG Version: 6.00 Build 0)  -->
<svg version="1.1" id="Capa_1" xmlns="http://www.w3.org/2000/svg" xmlns:xlink="http://www.w3.org/1999/xlink" x="0px" y="0px"
	 viewBox="0 0 100 100" style="enable-background:new 0 0 100 100;" xml:space="preserve">
<style type="text/css">
	.st0{fill:#272727;}
</style>
<g>
	<path class="st0" d="M92.1,88.1l-5.2-32.6c-1-6.1-5.2-11.4-10.9-13.7l-8.8-3.5c0.2-0.3,0.4-0.6,0.5-0.9L76,21l-3.5-7.1
		C68.2,5.3,59.6,0,50,0S31.8,5.3,27.5,13.9L24,21l8.3,16.5c0.2,0.3,0.3,0.6,0.5,0.9L24,41.9c-5.8,2.3-9.9,7.5-10.9,13.7L7.9,88.1
		l16.3,6.5v5.4h51.6v-5.4L92.1,88.1z M35.4,40.8c1.2,0.7,2.6,1.1,4.1,1.1h8.9v6.5h-6.5c-4.1,0-7.4-3.1-8-7L35.4,40.8z M50,29
		c2.7,0,5.4-0.3,8.1-0.9v10.6H41.9V28.2C44.6,28.7,47.3,29,50,29z M51.6,41.9h8.9c1.5,0,2.9-0.4,4.1-1.1l1.4,0.6c-0.5,3.9-3.9,7-8,7
		h-6.5L51.6,41.9z M64.9,36c-0.7,1.4-2,2.4-3.6,2.6V27.4c3.7-1,7-2.2,9.5-3.2L64.9,36z M50,3.2c8.3,0,15.8,4.6,19.6,12.1l2.4,4.9
		c-3.6,1.6-13.4,5.6-22,5.6c-8.6,0-18.4-4-22-5.6l2.4-4.9C34.2,7.9,41.7,3.2,50,3.2L50,3.2z M29.3,24.3c2.4,1,5.8,2.2,9.5,3.2v11.2
		c-1.5-0.2-2.9-1.2-3.6-2.6L29.3,24.3z M20.7,52.3L18,54.1c4,6.1,6.2,13.1,6.2,20.4v16.6l-12.7-5.1l4.8-30c0.8-5,4.2-9.3,8.9-11.2
		l5.7-2.3c1.1,5.1,5.6,9,11.1,9h6.5v6.7c-1.9,0.7-3.2,2.4-3.2,4.5s1.4,3.9,3.2,4.5v3.8c-1.9,0.7-3.2,2.4-3.2,4.5s1.4,3.9,3.2,4.5
		v16.4h-21V74.5C27.4,66.6,25.1,58.9,20.7,52.3z M50,77.4c-0.9,0-1.6-0.7-1.6-1.6s0.7-1.6,1.6-1.6c0.9,0,1.6,0.7,1.6,1.6
		S50.9,77.4,50,77.4z M50,64.5c-0.9,0-1.6-0.7-1.6-1.6c0-0.9,0.7-1.6,1.6-1.6c0.9,0,1.6,0.7,1.6,1.6C51.6,63.8,50.9,64.5,50,64.5z
		 M72.6,96.8h-21V80.3c1.9-0.7,3.2-2.4,3.2-4.5c0-2.1-1.4-3.9-3.2-4.5v-3.8c1.9-0.7,3.2-2.4,3.2-4.5c0-2.1-1.4-3.9-3.2-4.5v-6.7h6.5
		c5.4,0,10-3.9,11.1-9l5.7,2.3c4.7,1.9,8.1,6.2,8.9,11.2l4.8,30l-12.7,5.1V74.5c0-7.3,2.1-14.3,6.2-20.4l-2.7-1.8
		c-4.4,6.6-6.7,14.3-6.7,22.2L72.6,96.8z"/>
	<path class="st0" d="M59.7,59.7h9.7v3.2h-9.7V59.7z"/>
</g>
</svg>
