<?xml version="1.0" encoding="utf-8"?>
<!-- Generator: Adobe Illustrator 24.2.1, SVG Export Plug-In . SVG Version: 6.00 Build 0)  -->
<svg version="1.1" id="Capa_1" xmlns="http://www.w3.org/2000/svg" xmlns:xlink="http://www.w3.org/1999/xlink" x="0px" y="0px"
	 viewBox="0 0 100 100" style="enable-background:new 0 0 100 100;" xml:space="preserve">
<style type="text/css">
	.st0{fill:#272727;}
</style>
<path class="st0" d="M84.9,21C76.7,12.9,66.2,8,54.8,6.9V5.2c0-2.6-2-4.6-4.5-4.9V0.2h-0.3h0l-0.1,0l-0.1,0l0,0h0h-0.3v0.1
	c-2.5,0.2-4.5,2.3-4.5,4.9v1.7C33.8,8,23.3,12.9,15.1,21C5.7,30.3,0.5,42.7,0.3,55.9l0,0c0,0.6,0.2,1.2,0.6,1.6
	c0.4,0.4,1,0.7,1.6,0.7c0.7,0,1.4-0.4,1.8-1c3.1-4.5,7.9-7,13.6-7c5.8,0,10.9,2.5,14,6.9c0.5,0.7,1.2,1.1,2.1,1.1
	c0.8,0,1.6-0.4,2.1-1.1c2.1-3.1,5.2-5.2,8.9-6.2v17v4v13.4c0,8,6.5,14.5,14.5,14.5c8,0,14.5-6.5,14.5-14.5V82c0-2.7-2.2-4.9-4.9-4.9
	c-2.7,0-4.9,2.2-4.9,4.9v3.2c0,1.3-0.5,2.5-1.4,3.3c-0.8,0.8-2,1.4-3.3,1.4c-1.3,0-2.5-0.5-3.3-1.4c-0.8-0.8-1.4-2-1.4-3.3V50.8
	c3.7,1,6.9,3.2,9,6.3c0.5,0.7,1.2,1.1,2.1,1.1c0.8,0,1.6-0.4,2.1-1.1c3.1-4.4,8.2-6.9,14-6.9c5.7,0,10.5,2.5,13.6,7
	c0.4,0.6,1.1,1,1.8,1c0.6,0,1.2-0.2,1.6-0.7c0.4-0.4,0.6-1,0.6-1.6v0v0C99.5,42.7,94.3,30.3,84.9,21z M51.4,50.2v23.7h-3v-2.1v-4
	V50.2c0.5,0,1-0.1,1.6-0.1C50.5,50.1,50.9,50.2,51.4,50.2z M67.7,85.2V82c0-0.8,0.7-1.5,1.5-1.5c0.8,0,1.5,0.7,1.5,1.5v3.2
	c0,3.1-1.2,5.8-3.3,7.8c-2,2-4.8,3.3-7.8,3.3c-3.1,0-5.8-1.2-7.8-3.3c-2-2-3.3-4.8-3.3-7.8v-7.9h3l0,7.9c0,4.5,3.6,8.1,8.1,8.1
	C64,93.4,67.7,89.7,67.7,85.2z M50,3.7c0.8,0,1.4,0.7,1.4,1.5v1.5c-0.3,0-0.7,0-1,0v0h-0.3h0l-0.1,0l-0.1,0h0h0h0h-0.3v0
	c-0.3,0-0.7,0-1,0V5.2C48.6,4.4,49.2,3.7,50,3.7z M96,52.4c-3.7-3.7-8.6-5.7-14.1-5.7c-5.6,0-10.6,2-14.4,5.6
	c-0.3-11.5-2-22.1-4.7-30.4c-1.6-4.9-3.6-8.6-5.7-11.2C77.9,14,94.2,31.2,96,52.4z M50,46.7L50,46.7l-0.4,0v0
	c-5.3,0.1-10.2,2-13.8,5.4c0.3-11,1.9-21.3,4.5-29.2c1.4-4.1,2.9-7.3,4.6-9.5c1.7-2.2,3.4-3.3,5-3.4c1.6,0,3.3,1.2,5,3.4
	c1.7,2.2,3.2,5.4,4.6,9.5c2.6,7.9,4.2,18.1,4.5,29.2c-3.6-3.4-8.4-5.3-13.8-5.4v0L50,46.7z M42.9,10.7c-2.2,2.6-4.1,6.4-5.7,11.2
	c-2.8,8.3-4.4,18.9-4.7,30.4c-3.7-3.6-8.8-5.6-14.4-5.6c-5.5,0-10.4,2-14.1,5.7C5.8,31.2,22.1,14,42.9,10.7z"/>
</svg>
