<?xml version="1.0" encoding="utf-8"?>
<!-- Generator: Adobe Illustrator 24.2.1, SVG Export Plug-In . SVG Version: 6.00 Build 0)  -->
<svg version="1.1" id="Capa_1" xmlns="http://www.w3.org/2000/svg" xmlns:xlink="http://www.w3.org/1999/xlink" x="0px" y="0px"
	 viewBox="0 0 100 100" style="enable-background:new 0 0 100 100;" xml:space="preserve">
<style type="text/css">
	.st0{fill:#272727;}
</style>
<g>
	<path class="st0" d="M83.8,60V45.2c0-1.8-0.6-3.5-1.7-4.8h0c2.7,0,4.8-2.2,4.8-4.8v-9.7c0-4.4-3.6-8-8-8h-3.4
		C71.6,7.5,61.7,0.1,50,0.1S28.4,7.5,24.4,17.8H21c-4.4,0-8,3.6-8,8v9.7c0,2.7,2.2,4.8,4.8,4.8h0c-1,1.3-1.7,3-1.7,4.8V60
		c-4,3.3-6.4,8.2-6.4,13.6v26.2h80.4V73.6C90.2,68.2,87.8,63.3,83.8,60z M80.6,45.2v12.7c-1.1-0.6-2.3-1-3.5-1.4l-11-2.9v-4
		c3.3-2.4,6.1-5.6,8-9.2h1.6C78.4,40.3,80.6,42.5,80.6,45.2L80.6,45.2z M50,61.3c0.5,0,1.1,0,1.6,0v35.4h-3.2V61.2
		C48.9,61.2,49.5,61.3,50,61.3L50,61.3z M50,58c-8.4,0-12.9-2.4-12.9-3.2v-3.2c3.8,2.1,8.2,3.2,12.9,3.2s9-1.2,12.9-3.2v3.2
		C62.9,55.7,58.4,58,50,58z M26.4,32.4c0.5-2.7,1.5-5.3,2.9-7.6c-0.1,0.9-0.2,1.8-0.2,2.7c0,11.5,9.4,20.9,20.9,20.9
		S70.9,39,70.9,27.5c0-0.9-0.1-1.8-0.2-2.7c1.4,2.3,2.4,4.8,2.9,7.6c-2.3,11-12,19.2-23.6,19.2S28.6,43.3,26.4,32.4L26.4,32.4z
		 M50,13c5.7,0,11,2,15.2,5.4c1.6,2.7,2.5,5.9,2.5,9.1c0,9.8-7.9,17.7-17.7,17.7s-17.7-7.9-17.7-17.7c0-3.2,0.9-6.4,2.5-9.1
		C39,15,44.3,13,50,13z M79,21c2.7,0,4.8,2.2,4.8,4.8v9.7c0,0.9-0.7,1.6-1.6,1.6h-6.4h-0.2c1.1-3,1.8-6.3,1.8-9.7
		c0-2.2-0.3-4.4-0.8-6.4H79z M73.8,23.7C70.4,17.6,64.7,13,57.9,11l2.2-5.4C67.3,8.9,72.5,15.7,73.8,23.7z M57.1,4.4l-2.4,5.8
		c-1.5-0.3-3.1-0.4-4.7-0.4c-1.6,0-3.2,0.1-4.7,0.4l-2.4-5.8c2.2-0.7,4.6-1.1,7.1-1.1C52.5,3.3,54.9,3.7,57.1,4.4z M39.9,5.6
		l2.2,5.4c-6.7,2-12.5,6.6-15.9,12.8C27.5,15.7,32.7,8.9,39.9,5.6z M16.2,35.5v-9.7c0-2.7,2.2-4.8,4.8-4.8h2.4
		c-0.5,2.1-0.8,4.2-0.8,6.4c0,3.4,0.7,6.6,1.8,9.7h-0.2h-6.4C16.9,37.1,16.2,36.4,16.2,35.5z M19.4,45.2c0-2.7,2.2-4.8,4.8-4.8h1.6
		c2,3.6,4.7,6.8,8,9.2v4l-11,2.9c-1.2,0.3-2.4,0.8-3.5,1.4L19.4,45.2z M13,80.6h1.6c0.9,0,1.6,0.7,1.6,1.6v6.4
		c0,0.9-0.7,1.6-1.6,1.6H13V80.6z M13,93.4h1.6c2.7,0,4.8-2.2,4.8-4.8v-6.4c0-2.7-2.2-4.8-4.8-4.8H13v-3.7c0-6.5,4.4-12.3,10.7-14
		l10.8-2.9c1.5,2.3,5.8,3.7,10.6,4.2v35.7H25.9V79.3c0-4.8-1.9-9.4-5.3-12.8l-2.3,2.3c2.8,2.8,4.4,6.5,4.4,10.5v17.3H13V93.4z
		 M77.3,96.7V79.3c0-4,1.5-7.7,4.4-10.5l-2.3-2.3c-3.4,3.4-5.3,8-5.3,12.8v17.3H54.8V61c4.8-0.5,9.1-1.9,10.6-4.2l10.8,2.9
		c6.3,1.7,10.7,7.4,10.7,14v3.7h-1.6c-2.7,0-4.8,2.2-4.8,4.8v6.4c0,2.7,2.2,4.8,4.8,4.8H87v3.2H77.3z M87,80.6v9.7h-1.6
		c-0.9,0-1.6-0.7-1.6-1.6v-6.4c0-0.9,0.7-1.6,1.6-1.6H87z"/>
	<path class="st0" d="M58,80.6h12.9v-9.7H58V80.6z M61.3,74.1h6.4v3.2h-6.4V74.1z"/>
	<path class="st0" d="M35.5,93.4c3.5,0,6.4-2.9,6.4-6.4c0-3.5-2.9-6.4-6.4-6.4s-6.4,2.9-6.4,6.4C29.1,90.5,32,93.4,35.5,93.4z
		 M35.5,83.8c1.8,0,3.2,1.4,3.2,3.2c0,1.8-1.4,3.2-3.2,3.2c-1.8,0-3.2-1.4-3.2-3.2C32.3,85.2,33.7,83.8,35.5,83.8z"/>
	<path class="st0" d="M32.3,67.7h3.2v3.2h-3.2V67.7z"/>
	<path class="st0" d="M38.7,67.7H42v3.2h-3.2V67.7z"/>
	<path class="st0" d="M25.9,67.7h3.2v3.2h-3.2V67.7z"/>
	<path class="st0" d="M32.3,74.1h3.2v3.2h-3.2V74.1z"/>
	<path class="st0" d="M38.7,74.1H42v3.2h-3.2V74.1z"/>
	<path class="st0" d="M64.5,83.8h3.2V87h-3.2V83.8z"/>
	<path class="st0" d="M58,83.8h3.2V87H58V83.8z"/>
	<path class="st0" d="M64.5,90.2h3.2v3.2h-3.2V90.2z"/>
	<path class="st0" d="M58,90.2h3.2v3.2H58V90.2z"/>
	<path class="st0" d="M40.2,21.8l-2.8-1.6c-0.7,1.1-1.2,2.4-1.5,3.6l3.1,0.8C39.3,23.7,39.7,22.7,40.2,21.8L40.2,21.8z"/>
	<path class="st0" d="M35.5,27.5C35.5,35.5,42,42,50,42v-3.2c-6.2,0-11.3-5.1-11.3-11.3H35.5z"/>
</g>
</svg>
