<?xml version="1.0" encoding="utf-8"?>
<!-- Generator: Adobe Illustrator 24.2.1, SVG Export Plug-In . SVG Version: 6.00 Build 0)  -->
<svg version="1.1" id="Capa_1" xmlns="http://www.w3.org/2000/svg" xmlns:xlink="http://www.w3.org/1999/xlink" x="0px" y="0px"
	 viewBox="0 0 100 100" style="enable-background:new 0 0 100 100;" xml:space="preserve">
<style type="text/css">
	.st0{fill:#272727;}
</style>
<g>
	<path class="st0" d="M94,23.8c-3.7-3.7-8.7-5.9-14.3-5.9c-0.1,0-0.3,0-0.4,0l-0.3,0l-0.1-0.2C74,10.4,65.8,6,57,6
		c-8.9,0-17.1,4.5-21.9,11.8L35,18.1l-0.3,0c-0.8-0.1-1.6-0.1-2.5-0.1c-7.9,0-15,4.6-18.3,11.6l-0.1,0.3l-0.3,0
		C6,30.3,0.1,36.5,0.1,44.1c0,4,1.6,7.5,4.2,10.1c2.6,2.6,6.2,4.2,10.1,4.2h65.2c5.6,0,10.6-2.3,14.3-5.9c3.7-3.7,5.9-8.7,5.9-14.3
		C99.9,32.6,97.6,27.5,94,23.8z M79.7,53.5H14.4c-5.2,0-9.4-4.2-9.4-9.4c0-5.2,4.2-9.4,9.4-9.4c0.2,0,0.5,0,0.8,0l0.2,0
		c1,0,2-0.7,2.3-1.6c2.2-6.1,8-10.3,14.5-10.3c1.2,0,2.3,0.1,3.4,0.4c0.2,0,0.4,0.1,0.6,0.1c0.9,0,1.7-0.5,2.2-1.3
		c3.7-6.8,10.9-11,18.6-11c7.6,0,14.7,4.1,18.5,10.7c0.4,0.8,1.3,1.2,2.1,1.2c0.1,0,0.2,0,0.3,0c0.6-0.1,1.2-0.1,1.8-0.1
		c8.5,0,15.3,6.9,15.3,15.3C95,46.6,88.1,53.5,79.7,53.5z"/>
	<path class="st0" d="M14.4,65.3c-1.4,0-2.5,1.1-2.5,2.5v6c0,1.4,1.1,2.5,2.5,2.5c1.4,0,2.5-1.1,2.5-2.5v-6
		C16.9,66.4,15.8,65.3,14.4,65.3z"/>
	<path class="st0" d="M26.3,83.1c-1.4,0-2.5,1.1-2.5,2.5v6c0,1.4,1.1,2.5,2.5,2.5c1.4,0,2.5-1.1,2.5-2.5v-6
		C28.7,84.2,27.6,83.1,26.3,83.1z"/>
	<path class="st0" d="M38.1,65.3c-1.4,0-2.5,1.1-2.5,2.5v6c0,1.4,1.1,2.5,2.5,2.5c1.4,0,2.5-1.1,2.5-2.5v-6
		C40.6,66.4,39.5,65.3,38.1,65.3z"/>
	<path class="st0" d="M50,83.1c-1.4,0-2.5,1.1-2.5,2.5v6c0,1.4,1.1,2.5,2.5,2.5c1.4,0,2.5-1.1,2.5-2.5v-6
		C52.5,84.2,51.4,83.1,50,83.1z"/>
	<path class="st0" d="M61.9,65.3c-1.4,0-2.5,1.1-2.5,2.5v6c0,1.4,1.1,2.5,2.5,2.5c1.4,0,2.5-1.1,2.5-2.5v-6
		C64.3,66.4,63.2,65.3,61.9,65.3z"/>
	<path class="st0" d="M73.7,83.1c-1.4,0-2.5,1.1-2.5,2.5v6c0,1.4,1.1,2.5,2.5,2.5c1.4,0,2.5-1.1,2.5-2.5v-6
		C76.2,84.2,75.1,83.1,73.7,83.1z"/>
	<path class="st0" d="M85.6,65.3c-1.4,0-2.5,1.1-2.5,2.5v6c0,1.4,1.1,2.5,2.5,2.5c1.4,0,2.5-1.1,2.5-2.5v-6
		C88,66.4,86.9,65.3,85.6,65.3z"/>
</g>
</svg>
