<?xml version="1.0" encoding="utf-8"?>
<!-- Generator: Adobe Illustrator 24.2.1, SVG Export Plug-In . SVG Version: 6.00 Build 0)  -->
<svg version="1.1" id="Capa_1" xmlns="http://www.w3.org/2000/svg" xmlns:xlink="http://www.w3.org/1999/xlink" x="0px" y="0px"
	 viewBox="0 0 100 100" style="enable-background:new 0 0 100 100;" xml:space="preserve">
<style type="text/css">
	.st0{fill:#272727;}
</style>
<g>
	<g>
		<g>
			<path class="st0" d="M55.9,74.6c-1.1,0-2,0.9-2,2c0,1.1,0.9,2,2,2s2-0.9,2-2S56.9,74.6,55.9,74.6z"/>
		</g>
	</g>
	<g>
		<g>
			<g>
				<path class="st0" d="M83.3,82.4l-1.6-4.8c4.8-5.1,7.4-11.7,7.4-18.6c0-12.3-8.2-23.1-19.8-26.4l4.8-8.3c0.5-0.9,0.2-2.1-0.7-2.7
					l-1.7-1l2-3.4l1.7,1c0.9,0.5,2.1,0.2,2.7-0.7l3.9-6.8c0.5-0.9,0.2-2.1-0.7-2.7L67.6,0.3C66.7-0.3,65.5,0,65,1l-3.9,6.8
					c-0.5,0.9-0.2,2.1,0.7,2.7l1.7,1l-2,3.4l-1.7-1c-0.9-0.5-2.1-0.2-2.7,0.7L42.5,39.9l-1.7-1c-0.9-0.5-2.1-0.2-2.7,0.7l-3.9,6.8
					c-0.5,0.9-0.2,2.1,0.7,2.7l20.3,11.7c0.9,0.5,2.1,0.2,2.7-0.7l3.9-6.8c0.5-0.9,0.2-2.1-0.7-2.7l-1.7-1l1.4-2.5
					c6.8-0.5,12.6,5,12.6,11.8c0,2.1-0.5,4.1-1.6,5.9c-2.5-1.3-5.3-1.9-8.2-1.9c-4.1,0-8.1,1.4-11.3,3.9H33.3
					c-3.7,0-7.1,2.1-8.7,5.4l-1.7,3.5c-0.3,0.6-0.3,1.3,0.1,1.9s1,0.9,1.7,0.9h20.7L44,82.4H16.8v0c-3.2,0-5.9,2.6-5.9,5.9V98
					c0,1.1,0.9,2,2,2h74.2c1.1,0,2-0.9,2-2v-9.8C89.1,85.1,86.5,82.5,83.3,82.4z M67.4,4.6l10.1,5.9l-2,3.4
					c-2.3-1.3-7.5-4.3-10.1-5.9L67.4,4.6z M66.9,13.3l3.4,2l-2,3.4l-3.4-2L66.9,13.3z M55.5,56.4l-16.9-9.8l2-3.4
					c1.8,1,12.8,7.4,15.2,8.8c0,0,0,0,0,0c0,0,0,0,0,0l1.7,1L55.5,56.4z M56.1,47.7l-10.1-5.9l13.7-23.7c4,2.3,6.3,3.6,7.6,4.4
					c-0.3-0.2-0.5-0.3-0.6-0.3c0,0,0.8,0.5,3.1,1.8C67.7,27.5,57.8,44.7,56.1,47.7z M63.1,43.3l4.2-7.2C77.7,38.6,85.2,48,85.2,59
					c0,5.3-1.8,10.3-5,14.4c-1.2-2.5-2.9-4.7-5-6.4c1.4-2.4,2.2-5.1,2.2-8C77.3,50.8,71.1,44,63.1,43.3z M63.7,66.8
					c6.2,0,11.6,4,13.6,9.8l1.9,5.8h-31l1.9-5.8C52.1,70.7,57.6,66.8,63.7,66.8z M27.8,74.6c0.1-0.2,1.4-3.9,5.6-3.9h15.4
					c-0.8,1.2-1.5,2.5-2.1,3.9H27.8z M85.2,96.1H14.8v-7.8c0-1.1,0.9-2,2-2c1.6,0,63.1,0,66.4,0c1.1,0,2,0.9,2,2V96.1z"/>
				<path class="st0" d="M67.4,22.7c0.1,0.1,0.2,0.1,0.3,0.2C67.6,22.8,67.5,22.7,67.4,22.7z"/>
				<path class="st0" d="M67.4,22.7C67.4,22.7,67.4,22.7,67.4,22.7C67.4,22.7,67.4,22.7,67.4,22.7z"/>
				<path class="st0" d="M67.2,22.5C67.2,22.5,67.2,22.5,67.2,22.5C67.2,22.5,67.2,22.5,67.2,22.5z"/>
				<path class="st0" d="M67.2,22.5c0.1,0,0.1,0.1,0.2,0.1C67.3,22.6,67.3,22.6,67.2,22.5z"/>
				<path class="st0" d="M67.7,22.9C67.8,22.9,67.8,22.9,67.7,22.9C67.8,22.9,67.8,22.9,67.7,22.9z"/>
				<path class="st0" d="M68.5,23.3C68.6,23.3,68.6,23.3,68.5,23.3C68.6,23.3,68.6,23.3,68.5,23.3z"/>
				<path class="st0" d="M68.5,23.3C68.5,23.3,68.5,23.3,68.5,23.3C68.5,23.3,68.5,23.3,68.5,23.3z"/>
				<path class="st0" d="M68.6,23.3C68.6,23.4,68.6,23.4,68.6,23.3L68.6,23.3z"/>
				<path class="st0" d="M68.2,23.1C68.2,23.2,68.3,23.2,68.2,23.1C68.3,23.2,68.2,23.2,68.2,23.1z"/>
				<path class="st0" d="M68.3,23.2c0.1,0.1,0.2,0.1,0.2,0.1C68.4,23.3,68.4,23.2,68.3,23.2z"/>
				<path class="st0" d="M68.2,23.1C68.2,23.1,68.2,23.1,68.2,23.1C68.2,23.1,68.2,23.1,68.2,23.1z"/>
				<path class="st0" d="M67.8,22.9c0.1,0.1,0.3,0.2,0.4,0.2C68,23,67.9,23,67.8,22.9z"/>
			</g>
		</g>
	</g>
	<g>
		<g>
			<path class="st0" d="M71.5,74.6h-7.8c-1.1,0-2,0.9-2,2c0,1.1,0.9,2,2,2h7.8c1.1,0,2-0.9,2-2C73.4,75.5,72.6,74.6,71.5,74.6z"/>
		</g>
	</g>
</g>
</svg>
