<?xml version="1.0" encoding="utf-8"?>
<!-- Generator: Adobe Illustrator 24.2.1, SVG Export Plug-In . SVG Version: 6.00 Build 0)  -->
<svg version="1.1" id="Capa_1" xmlns="http://www.w3.org/2000/svg" xmlns:xlink="http://www.w3.org/1999/xlink" x="0px" y="0px"
	 viewBox="0 0 100 100" style="enable-background:new 0 0 100 100;" xml:space="preserve">
<style type="text/css">
	.st0{fill:#272727;}
</style>
<path class="st0" d="M99.7,28.1L99.7,28.1C99.7,28.1,99.7,28.1,99.7,28.1L84,28.5L88.1,7L63.8,17.1l-2.4-9l-27.3,2c0,0,0,0,0,0l0,0
	c-6.9,10.4-7.5,23.2-2.2,34.4c-1.9-0.5-4,0.1-5.4,1.5c-2.3,2.3-2.3,6,0,8.2l1.9,1.9c-2,0.2-3.8,1-5.2,2.4L9.9,71.6v0l-7.1,7.1
	c-1.6,1.6-2.5,3.7-2.5,5.9c0,2.2,0.9,4.3,2.5,5.9C4.3,92.2,6.4,93,8.7,93c2.2,0,4.3-0.9,5.9-2.5l20.3-20.3c1.4-1.4,2.3-3.3,2.4-5.2
	l1.8,1.8c1.1,1.1,2.6,1.7,4.1,1.7c1.5,0,3-0.6,4.1-1.7c1.1-1.1,1.7-2.6,1.7-4.1c0-0.5-0.1-0.9-0.2-1.3c4.8,2.3,10,3.4,15.2,3.4
	c9.1,0,18.3-3.5,25.2-10.4C96.5,47.2,100,37.6,99.7,28.1z M61.2,22.1L83.1,13l-3.6,19.2l8.1-0.2c-0.6,5.4-3,10.4-6.9,14.3
	c-4.5,4.5-10.5,7-16.8,7.1c-3,0-6.1-0.6-9-1.8c-2.9-1.2-5.6-2.9-7.9-5.2c-4.6-4.6-7.1-10.6-7.1-17.1c0-6.2,2.3-12,6.6-16.6l12-0.8
	L61.2,22.1z M32.8,68.2L12.5,88.5c-1,1-2.4,1.6-3.8,1.6c-1.4,0-2.8-0.6-3.8-1.6c-1-1-1.6-2.4-1.6-3.8c0-1.4,0.6-2.8,1.6-3.8l7.2-7.2
	l13-13c1-1,2.4-1.6,3.8-1.6c1.4,0,2.8,0.6,3.8,1.6c1,1,1.6,2.4,1.6,3.8C34.3,65.8,33.8,67.2,32.8,68.2z M45.3,64.8
	c-1.1,1.1-2.9,1.1-4,0L28.5,52.1c-1.1-1.1-1.1-2.9,0-4c0.6-0.6,1.3-0.8,2-0.8s1.5,0.3,2,0.8l12.7,12.7c0.5,0.5,0.8,1.2,0.8,2
	C46.1,63.6,45.8,64.3,45.3,64.8z M87.2,52.3c-12.7,12.7-33.5,12.7-46.2,0c-10.5-10.5-12.4-26.5-5.5-38.9l6.9-0.5
	C38.9,17.7,37,23.3,37,29.3c0,7.2,2.8,14.1,7.9,19.2c5.2,5.2,12.1,7.9,18.9,7.9c7.1-0.1,13.9-2.9,18.9-7.9
	c4.5-4.5,7.1-10.2,7.8-16.4l6.1-0.1C96.1,39.4,93,46.5,87.2,52.3z"/>
</svg>
