<?xml version="1.0" encoding="utf-8"?>
<!-- Generator: Adobe Illustrator 24.2.1, SVG Export Plug-In . SVG Version: 6.00 Build 0)  -->
<svg version="1.1" id="Capa_1" xmlns="http://www.w3.org/2000/svg" xmlns:xlink="http://www.w3.org/1999/xlink" x="0px" y="0px"
	 viewBox="0 0 100 100" style="enable-background:new 0 0 100 100;" xml:space="preserve">
<style type="text/css">
	.st0{fill:#272727;}
	.st1{fill:#FFFFFF;}
</style>
<g>
	<g>
		<g id="XMLID_9_">
			<g>
				<path class="st0" d="M89.5,10.5c14,14,14,36.7,0,50.7c-7,7-16.2,10.5-25.3,10.5c-5.2,0-10.5-1.1-15.3-3.4
					c0.1,0.4,0.2,0.9,0.2,1.3c0,1.6-0.6,3-1.7,4.1c-1.1,1.1-2.6,1.7-4.1,1.7c-1.5,0-3-0.6-4.1-1.7l-1.9-1.9c-0.2,2-1,3.8-2.4,5.3
					L14.4,97.5c-1.6,1.6-3.7,2.5-5.9,2.5c-2.3,0-4.4-0.9-6-2.5C0.9,95.9,0,93.8,0,91.6s0.9-4.4,2.5-5.9l7.2-7.2l13.2-13.3
					c1.4-1.4,3.3-2.3,5.3-2.4l-1.9-1.9c-2.3-2.3-2.3-6,0-8.3c1.5-1.5,3.6-2,5.5-1.6c-6.3-13.3-3.9-29.7,7.1-40.6
					C52.8-3.5,75.5-3.5,89.5,10.5z M87.4,59.1c12.8-12.8,12.8-33.7,0-46.5C81,6.2,72.6,3,64.2,3c-8.4,0-16.8,3.2-23.2,9.6
					c-12.8,12.8-12.8,33.7,0,46.5C53.7,71.9,74.6,71.9,87.4,59.1z M46.1,69.6c0-0.8-0.3-1.5-0.8-2L32.4,54.8c-0.6-0.6-1.3-0.8-2-0.8
					s-1.5,0.3-2,0.8c-1.1,1.1-1.1,2.9,0,4.1l12.8,12.8c1.1,1.1,2.9,1.1,4.1,0C45.8,71.1,46.1,70.4,46.1,69.6z M34.3,71.2
					c0-1.5-0.6-2.8-1.6-3.8c-1-1-2.4-1.6-3.8-1.6S26,66.3,25,67.3L11.8,80.5l-7.3,7.3c-1,1-1.6,2.4-1.6,3.8s0.6,2.8,1.6,3.8
					c1,1,2.4,1.6,3.8,1.6c1.4,0,2.8-0.6,3.8-1.6L32.7,75C33.7,74,34.3,72.6,34.3,71.2z"/>
				<path class="st0" d="M83,16.5c5.2,5.2,8,12,8,19.3S88.1,50,83,55.1c-5.1,5.1-11.9,7.9-19.1,8c-6.9-0.1-13.8-2.7-19-8
					c-5.2-5.2-8-12-8-19.3s2.8-14.1,8-19.3c5.1-5.1,11.8-7.9,19-8C70.8,8.6,77.7,11.3,83,16.5z M88,35.8c0-6.5-2.5-12.6-7.1-17.2
					c-2.3-2.3-5-4.1-7.9-5.3c-2.9-1.2-5.9-1.8-9-1.8c-6.4,0.1-12.4,2.6-16.9,7.1c-4.6,4.6-7.1,10.7-7.1,17.2S42.4,48.4,47,53
					c2.3,2.3,5,4.1,7.9,5.3c2.9,1.2,5.9,1.8,9,1.8c6.4-0.1,12.4-2.6,16.9-7.1C85.5,48.4,88,42.3,88,35.8z"/>
				<path class="st1" style="fill:none" d="M87.4,12.6c12.8,12.8,12.8,33.7,0,46.5c-12.8,12.8-33.7,12.8-46.5,0c-12.8-12.8-12.8-33.7,0-46.5
					C47.3,6.2,55.8,3,64.2,3C72.6,3,81,6.2,87.4,12.6z M91,35.8c0-7.3-2.8-14.1-8-19.3c-5.3-5.3-12.1-7.9-19.1-8
					c-7.2,0.1-13.9,2.9-19,8c-5.2,5.2-8,12-8,19.3s2.8,14.1,8,19.3c5.3,5.3,12.1,7.9,19,8c7.2-0.1,13.9-2.9,19.1-8
					C88.1,50,91,43.1,91,35.8z"/>
				<path class="st1" style="fill:none" d="M80.9,18.6c4.6,4.6,7.1,10.7,7.1,17.2S85.5,48.4,80.9,53c-4.5,4.5-10.5,7.1-16.9,7.1c-3.1,0-6.1-0.6-9-1.8
					C52,57.1,49.3,55.3,47,53c-4.6-4.6-7.1-10.7-7.1-17.2s2.5-12.6,7.1-17.2c4.5-4.5,10.5-7.1,16.9-7.1c3.1,0,6.1,0.6,9,1.8
					C75.8,14.5,78.5,16.3,80.9,18.6z"/>
			</g>
			<g>
			</g>
		</g>
	</g>
</g>
</svg>
