<?xml version="1.0" encoding="utf-8"?>
<!-- Generator: Adobe Illustrator 24.2.1, SVG Export Plug-In . SVG Version: 6.00 Build 0)  -->
<svg version="1.1" id="Capa_1" xmlns="http://www.w3.org/2000/svg" xmlns:xlink="http://www.w3.org/1999/xlink" x="0px" y="0px"
	 viewBox="0 0 100 100" style="enable-background:new 0 0 100 100;" xml:space="preserve">
<style type="text/css">
	.st0{fill:#272727;}
</style>
<g>
	<path class="st0" d="M31,48.1c0.7,0.4,1.6,0.2,2-0.5l2.2-3.8c0.4-0.7,0.2-1.6-0.5-2c-0.7-0.4-1.6-0.2-2,0.5l-2.2,3.8
		C30.1,46.8,30.3,47.7,31,48.1z M69.9,38.1c0,0.8,0.7,1.5,1.5,1.5c0.8,0,1.5-0.7,1.5-1.5c0-0.8,0.2-1.1,0.6-1.7c0.4-0.7,1-1.6,1-3.2
		c0-1.7-0.6-2.6-1-3.2c-0.3-0.5-0.6-0.9-0.6-1.7c0-0.8,0.2-1.1,0.6-1.7c0.4-0.7,1-1.6,1-3.2c0-0.8-0.7-1.5-1.5-1.5s-1.5,0.7-1.5,1.5
		c0,0.8-0.2,1.1-0.6,1.7c-0.4,0.7-1,1.6-1,3.2s0.6,2.6,1,3.2c0.3,0.5,0.6,0.9,0.6,1.7c0,0.8-0.2,1.1-0.6,1.7
		C70.5,35.5,69.9,36.5,69.9,38.1z M61.1,35.2c0,0.8,0.7,1.5,1.5,1.5c0.8,0,1.5-0.7,1.5-1.5c0-0.8,0.2-1.1,0.6-1.7
		c0.4-0.7,1-1.6,1-3.2c0-1.7-0.6-2.6-1-3.2c-0.3-0.5-0.6-0.9-0.6-1.7c0-0.8,0.2-1.1,0.6-1.7c0.4-0.7,1-1.6,1-3.2
		c0-0.8-0.7-1.5-1.5-1.5s-1.5,0.7-1.5,1.5c0,0.8-0.2,1.1-0.6,1.7c-0.4,0.7-1,1.6-1,3.2s0.6,2.6,1,3.2c0.3,0.5,0.6,0.9,0.6,1.7
		c0,0.8-0.2,1.1-0.6,1.7C61.7,32.6,61.1,33.5,61.1,35.2z M80.2,62.6c-3.5,0-6.3,2.8-6.3,6.3s2.8,6.3,6.3,6.3c3.5,0,6.3-2.8,6.3-6.3
		S83.6,62.6,80.2,62.6z M80.2,72.2c-1.8,0-3.3-1.5-3.3-3.3s1.5-3.3,3.3-3.3c1.8,0,3.3,1.5,3.3,3.3C83.5,70.7,82,72.2,80.2,72.2z
		 M27,48.6c0.8,0,1.5-0.7,1.5-1.5v-4.3c0-0.8-0.7-1.5-1.5-1.5s-1.5,0.7-1.5,1.5v4.3C25.6,47.9,26.2,48.6,27,48.6z M30.5,62.6
		c-3.5,0-6.3,2.8-6.3,6.3s2.8,6.3,6.3,6.3s6.3-2.8,6.3-6.3S34,62.6,30.5,62.6z M30.5,72.2c-1.8,0-3.3-1.5-3.3-3.3s1.5-3.3,3.3-3.3
		c1.8,0,3.3,1.5,3.3,3.3C33.9,70.7,32.4,72.2,30.5,72.2z M96.5,44.3H80.3c-1.5,0-2.9,1-3.3,2.5L76.3,49l-6-5.7c-1.4-1.3-3.2-2-5-2
		h-9.7c-1.6,0-2.8,1.3-2.8,2.8v6.5c-1,0-1.9,0.3-2.8,0.8c-0.9,0.5-1.6,1.2-2.1,2.1l-1.3,2.1l-10.9,1.8l-4.9-5.9
		c-0.1-0.1-0.2-0.2-0.2-0.2c-0.9-0.7-2.1-0.7-3.1-0.1L24,53.4l-2.6-1.3c-0.7-0.4-1.5-0.4-2.2-0.1c-0.7,0.3-1.3,0.9-1.5,1.7l-1.1,3.7
		l-1.3,1v-31c0-1.6-1.3-2.8-2.8-2.8H3c-1.6,0-2.8,1.3-2.8,2.8v20.3c0,0.8,0.7,1.5,1.5,1.5s1.5-0.7,1.5-1.5V27.4h9.3v48.5
		c0,0,0,0,0,0c0,0,0,0,0,0v3.6c0,0.8,0.7,1.5,1.5,1.5s1.5-0.7,1.5-1.5v-2.1h6.6c2.2,2.2,5.2,3.6,8.6,3.6c3.4,0,6.4-1.4,8.6-3.6h6.7
		c0.8,0,1.5-0.7,1.5-1.5c0-0.8-0.7-1.5-1.5-1.5h-4.6c0.9-1.7,1.4-3.6,1.4-5.6c0-3.6-1.6-6.8-4-9l8.2-1.4l11.3,15.9h-5.4
		c-0.8,0-1.5,0.7-1.5,1.5s0.7,1.5,1.5,1.5h18.9c2.2,2.2,5.2,3.6,8.6,3.6c6.7,0,12.1-5.4,12.1-12.1c0-1.3-0.2-2.6-0.6-3.9l3.4-7.5h2
		c1.6,0,2.8-1.3,2.8-2.8v-7.1C99.9,45.8,98.3,44.3,96.5,44.3L96.5,44.3z M15.3,74.5V62l3.2-2.4c0.4-0.3,0.8-0.8,0.9-1.4l1-3.4
		l2.4,1.3c0.8,0.4,1.9,0.4,2.7-0.1l3.4-2.2l2.5,3.1c-0.3,0-0.5,0-0.8,0c-6.7,0-12.1,5.4-12.1,12.1c0,2,0.5,3.9,1.4,5.6L15.3,74.5z
		 M39.7,68.9c0,5.1-4.1,9.2-9.2,9.2s-9.2-4.1-9.2-9.2s4.1-9.2,9.2-9.2S39.7,63.8,39.7,68.9L39.7,68.9z M50.3,55
		c0.3-0.4,0.6-0.8,1.1-1.1c0.4-0.3,1-0.4,1.5-0.4c1.6,0,2.8-1.3,2.8-2.8v-6.5h9.6c1.1,0,2.2,0.4,3,1.2l11.9,11.3c0,0,0,0,0,0
		C77,56.8,74.1,58,72,60l-22.2-4.1L50.3,55z M69.4,74.5h-7.8L50.7,59l19.1,3.6c-1.1,1.8-1.8,4-1.8,6.3
		C68.1,70.9,68.6,72.8,69.4,74.5z M80.2,78.1c-5.1,0-9.2-4.1-9.2-9.2s4.1-9.2,9.2-9.2c5.1,0,9.2,4.1,9.2,9.2S85.3,78.1,80.2,78.1z
		 M96.9,54.7H95c-1.1,0-2.1,0.6-2.6,1.7L90,61.7c-1-1.4-2.4-2.6-3.9-3.5l-7.3-6.9l1.1-3.8c0.1-0.2,0.2-0.4,0.5-0.4h16.2
		c0.3,0,0.5,0.2,0.5,0.5L96.9,54.7L96.9,54.7z M1.6,53c-0.8,0-1.5,0.7-1.5,1.5v25.1c0,0.8,0.7,1.5,1.5,1.5s1.5-0.7,1.5-1.5V54.5
		C3.1,53.6,2.4,53,1.6,53z M21,47.6c0.4,0.7,1.3,0.9,2,0.5c0.7-0.4,0.9-1.3,0.5-2l-2.2-3.8c-0.4-0.7-1.3-0.9-2-0.5
		c-0.7,0.4-0.9,1.3-0.5,2L21,47.6z"/>
</g>
</svg>
