<?xml version="1.0" encoding="utf-8"?>
<!-- Generator: Adobe Illustrator 24.2.1, SVG Export Plug-In . SVG Version: 6.00 Build 0)  -->
<svg version="1.1" id="Capa_1" xmlns="http://www.w3.org/2000/svg" xmlns:xlink="http://www.w3.org/1999/xlink" x="0px" y="0px"
	 viewBox="0 0 100 100" style="enable-background:new 0 0 100 100;" xml:space="preserve">
<style type="text/css">
	.st0{fill:#272727;}
</style>
<g>
	<path class="st0" d="M10.9,54.3l0.5-3.3l6.6,0.9l-0.5,3.3L10.9,54.3z"/>
	<path class="st0" d="M24.6,76.3l0.5-3.3l3.3,0.5l-0.5,3.3L24.6,76.3z"/>
	<path class="st0" d="M99.9,34.2l-0.3-3.3l-33.3,2.9c-2.3,0.2-4.1,1.9-4.5,4.1L60.4,47c-0.2,1.8,1.1,3.5,2.9,3.7c0.1,0,0.2,0,0.4,0
		c0.1,0,0.2,0,0.3,0l27.7-2.4l2,23.1l-10,0.9C82.2,66,76,62.1,69.7,63.6c-5,1.2-8.7,5.5-9,10.7l-5.1,0.4c-0.4,0-0.9-0.1-1.2-0.4
		c-0.3-0.3-0.6-0.7-0.6-1.1l-0.1-1.7l5-0.4l-0.3-3.3l-5,0.4l-0.1-1.7l5.8-3.5c0.8-0.5,1-1.5,0.6-2.3c-0.1-0.1-0.2-0.2-0.2-0.3
		l-2.1-2.1l2.1-2.1c0.6-0.6,0.6-1.7,0-2.3c-0.1-0.1-0.3-0.2-0.4-0.3l-5.7-2.9c0.1-0.6,0.3-1.2,0.5-1.7L60,33.7
		c0.7-1.7,2.3-2.9,4.2-3.1l34.2-3c0.4,0,0.8,0,1.1,0l0.5-3.3c-0.6-0.1-1.3-0.1-1.9,0l-34.2,3c-3.1,0.3-5.8,2.2-6.9,5.1l-6.3,15.3
		c-0.8,2.4-1.3,5-1.4,7.6c-0.4-0.8-0.8-1.6-1.4-2.3c-1.8-2.5-4.6-4.1-7.7-4.5L37.6,48l8.8-5.9l2.4,2.4l2.3-2.3l-3.3-3.3
		c-0.6-0.6-1.4-0.6-2.1-0.2l-11.9,7.9l-11-17.7c-1.3-2.1-3.5-3.5-5.9-3.8L0.5,22.7L0,26l16.5,2.3c1.5,0.2,2.8,1,3.5,2.3l1,1.7
		L0.5,29.4L0,32.7l7.2,1l-1.4,9.9l-5.3-0.7L0,46.1l5.3,0.7l-3.2,23l-1.6-0.2L0,72.9L14.9,75c0,6.4,5.2,11.6,11.6,11.6
		c5.2,0,9.7-3.4,11.1-8.4l5.1,0.7c0.2,0,0.5,0,0.7,0c2.5,0,4.6-1.8,4.9-4.3l1.5-10.4l0.8,9.2C50.8,76,53,78,55.5,78
		c0.1,0,0.3,0,0.4,0l5.1-0.4c1.2,5.2,5.9,8.9,11.3,9c0.3,0,0.7,0,1,0c5.8-0.5,10.3-5.2,10.6-10.9l16-1.4l-0.3-3.3L97,71l-2-23.1
		l4.9-0.4l-0.3-3.3l-4.9,0.4l-0.9-9.9L99.9,34.2z M46.9,61l-0.2,1.6l-6.6-0.9l0.5-3.3l6.4,0.9C47,59.9,47,60.5,46.9,61L46.9,61z
		 M10.5,34.1L23.4,36v0l6.8,11L9.1,44L10.5,34.1z M34.7,76.1c-0.6,4.5-4.8,7.7-9.4,7.1c-2.2-0.3-4.1-1.5-5.5-3.2
		c-2.8-3.7-2-8.9,1.6-11.6c1.4-1.1,3.2-1.7,5-1.7c0.4,0,0.8,0,1.2,0.1C32.2,67.4,35.3,71.6,34.7,76.1z M43.2,75.6l-5.1-0.7
		c0-6.4-5.2-11.6-11.6-11.6c-2.5,0-4.9,0.8-6.9,2.3c-2,1.5-3.5,3.6-4.1,6l-10-1.4l3.2-23l24.6,3.5l6.6,0.9c2.6,0.3,4.9,1.9,6.1,4.2
		L41,55.2c-1.8-0.3-3.5,1-3.7,2.8l-0.5,3.3c-0.3,1.8,1,3.5,2.8,3.7l6.6,0.9l-0.5,3.3l-4.9-0.7l-0.5,3.3l4.9,0.7L45,74.2
		C44.9,75.1,44.1,75.7,43.2,75.6L43.2,75.6z M55.5,55.4l-1.7,1.7c-0.6,0.6-0.6,1.7,0,2.3l1.8,1.8L53,62.8l-0.3-4
		c-0.1-1.6-0.1-3.3,0.1-4.9L55.5,55.4z M80.6,74.2c0.4,4.6-3,8.6-7.5,9s-8.6-3-9-7.5c-0.4-4.6,3-8.6,7.5-9c0,0,0,0,0,0
		c0.2,0,0.5,0,0.7,0C76.7,66.6,80.2,69.9,80.6,74.2z M91.4,44.9l-27.7,2.5l1.5-9c0.1-0.7,0.7-1.3,1.5-1.4L90.5,35L91.4,44.9z"/>
	<path class="st0" d="M65.5,53.8l6.6-0.6l0.3,3.3l-6.6,0.6L65.5,53.8z"/>
	<path class="st0" d="M70.5,73.4l3.3-0.3l0.3,3.3l-3.3,0.3L70.5,73.4z"/>
	<path class="st0" d="M27.3,29.6l2.3-2.3l-2.1-2.1h4.3c0.9,0,1.7-0.7,1.7-1.7v-4.3l5.5,5.5c0.6,0.6,1.7,0.6,2.3,0l5.5-5.5v4.3
		c0,0.9,0.7,1.7,1.7,1.7h5.9l-3.8,3.8l2.3,2.3l6.6-6.6c0.6-0.6,0.6-1.7,0-2.3c-0.3-0.3-0.7-0.5-1.2-0.5H50v-6.6
		c0-0.9-0.7-1.7-1.7-1.7c-0.4,0-0.9,0.2-1.2,0.5L40,21.1l-7.1-7.1c-0.6-0.6-1.7-0.6-2.3,0c-0.3,0.3-0.5,0.7-0.5,1.2v6.6h-6.6
		c-0.9,0-1.7,0.7-1.7,1.7c0,0.4,0.2,0.9,0.5,1.2L27.3,29.6z"/>
</g>
</svg>
