<?xml version="1.0" encoding="utf-8"?>
<!-- Generator: Adobe Illustrator 24.2.1, SVG Export Plug-In . SVG Version: 6.00 Build 0)  -->
<svg version="1.1" id="Capa_1" xmlns="http://www.w3.org/2000/svg" xmlns:xlink="http://www.w3.org/1999/xlink" x="0px" y="0px"
	 viewBox="0 0 100 100" style="enable-background:new 0 0 100 100;" xml:space="preserve">
<style type="text/css">
	.st0{fill:#272727;}
</style>
<g>
	<path class="st0" d="M79.2,88.5h-8.2l0-12c0-0.7-0.4-1.4-1-1.7l-7.4-4.2l0,0c-0.4-0.2-0.8-0.4-1.2-0.7c-3-1.7-7.9-4.3-9.7-8.9h16.5
		l8.5,8.3c0.5,0.5,0.5,0.5,0.5,1.9c0,0.2,0,0.4,0,0.7v16.8c0,1.1,0.9,2,2,2s2-0.9,2-2V72c0-0.2,0-0.5,0-0.7c0-1.8,0-3.1-1.7-4.8
		L71,58.3l0-6.5l5,0c2.3,0,3.9,0,5.8-2.6c0,0,0,0,0,0l6.5-9.3c1-1.4,1.4-3.1,1-4.8c-0.3-1.7-1.3-3.2-2.7-4.2c-1.4-1-3.1-1.3-4.8-1
		c-1.7,0.3-3.2,1.3-4.2,2.7l-4.1,6l-3.5,0l-4.3-6.7c4-2.6,7-7,7-12.3c0-2.9-0.9-5.8-2.5-8.2c0.6-0.6,1.1-1.2,1.5-2
		c0.9-1.7,1.6-4.4-0.4-8.1c-0.5-0.9-1.7-1.3-2.6-0.8c-3.8,1.9-6.7,2.1-9.4,2.1c-0.3,0-0.6,0-1,0s-0.6,0-0.9,0
		c-1.5,0-3.3,0.1-5.1,0.7c-5,1.8-12.5,6.9-7.7,21.8c0,0,0,0,0,0c0,0,0,0,0,0c0,0.1,0,0.1,0.1,0.1c0,0,0,0,0,0
		c1.2,2.8,2.8,4.9,4.9,6.4l-2.7,3.9l-11.5,3.9c-2.5,0.9-4.3,3.2-4.4,5.9c0,0,0,0,0,0.1v2.1H20.2c-1.1,0-2,0.9-2,2c0,1.1,0.9,2,2,2
		h11.2v5.7c0,3.6,2.9,6.5,6.5,6.5l0,0c3.6,0,6.5-2.9,6.4-6.5l0-7l1.1-0.4l1.8,9.3L45.7,67H34.6c-1.1,0-2,0.9-2,2c0,1.1,0.9,2,2,2H45
		l-0.4,1.9l-10.5,3.5c0,0,0,0,0,0c0,0,0,0,0,0l-6.8,2.5c-0.5,0.2-0.9,0.5-1.1,1c-0.2,0.5-0.2,1-0.1,1.5l5.8,15.7
		c0.2,0.5,0.6,1,1.2,1.2c0.2,0.1,0.4,0.1,0.7,0.1c0.3,0,0.7-0.1,1-0.3c3.8-2.1,6.1-5.6,6-8.7L56,84.2c2.3-0.8,3.2-2.1,3.8-3.4
		l2.8-5.7l3.4,1.9c0.2,0.1,0.3,0.2,0.5,0.2l0.8,0.4l0,12.8c0,0,0,0,0,0l0,7.4c0,0.5,0.2,1,0.6,1.4c0.4,0.4,0.9,0.6,1.4,0.6h17.3
		c0.9,0,1.6-0.6,1.9-1.4c0.6-1.9,0.2-3.9-1.1-5.6C85.3,90.2,81.5,88.5,79.2,88.5z M74.7,42.4c0.6,0,1.3-0.3,1.6-0.9l4.7-6.9
		c0.4-0.6,1-0.9,1.6-1.1c0.7-0.1,1.3,0,1.9,0.4c0.6,0.4,0.9,1,1.1,1.7c0.1,0.7,0,1.3-0.4,1.9l-6.5,9.3c-0.7,1-0.7,1-2.6,1l-5,0
		l0-5.4L74.7,42.4z M69,19.5c0,6-5.7,10.7-10.6,10.7c-1.8,0-3.4-0.3-4.7-0.9c-0.1,0-0.1-0.1-0.2-0.1c-1.9-0.9-3.5-2.5-4.5-4.8
		c0.9-2,3.8-8,8.5-8.3c1.3-0.1,5.9-0.6,9.8-2.5C68.4,15.3,69,17.3,69,19.5z M47.9,12.5c0.9-2.7,2.9-4.5,6.1-5.7
		c1.1-0.4,2.2-0.5,3.7-0.5c0.3,0,0.6,0,0.9,0c0.3,0,0.7,0,1,0c2.7,0,5.7-0.2,9.2-1.6c0.3,1,0.2,1.9-0.3,2.7
		c-1.5,2.7-6.9,4.4-11.4,4.7c-4.5,0.3-7.7,3.7-9.7,6.7C47.2,16.4,47.3,14.3,47.9,12.5z M41.7,46.9c-0.8,0.3-1.3,1-1.3,1.9l0,8.4
		c0,1.4-1.1,2.6-2.5,2.6h0c-1.4,0-2.6-1.2-2.6-2.5v-7.5c0-0.1,0-0.1,0-0.2s0-0.1,0-0.2v-3.9c0-1,0.7-2,1.7-2.3l11.8-4.1
		c0.3-0.1,0.5-0.1,0.8-0.1c1.1,0,2.1,0.7,2.4,1.7c0.5,1.3-0.3,2.8-1.6,3.2L41.7,46.9z M51.8,47.6c3.4-1.2,5.2-4.8,4-8.2
		c-0.6-1.8-2-3.3-3.8-3.9l1.5-2.1c1.5,0.5,3.1,0.7,4.9,0.7c1.3,0,2.6-0.2,3.9-0.6l4.8,7.5l0,8.8c0,0,0,0,0,0s0,0,0,0l0,7.4H50.9
		l-1.7-8.6L51.8,47.6z M34.7,93.4l-4.2-11.5l3.1-1.1l3.2,8.3C37.1,90,36.5,91.8,34.7,93.4z M56.3,79.1c-0.3,0.7-0.6,1-1.5,1.4
		l-15.1,5.2l-2.4-6.2l9.7-3.2c0.7-0.2,1.2-0.8,1.3-1.5l1.7-8.9c2.6,3.6,6.5,5.9,9.2,7.3L56.3,79.1z M71.1,95.9l0-3.4h8.2
		c1,0,3.6,1,4.8,2.7c0.2,0.3,0.3,0.5,0.4,0.8H71.1L71.1,95.9z"/>
	<path class="st0" d="M27.3,70.9c1.1,0,2-0.9,2-2s-0.9-2-2-2h0c-1.1,0-2,0.9-2,2C25.3,70,26.1,70.9,27.3,70.9L27.3,70.9z"/>
	<path class="st0" d="M12.4,47.5L12.4,47.5c-1.1,0-2,0.9-2,2c0,1.1,0.9,2,2,2h0c1.1,0,2-0.9,2-2S13.5,47.5,12.4,47.5z"/>
</g>
</svg>
