<?xml version="1.0" encoding="utf-8"?>
<!-- Generator: Adobe Illustrator 24.2.1, SVG Export Plug-In . SVG Version: 6.00 Build 0)  -->
<svg version="1.1" id="Capa_1" xmlns="http://www.w3.org/2000/svg" xmlns:xlink="http://www.w3.org/1999/xlink" x="0px" y="0px"
	 viewBox="0 0 100 100" style="enable-background:new 0 0 100 100;" xml:space="preserve">
<style type="text/css">
	.st0{fill:#272727;}
</style>
<path class="st0" d="M94,52.7V29c0-5.5-4.5-10.1-10.1-10.1H33.7c-0.8,0-1.5,0.7-1.5,1.5c0,0.8,0.7,1.5,1.5,1.5H84
	c3.9,0,7.1,3.2,7.1,7.1v23.7h-1.3c0.3-0.6,0.4-1.3,0.4-2.1c0-2.4-1.6-4.5-3.8-5.1c1.3-1.7,2.1-3.7,2.1-5.9c0-2.5-1-4.9-2.8-6.7
	c-3.7-3.7-9.8-3.7-13.5,0c-1.8,1.8-2.8,4.2-2.8,6.7c0,0.1,0,0.3,0,0.4c-1.4-0.3-2.8-0.5-4.3-0.3L61.7,40c-0.2-1.4-1.6-2.4-3-2.2
	l-6.6,0.8c-1.3,0.2-2.2,1.2-2.4,2.4l-2.7,0.2c-0.9,0.1-1.8,0.5-2.4,1.2l-7.4-6.1c-3.5-2.8-8.5-2.4-11.5,0.9l-8.4,9.5
	c0,0-0.1,0.1-0.1,0.1H8.9V29c0-3.9,3.2-7.1,7.1-7.1h18.7c0.8,0,1.5-0.7,1.5-1.5c0-0.8-0.7-1.5-1.5-1.5H16C10.5,18.9,6,23.4,6,29
	v18.8c-1.4,0.9-2.3,2.5-2.3,4.4c0,0.4,0,0.8,0.1,1.2c-2.2,1-3.7,3.2-3.7,5.7v2.6c0,3.5,2.8,6.3,6.3,6.3h0.9v2.4
	c0,2.6,2.1,4.6,4.6,4.6s4.6-2.1,4.6-4.6v-2.4h21.9c0.8,0,1.5-0.7,1.5-1.5c0-0.8-0.7-1.5-1.5-1.5H6.4c-1.8,0-3.3-1.5-3.3-3.3V59
	c0-1.8,1.5-3.3,3.3-3.3h53.4l-3.4,9.3H38.1c-0.8,0-1.5,0.7-1.5,1.5c0,0.8,0.7,1.5,1.5,1.5h17.2l-0.7,2c-0.2,0.5-0.3,1.1-0.3,1.6
	c-0.3,0.3-0.5,0.6-0.7,0.9l-2,3.4c-0.6,1-0.6,2.2-0.1,3.2c0.5,1,1.5,1.7,2.7,1.8l2.4,0.2c0.1,0,0.2,0,0.3,0c1.2,0,2.3-0.6,2.9-1.7
	l1.5-2.6c0.4-0.8,0.6-1.6,0.6-2.4c0.4-0.4,0.8-1,1-1.6l1.8-5h12.9c0.8,0,1.5-0.7,1.5-1.5c0-0.8-0.7-1.5-1.5-1.5H65.7l3.4-9.3h24.5
	c1.8,0,3.3,1.5,3.3,3.3v2.6c0,1.8-1.5,3.3-3.3,3.3H77.3c-0.8,0-1.5,0.7-1.5,1.5c0,0.8,0.7,1.5,1.5,1.5h6.2v2.4
	c0,2.6,2.1,4.6,4.6,4.6c2.6,0,4.6-2.1,4.6-4.6v-2.4h0.9c3.5,0,6.3-2.8,6.3-6.3V59C99.9,55.7,97.3,52.9,94,52.7z M13.6,70.2
	c0,0.9-0.8,1.7-1.7,1.7c-0.9,0-1.7-0.8-1.7-1.7v-2.4h3.4V70.2z M87.3,50.6c0,0.8-0.4,1.5-1,2c0,0-0.1,0.1-0.1,0.1h-9.1
	c0,0-0.1-0.1-0.1-0.1c-0.6-0.5-1-1.2-1-2c0-0.7,0.3-1.3,0.8-1.8c0.7,0.2,1.5,0.3,2.2,0.3c1.5,0,2.9-0.3,4.3-1
	c0.2,0.1,0.4,0.1,0.6,0.1h1.1C86.3,48.2,87.3,49.3,87.3,50.6z M83.6,34.9c1.2,1.2,1.9,2.9,1.9,4.7c0,1.3-0.4,2.5-1,3.6
	c-5.4-3.6-6.6-7.9-6.9-10c0.4-0.1,0.9-0.1,1.3-0.1C80.7,33,82.3,33.7,83.6,34.9z M74.3,34.9c0.2-0.2,0.4-0.4,0.6-0.5
	c0.5,2.7,2.2,7.1,7.5,10.9c-2.5,1.5-5.9,1.2-8.1-1c-1.2-1.2-1.9-2.9-1.9-4.7C72.4,37.9,73,36.2,74.3,34.9z M58.8,40.7l0,0.2
	c0.1,1.1-0.6,2-1.7,2.2l-2.3,0.3c-1.1,0.1-2-0.6-2.2-1.7l0-0.2L58.8,40.7z M6.7,52.7c-0.1-0.2-0.1-0.4-0.1-0.6c0-1.3,1-2.3,2.3-2.3
	h35.8l0.5,2.9H6.7z M30.3,46.8l1.9-2.1l2.6,2.1H30.3z M27.9,39.2c1.9-2.2,5.2-2.4,7.5-0.6l8.6,7c0,0,0,0,0,0l0.2,1.2h-5
	c-0.1-0.1-0.2-0.2-0.2-0.3l-6.1-5c-0.6-0.5-1.6-0.4-2.1,0.2l-4.4,4.9c0,0-0.1,0.1-0.1,0.1h-5.2L27.9,39.2z M58.8,75.4L57.3,78
	c-0.1,0.1-0.2,0.2-0.4,0.2l-2.4-0.2c-0.2,0-0.3-0.2-0.3-0.2c0-0.1-0.1-0.2,0-0.4l2-3.4c0.2-0.3,0.5-0.6,0.9-0.7
	c0.1,0,0.3-0.1,0.4-0.1c0.3,0,0.5,0.1,0.8,0.2C59,73.7,59.2,74.6,58.8,75.4z M69.9,49c-0.8-0.3-1.6,0.1-1.9,0.9l-7.7,21.3
	c-0.2-0.2-0.4-0.3-0.7-0.5c-0.6-0.4-1.4-0.6-2.1-0.6l7.7-21.3c0.3-0.8-0.1-1.6-0.9-1.9c-0.8-0.3-1.6,0.1-1.9,0.9l-1.7,4.8H48.2
	l-1.3-8.1c0-0.2,0-0.3,0.1-0.4c0-0.1,0.2-0.2,0.3-0.2l3.1-0.2c0.8,1.5,2.4,2.5,4.2,2.5c0.2,0,2.9-0.3,2.9-0.3
	c1.8-0.2,3.3-1.4,3.9-3.1l3.9-0.3c1.7-0.1,3.3,0.1,4.8,0.7c0.5,1.1,1.2,2.1,2,3c0.5,0.5,1.1,1,1.7,1.4c-0.6,0.9-0.9,1.9-0.9,2.9
	c0,0.7,0.1,1.4,0.4,2.1h-3.3l0.7-1.8C71.1,50.1,70.7,49.3,69.9,49z M89.8,70.2c0,0.9-0.8,1.7-1.7,1.7c-0.9,0-1.7-0.8-1.7-1.7v-2.4
	h3.4V70.2z"/>
</svg>
